<mxfile host="app.diagrams.net" agent="Mozilla/5.0 (Macintosh; Intel Mac OS X 10_15_7) AppleWebKit/537.36 (KHTML, like Gecko) Chrome/133.0.0.0 Safari/537.36" version="26.1.0">
  <diagram name="ページ1" id="qxiAEYchN8zLbM4p4nDS">
    <mxGraphModel dx="1504" dy="986" grid="1" gridSize="10" guides="1" tooltips="1" connect="1" arrows="1" fold="1" page="1" pageScale="1" pageWidth="1169" pageHeight="827" math="0" shadow="0">
      <root>
        <mxCell id="0" />
        <mxCell id="1" parent="0" />
        <mxCell id="qY5O7VFriRonlo1umFiI-37" value="" style="whiteSpace=wrap;html=1;strokeColor=none;" vertex="1" parent="1">
          <mxGeometry x="20" y="180" width="1290" height="640" as="geometry" />
        </mxCell>
        <mxCell id="qY5O7VFriRonlo1umFiI-12" style="rounded=0;orthogonalLoop=1;jettySize=auto;html=1;entryX=0;entryY=0.5;entryDx=0;entryDy=0;startArrow=none;startFill=0;" edge="1" parent="1">
          <mxGeometry relative="1" as="geometry">
            <mxPoint x="111.02999999999997" y="410" as="sourcePoint" />
            <mxPoint x="160" y="409.77" as="targetPoint" />
          </mxGeometry>
        </mxCell>
        <mxCell id="qY5O7VFriRonlo1umFiI-1" value="" style="sketch=0;outlineConnect=0;fontColor=#232F3E;gradientColor=none;fillColor=#232F3D;strokeColor=none;dashed=0;verticalLabelPosition=bottom;verticalAlign=top;align=center;html=1;fontSize=12;fontStyle=0;aspect=fixed;pointerEvents=1;shape=mxgraph.aws4.mobile_client;" vertex="1" parent="1">
          <mxGeometry x="90" y="400" width="21.03" height="40" as="geometry" />
        </mxCell>
        <mxCell id="qY5O7VFriRonlo1umFiI-2" value="" style="shape=image;verticalLabelPosition=bottom;labelBackgroundColor=default;verticalAlign=top;aspect=fixed;imageAspect=0;image=data:image/png,iVBORw0KGgoAAAANSUhEUgAAA+kAAAPoCAYAAACiYb/aAAAACXBIWXMAAAsSAAALEgHS3X78AAAgAElEQVR4nOzdT4xV150v+p1AF2lKwoVbpM19SFWR1UYCtSEDIqGWMBkkA1qm3YPTM8dEsifu8JIrlXtky45s3SvFJaWvSHsSS8HtpzepQXKJLoP0IJjBLSlcycZX5jWWrFRd8druRteUkeDFxE4//Tbn4AKqoOr822ut/flIJTu2A+fsfTh7f/f6/X7rSxWwbhMLnZmqqma6//3+qqqmun//QPd/r7Ty3wMAlObMHe9nsaqqpe7fL1dV9U7v728cnH/H2Yf1EdKha2KhM7UiWO+/I3gfdpwAAAb2TjfA9wL9Yu/nxsH5RYcXhHRaaGKhc7i7Gh4/+7qhXAgHAGheL8S/tSLAv3Pj4Pyyc0NbCOkUq1uavr/789iKYA4AQF56gf2tFcFdCT1FEtIpQjeQH+6ujO+3Mg4A0Apnuqvv5wV3SiGkk6VuyXovlB82oA0AgBUD697qBXil8uRGSCcLK0L5Y1bJAQDYgHe6gb0O7kI7qRPSSdLEQidK1p8QygEAGLJeaP+vNw7O37mNHDROSCcJK3rK/0r5OgAAY/SL7ir7L2wDRwqEdBqzYrX8r1bsRw4AAE1Z7Ib2NwyhoylCOmPVDeZPdcO57dAAAEjVcjewR1n8L5wlxkVIZ+QmFjq91fInlLEDAJAhgZ2xEdIZCSvmAAAUSmBnpIR0hqY7/O1YN5wL5gAAlE4PO0MnpDOQiYXOVHe1/ClbpQEA0GIR0t+oquqkvdgZhJBOX7rl7N/XZw4AAHc52V1dtw87Gyaks24rVs2/b8s0AAC4ryiH/y9W19kIIZ376vaaf7/bb27VHAAANi5W1/+L3nXuR0hnTRMLncMrStoBAIDBnemWwp90LFmNkM5dJhY6sWL+ogntAAAwMkrhWZWQTq3bb/6D7sq5knYAABiP5RVhfdExR0hvOeEcAACSESXwPxTW201Ib6nuMLgXu8PgAACAdAjrLSakt4xwDgAA2RDWW0hIbwnhHAAAsiWst4iQXrgVPecvtv1YAABA5oT1FhDSC2UgHAAAFOvvu2Hd1m0FEtIL1N3n/MfCOQAAFKu3ddvfC+tlEdILMrHQOVxV1c+qqppp+7EAAICWWOyuqp90wssgpBegOxQuwvnhth8LAABoqXeqqvqPNw7On/EByJuQnrFu3/mL3d5zAACAX3TDuuFymRLSM6XvHAAAWEPdr37j4PxLDlB+hPTMTCx09nfDudJ2AADgXmI1/btK4PMipGdCaTsAANCnX3TDuinwGRDSMzCx0HmiOxhOaTsAANCP5e4U+L939NImpCesu3oe4fyJth8LAABgKM50B8u943Cm6cttPwCpmljoRFn7bwV0AABgiGK21dsTCx1D5RJlJT0x9jwHAADG5J1ur7pV9YRYSU9Id/X8bQEdAAAYg/1W1dNjJT0Bes8BAICGWVVPhJX0hnUnt+s9BwAAmhSr6r/uVvfSICvpDemunv+4qqpjrTwAAABAqmIC/F/bV70ZQnoDJhY68ZTq51VVzbTuzQMAADlY7pa//8LZGi/l7mO2YjicgA4AAKQqKn9/PrHQ+bEzNF5W0sfEcDgAACBT73TL3xedwNET0sdAeTsAAJA55e9jotx9xJS3AwAABVD+PiZW0kfE9HYAAKBQUf7+TdPfR0NIH4FuefvPunsNAgAAlGa5G9TfcWaHS7n7kE0sdGIw3K8FdAAAoGBROfz2xEJH5fCQCelDNLHQeak7IG6qmDcFAACwtp9NLHR+5vgMj3L3IdB/DgAAtJw+9SER0gfUDejK2wEAgLZb7O6nrk99AEL6ALoD4n6tvB0AAKC23A3qZxyO/uhJ79OKAXECOgAAwE11pbGBcv0T0vvQ/cAZEAcAALC6GCj3Y8dm45S7b1D3g/aDrF40AABAM07eODj/Xcd+/YT0DehuLaBsAwAAYP1Mft8AIX0duhPcI6A/kfyLBQAASI+gvk5C+n3YYg0AAGAoIqh/1xZt9yak34OADgAAMFTL3RV1QX0NpruvYcUe6AI6AADAcPS2aJOz1mAlfRUrArot1gAAAIbPivoahPQ7COgAAABjIaivQrn7CgI6AADA2PRK3+2itYKV9C4BHQAAoDEx9f2kwy+k1wR0AACAxrU+qFdCuoAOAACQkOhRP9PmE9LqkC6gAwAAJKX1w+RaG9IFdAAAgCS1Oqi3MqRPLHQimL9dVdVMAi8HAACA27U2qLduC7ZuQP+1gA4AAJCs3vZs+9t2ilq1kr4ioLfuRAMAAGQoVtS/duPg/HJbTl7bVtIFdAAAgHz0VtRbM0usNSF9YqHzMwEdAAAgO/vbFNRbEdK7Af1YAi8FAACAjYug/rM2HLfiQ/rEQucHAjoAAED2nuguwBat6JA+sdCJcP7jBF4KAAAAgzvWXYgtVrHT3buj+t9O4KUAAAAwXN+9cXD+ZInHtMiQPrHQmekG9NZMAAQAAGiZr984OP9OaW+5uHL37sS/nwvoAAAARft1d4G2KCX2pP/cVmsAAADFqxdoS9uaraiQPrHQiSFxhxN4KQAAAIxecVuzFRPSu5Pci57yBwAAwF1ia7aXSjksRQyO605y/7U+dAAAgNb66xsH53+R+5vPPqR3+w9ikntxAwMAAABYt+Wqqr6Z+8T3Esrdfy6gAwAAtF4s4P4s90FyWYd0g+IAAABYIftBctmG9ImFzhMGxQEAAHCHGCSXbVbMsie9u2H92wbFAQAAsIav59ifnutK+s8FdAAAAO7h5zn2p2cX0rt96PsTeCkAAACkaybH/vSsQro+dAAAADYgu/70bHrSu2UKv1XmDgAAwAZl05+e00q6PnQAAAD6kc3+6VmE9G55gv3QAQAA6EfMNXsxhyOXfLn7xEJnf3e7NQAAABjEX984OP+LlI9gDivp2U3jAwAAIEnJl70nHdInFjov2W4NAACAIZlKfSE42XJ3Ze4AAACMSLJl70mG9G75wdvdzecBAABgmJarqvrajYPzy6kd1VTL3X8goAMAADAiyZa9J7eSrswdAACAMUmu7D3FlXTT3AEAABiH5Ka9JxXSTXMHAABgjCKg/zilA55MufvEQid60H+bwEsBAACgXb554+D8mRTecUor6crcAQAAaEIyeTSJkD6x0DlWVdXhBF4KAAAA7TPTbb9uXOPl7t0m/d92ewEAAACgKbF3+mKTRz+FlfQXBXQAAAAS0HjZe6Mr6fZEBwAAIDGN7p3e9Ep6UqPuAQAAaL1Gc2pjIX1iofOEYXEAAAAkptEhco2Uu3eHxUWZ+0wTvz8AAADcw3JVVV9vYohcUyvpPxDQAQAASNRUd8j52I19Jd2WawAAAGQiVtPfGedLbWIl/ccCOgAAABkY+xC5sa6kTyx0Zrqr6AAAAJCDb944OH9mXK9z3CvpjW8MDwAAABsw1hw7tpA+sdA5bMs1AAAAMhNbsh0b10se50p6I5PxAAAAYEBjy7NjCelW0QEAAMjY2FbTx7WSbhUdAACAnP24u6X4SI08pFtFBwAAoAAR0H8w6rcxjpV0q+gAAACU4PujXk0faUi3ig4AAEBBRr6aPuqVdKvoAAAAlGSkq+kjC+lW0QEAAChQBPQnRvW2RrmSbhUdAACAEo0s744kpFtFBwAAoGAj2zd9VCvpVtEBAAAo2Uhy79BD+sRCZ8YqOgAAAIWL1fSh96aPYiXdKjoAAABt8P1hv8cvDfMX666i/3aYvyYAAAAk7Js3Ds6fGdbLG/ZK+kga5wEAACBRTw3zZQ07pA99qR8AAAASdqxbVT4UQwvp3fHzUz45AAAAtMzQqsqHuZJuFR0AAIA2GloeHkpIn1joxJZr+4fxawEAAEBmprrV5QMb1kr6UBvlAQAAIDNDWU0feAu2iYVO9KFfyezgAQAAwLB9/cbB+XcG+TWHsZJu2zUAAAAYwmr6MEK6gXEAAABQVU90q837NlBI7w6MG9p+cAAAAJCxCOhPDPLyB11JNzAOAAAAvjBQtXnfg+O6S/i/7T4pAAAAAG762o2D84v9HItBVtKfENABAADgLn2vpg8S0pW6AwAAwN367kvvK6RPLHRiWNxhJwIAAADuMjOx0OkrqPe7kj7QtDoAAAAo3F/18/b6Den2RgcAAIC1jWclfWKhs9/e6AAAAHBPUxMLnWMbPUT9rKQbGAcAAAD3t+GS935Cun50AAAAuL8nJhY6G9q6fEMhXak7AAAAbMiGFro3upKu1B0AAADWb0Ml7xsN6UrdAQAAYP1Gs5Ku1B0AAAA2bmKhs+6gvpGV9MPOBQAAAGzYukveNxLS9aMDAADAxg13JX1ioRNl7vudCAAAANiwqYmFzrqq09e7kq7UHQAAAPq3rpL39Yb0DY2MBwAAAG5jJR0AAAASsb/bSn5P9w3p3br5KWcVAAAABnLfBfD1rKQrdQcAAIDB3TdfryekK3UHAACAwQ22kj6x0Jmy9RoAAAAMRWzFds+Mfb+VdKvoAAAAMDxP3OtXul9If8yJAAAAgKG5Z862kg4AAADjc8+cvWZI148OAAAAw9fd6nxV91pJt4oOAAAAw9dXSNePDgAAAMO3Zt62kg4AAADjtWZr+b1Cun50AAAAGL4190tfNaTfq4kdAAAAGNj6Q7pSdwAAABipVfvS1wrp+5wLAAAAGJkNraTrRwcAAIDRWV9In1joTFVVNeNEAAAAwOisNg9utZV0q+gAAAAwenfl782r/JaGxgHAkE1tnqwe3Xp7odr0lh3VzJYdq/5G8e+mt3x1ZKdh6dN/q5Y+vbzqvzt/fbFa/uz6bf/s3fqfXRvZ6wGAlrprHtxqId3QOAC4h32TM9UDmybr/+CxbXtu/YePTs5UU91//sDmrdW+rSl3j+1Zx3+ztgjyn3SD/PLn16p3ry3e+m/funqh/usnn1+rzq/45wDAXe5aSf/Snf9gYqHzWz3pALRRb/V6akXAPrRtb/3Xm/9u9VVv7i9W7Xsr92evvlf/tbdif69VfQAo3Y2D87fl8tVC+r/7FABQol4I3zc5Xa9491a+H+3+b5p1c0V+6dbK/HK9Er8kxANQum/eODh/pvcebyt3X22yHADkpBfEowz9gc2T9Yq4VfA8xIOSQ932gaPbD9z1mnsl9rESL8ADUJDbKtnv7ElX5g5AFqIvPIJ3hPBHV/w95fqiBeHufvqzVy/cWoGPMB/BXT88AJkQ0gHIx8qVcWGctay1Ah+BPYJ7hPYYaGdKPQAJemzlS7ozpD/mjAHQlJWr4zGwTa84g4rPUu+hzvPdX6vX+x5l8xHiz3dDPAA0xEo6AM2rw/jkzTB+M5QPtiUYrFev933lZ05wB6BBt+Xw26a7m+wOwChMbZ6sHt06c6tkPcKRFXJSF8E9et2jXD5K5XtbxwHACHz9xsH5d6qVIb072f3XjjYAg4pV8nqFvBvI9ZBTilhlP9sN7FbbARiiv75xcP4X1R3l7lOOMAD9iDDeWymPcG67M0rV63E//tCR+h1GSI/A3ltpF9oB6NP+qqruCun7HU0A1qO3Un70wQNK12m1+LPw5I7D9U8ltAPQv+ne/3NlSH/AAQVgNb1QbqUc7u1eof2XV87Z/g2AtdzqDVzZkx796IcdMgDCzVXyvXrKYYh6Pe2nPj5nEB0AKy3eODj/teqOkP62kneA9ooVwF4wP7r9gE8CjFhvenwvsCuNB2i3Gwfn63y+MqTbfg2gZXp95RHKlbBDs3qr7G9ePlNPjgegdb524+D8Yh3SJxY6Mdn9is8AQNliv/LHtx+oe8sff/CAgW+QqFhl/+XH56pTV87VwV0vO0ArfPPGwfkzvcFxytwBCrVyErsydshDPEBbOYAuwnqUxRs+B1C0elv0zc4xQHl6/eVxg2/oG+QvHrD1HrLVfexXflOHdn3sAEWp90q3kg5QCMEc2uFQvRXinmpu+ljdxx497AI7QDl6IX3KOQXIj2AO7RZ/7vdNH7sV2E98eFpJPEC+9lUrQvoDTiRAHnrD3/SYAytFYH/94Wfrf6KHHSBLt/WkK3cHSFxvxVwwB+5nZQ97XQ7fDe0ApM/gOICE7Zuc6U54fsx2aUBfelPiY1u3Ny+/ZR92gHTVW3r09kl/22o6QBqinD1C+fGH/rLuOQcYtt7AuQjtyuEB0nHj4PyXeiH9350XgGYpZweaoBweIB1COkDDYqX8O91SVKvmQJNiC7cI7P94+Yzt3ACa800hHaABVs2BlMXKem//dQDG6ptfmljoRC/62447wGhFr/nxh45YNQeyESvqJz76b3rXAcanDukxQe7XDjrAaBzatrf6zo7H6nAOkKtYWT/x0WmT4QFGS0gHGJUI5cd3Hqn2bZ1xjIFinL16oe5bj9AOwND9RyEdYIh6Je3f23nEvuZA0XqD5mJ1XSk8wND8UEgHGILoMX9hV0dJO9BKEdZfvjRvKjzA4H64uaqq/Q4kQH+i3zzC+aFtexxBoLWe7G4lGVPhT3x4ujp79T0fBoA+RUifcvAANka/OcDdYlvJ+NG3DtC/zY4dwPpFOI+Vc1uoAawtqoviJ74vowxeWAdYv02bnt4bDZSaKAHWEMPgnvsPT1Tzu5+r/uZP/qL+3wDcX3xfHn3wQPWdmNfxpap6/3f/Uv3uD7935ADWtiikA6yhF87f/LPvV9+e2l995csTDhVAH+L7NL5Hn/nTb1V//OWJ6t3rS8I6wOqWlbsD3ME2agCjEd+pz+/q1N+vP/nwtO3bAFYhpAN0CecA4yGsA6xNSAdaTzgHaIawDnA3IR1oLeEcIA3COsAXhHSglV7o3gwK5wDp6IX12O7S1m1AW33ZmQfaJG783v/6P9Q3gQI6QJqmt+yoXn/42fr7Or63AdpESAda4dC2vfXNXtz0xc0fAOnrhfXfPPqj+nscoA2UuwNFi5u6KG0/tG2PEw2QqX1bZ6p/2vNidfbqhWp26WR1/tqiUwkUS0gHihSrLy90+xoBKEM8cP3Nn/+o7lWPnvWlTy87s0BxhHSgKL2J7dFzDkCZ4gHs4w8eMAkeKJKedKAYcdN28es/EdABWqA3CT5W1lVNASUR0oHsRd95DBWK4UImtgO0S2+43D/teclwOaAIQjqQrbgxm9/9XD1MKIYKAdBe0a8e14P6ge1mD2yBfAnpQJZiKFysnh/dfsAJBOCWXuvT8Z1HHBQgS0I6kJXefufRh6i0HYDVxPVhbvpYfb1QAg/kRkgHsrCytD3+HgDuJ64XSuCB3AjpQPKiZFFpOwD9UgIP5MQ+6UCy9k3OVD99+FlD4QAYWK8E/uj2b1SzSyer89cWHVQgSVbSgeRESeLczLF671sBHYBhiinwcX2JAaRK4IEUCelAUuo9z//8R9Xxh5QkAjA6MYA0rjcGywGpEdKBJMRqhsFwAIxTb7BcVG9ZVQdSIaQDjTv64IF6oI/BcAA0Iaq3YlU9rkcATRPSgcb0Vs/nH3nOnucANKre6vOR5+rrklV1oElCOtAIq+cApCiuS/X1yao60BAhHRgrq+cApC6uT3Gd0qsONEFIB8YmJuhaPQcgF71edRPggXES0oGR6+17HhN0rZ4DkJOVE+ABxkFIB0Zq3+SMfc8ByF69qv7oj+rrGsAoCenAyLywq1MHdPueA1CCfVu7D553evAMjI6QDgzdzdLAl6rnd3UcXACKMzd9rL7OGSoHjIKQDgxVbFkT5YCHtu1xYAEoVlznYhiqoXLAsAnpwNDEUB1bqwHQFnG9M1QOGDYhHRhYlLfH6rnhcAC0UW+onBkswDAI6cBAeuXtMUwHANqqHir36I/q6yLAIIR0oG/K2wHgC3E9jOui8ndgEJsdPWCjopxvfvdzVs8BYBVR/h7XyM77r1bLn11ziIANsZIObEhMsVXeDgD3Zvo70C8hHVi3F3Z16im2ytsB4P5609+P7zRYFVg/IR24r6nNk3V5+/O7Og4WAGzQ3PSx6vWHn62vpwD3I6QD97Rvcqb61Z4Xq6PbTasFgH49ueNwfT21TRtwP0I6sKbYRiZuKPSfA8Dgetu06VMH7kVIB1YV/XO2VwOA4er1qcfKOsBqhHTgNtEvF31z0T8HAIxGXGvjB+BOQjpwSwT0X3m6DwBjEdfbKH83UA5YSUgHajEgLvZz1X8OAOMT1916/suk6y9wk5AO3BoQp/8cAMavF9QNlAMqIR2IUjsD4gCgWQbKAT2bHQlorxhY42YAANIR1+aZLTuqly/NOyvQUlbSoYV6E9wFdABIz/O7Oia/Q4tZSYeW6U1wNyAOANIVD9Knt3y16rz/arX82TVnClrESjq0yPSWHQI6AGTi0LY9Nwe72qINWkVIh5aIrV1iL1YBHQDyEdft3/z5j2zRBi0ipEMLxIXdFmsAkKdblXCCOrSCkA6Fswc6AOQvruOCOrSDkA4Fswc6AJQjrudR+m53FiibkA6Figu47VsAoDy2UYWyCelQIAEdAMomqEO57JMOhXlhV6d6flfHaQWAwvUeyL95+YxTDQUR0qEgnqoDQLsI6lAe5e5QCAEdANop7gHmZo45+1AIIR0KIKADQLsdf+iIeTRQCCEdMiegAwCVwbFQDCEdMiagAwArCeqQPyEdMiWgAwCrifsDPeqQLyEdMiSgAwD3Ej3q7hUgT0I6ZCb2QXfRBQDux0N9yJOQDhmJC+3zuzpOGQCwLoI65EdIh0wYBAMA9ENQh7wI6ZABAR0AGISgDvkQ0iFxAjoAMAxxP7FvcsaxhMQJ6ZCwuJDOzTzlFAEAQ/GrPS8K6pA4IR0SFRfQuJBObZp0igCAoYj7CkEd0iakQ4Kmt+wQ0AGAkYj7i/lHnqumNrvPgBQJ6ZCYuGDO735OQAcARubWgoCgDskR0iEhcaGsS9C2KkEDAEYr7jdiRR1Ii5AOCZmbfkpABwDG5tC2PXaRgcQI6ZAI+5cCAE2I+48XdnUce0iEkA4JiIujgA4ANOX5XR33IpAIIR0advTBA8rMAIDGxf2IrdmgeUI6NCguhD8V0AGARNhDHZonpEND6q3WHrHVGgCQjrgviQUEW7NBc4R0aEg8qY49SgEAUmJrNmiWkA4NqHu+bLUGACQqtmabmznm9EADhHQYM5PcAYAcHH/oiHsWaICQDmN0aNtek9wBgGzMzTxlkByMmZAOYxL95/O7Zx1uACAbMUiuHnRrkByMjZAOYzK/2yR3ACA/9UKDQXIwNkI6jIFBcQBAzgySg/ER0mHEDIoDAEoQg+SOPnjAuYQRE9JhhGLQSgxcAQAowU+jOtAgORgpIR1GJAasxIVMHzoAUIq4r6nvbwySg5ER0mFEfqoPHQAoUNzfzE2rFIRREdJhBI7vPFId3a5nCwAok5k7MDpCOgxZ9Gk9v6vjsAIARYu5O7E9GzBcQjoMkT50AKAt4n5nfrf902HYhHQYolhB14cOALRF3Z9u/3QYKiEdhiT2DY39QwEA2iTufw5t2+ucw5AI6TAEvTJ3AIA2mt89a1s2GBIhHYZg/pHn9KEDAK3V2z8dGJyQDgOK7dYObdvjMAIArRbbz9qWDQYnpMMAbLcGAPAF27LB4IR0GIDt1gAAvhD3Ra8//LeOCAxASIc+vWC7NQCAu0QbYLQDAv0R0qEPytwBANYW90nK3qE/Qjr0wfRSAIC1KXuH/gnpsEHK3AEA7k/ZO/RHSIcNiLItZe4AAOuj7B02TkiHDVC2BQCwfsreYeOEdFinKNeKsi0AANYv7p+OPnjAEYN1EtJhHaY2TypzBwDoUwzdjfsp4P6EdFiH+sKyyYUFAKAfcR9lwQPWR0iH+zi0bW91dLsSLQCAQRx/6Eh9XwXcm5AO9/G6PdEBAIZibuYpBxLuQ0iHe3jBtiEAAEOzb+uMvdPhPoR0WEOE8++5iAAADFX0phsiB2sT0mENczPHDIsDABiyuL+am1b2DmsR0mEVhsUBAIzOkzsOGyIHaxDSYRWGmgAAjNYLtmSDVQnpcIcYZhJDTQAAGJ1D2/bUK+rA7YR0WCGGmDzvqS4AwFi8YIgc3EVIhxWOP3TEsDgAgDGJ3XTi/gv4gpAOXXGRsIoOADBeseWt1XT4gpAOXYaXAACMny3Z4HZCOlRVtW9yxuASAICGxH1YVDUCQjrU5qaPORAAAA1S1Qg3Cem03qFte+stQAAAaE6spsd9GbSdkE7reWoLAJAG92UgpNNyVtEBANIR92VW02k7IZ1We/3hZ9t+CAAAkmI1nbYT0mktU0QBANJjNZ22E9JpLU9pAQDS5D6NNhPSaSWr6AAA6bKaTpsJ6bSSp7MAAGlzv0ZbCem0TjyVtYoOAJA2q+m0lZBO63gqCwCQB/dttJGQTqvYFx0AIB9x37ZvcsYZo1WEdFrF01gAgLwcf+iIM0arCOm0RjyFtYoOAJAXu/LQNkI6reEpLABAnlRD0iZCOq0QT1/jKSwAAPl5/MED1dTmSWeOVhDSaYXvCOgAANma2jSpKpLWENIpXjx1/d5OX+oAADlTFUlbCOkU7/HtB+qnrwAA5Ev7Im0hpFM8g0YAAMqghZE2ENIp2qFte23ZAQBQiNhON7bVhZIJ6RTtuF50AICiGCBH6YR0ihUr6Ee3H3CCAQAKEn3ptmOjZEI6xdKzBABQpid3PObMUiwhnWKZ/gkAUKbjD/2lM0uxhHSKdPTBAwbGAQAUKu7zYkAwlEhIp0hW0QEAyvYdJe8USkinOAbGAQCUzwA5SiWkU5wodQcAoHyPW5ihQEI6xTFIBACgHY7vtGc65RHSKcq+yRkD4wAAWmLfVvd+lEdIpygGxgEAtMvxnaooKYuQTlGeNOUTAKBVDAymNEI6xYiBcVObTPgEAGiTKHePlkcohZBOMTxFBQBoJy2PlGSzs0kpHrf1WpLOXr0wtpf16OS0aopELH16uf4Zh1hBaXJoUJvea058BhmnBzZvrQeY0ZxoeZxdPOkMUAQhnSIodU/PK5fmqxMfna6WP7s21tcWT9LnZp7yeWhIPJR5+dJ8dfbqe2N9AVHmOFETYEMAACAASURBVDd9rDq0bc/Yfs/z1xer2cU3WvFec9LUZ/DQtr3VC7s6rfgMsrp4UDM3c0xlX0Piuh/3g6c+PtfK909ZNm16em/UhqgPIWvP/Ycn9CIlYvnza9Xj//yfqzcvn6l+94ffj/1FvXt9sZr/3/+9OvTA3uqhP5pK9CiVKc555/1XG1nR+9ffL9e//8yY+hJPXTlX/c37c9XF/+//Hfnvdadxv9ecNPkZjN9znOclfq/H//k/WUFPyCefX6+vP3FOjqrua8Snf/h9/f0MmVvUk04RlLqn45UGVrDuFDdIz3zwWrLHqESxovd0Asc8XsOoWyx6n69xV4ncKd6rm9EvxHlv02dwdumNkf4e9C8eoPiz2Qz3g5RCSCd7St3TETeOJz48ncTrOX9tsb5RYjyi5DYVT3/wDyN9JVFK3XRA74mHBVZSb4rzkopRv5aUPoOsTm90M+J+MFpPIHdCOtnT+5WO1ELxP15+K4FXUb5ocUipJzZCa6zsj8ovE1ohi6AW5d1tF+c8pc9gvJZRPjzxADJ9Nz+T4xucyhe0GlACIZ3sKW1KxyiDUT8MUxqPd68tJfeaPvns+kh+3fiMp7aCGVUjs0vtXrVLsZpgVK9J8MuHa1AzLN5QAiGdrEVJk1L3dCyPKBhBKkYV/gcVbSZ6YAFuTtk3VJPcCelkTUkTwE360wFusppO7oR0suZLGOCmKMNPYbo5QNO0QpI7IZ1sRTlT/ABwU/TAvpLQlHOAJuzbOuMekawJ6WRLqTvA3WJ7LsPFgLazFRs5E9LJli9fgNXFtmyxNR5AW1nMIWdCOtnSjw6wunr/9Itzjg7QWoe27XHyyZaQTpasogPcm/50oM1ii15bsZErIZ0sKWECuL/oTz9/fdGRAlpJ1SW5EtLJkhImgPXpXNSfDrSTyktyJaSTnanNk/XWGgDc39Knl6tn7J8OtJBFHXIlpJMdX7gAG3Pq43PViY9OO2pA61hNJ0dCOtnxZQuwcbOLJ/WnA63zmMUdMiSkkx0r6QD90Z8OtI3FHXIkpJMV/egA/dOfDrSNxR1yJKSTlUcFdICBRH/6m5fPOIhAa1hNJzdCOlnRVwQwuNmlN/SnA62xb3LaySYrQjpZ8SQUYHDLn12ry971pwNt4P6R3AjpZEVfEcBwnL+2WM0uvuFoAsVz/0huhHSysW9SPzrAMEVvuv50oHRTmyar6S07nGeyIaSTDUPjAIZPfzrQBhZ7yImQTjZ8uQIMX68/HaBktvAlJ0I62fDlCjAadX/60klHFyiW4XHkREgnG4Z+AIzOiQ9PV6eunHOEgSI9ahs2MiKkkwWl7gCjF2XvS59edqSB4hgeR06EdLJgaBzA6EV/euf9Vx1pGALl1emx6EMuhHSyMOPJJ8BY6E+HwcWKrTa99JhvRC6EdLLgaTTA+OhPh8HMzRxzBBP0qJV0MiGkkwXDPgDGK/rTlz+/5qjDBh3feaQ6uv2Aw5YgPenkQkgneVObJ+thHwCMT92ffnHOEYd1in7n+d3PVXPTVtFTpdydXGx2pkidoXEAzTh79b3qlUvz1fO7Os4Aa3pyx+HqOzsOt/oAxQqtVdo8xMOUmL0BKRPSSZ6LHkBzXr40X88FMQSLtcwYkkZG4r5SSCd1yt1JnsnuAM2Kbdn0pwMlUPJODoR0kmeyO0Cz9KcDpVChSQ6EdJL3wOatThJAw3r96QA5m97yVeeP5AnpJE9ZEkAaoj/9/HW9nEC+bOtLDoR0kqYkCSAtnYv604F82daXHAjpJE1JEkBalj69XD3zwWvOCpAt845InZBO0qykA6Tn1MfnqhMfnXZmAGAEhHSSZvs1gDTNLp7Unw5k6TH7+pM4IZ2kWUkHSJf+dAAYPiGdpOlJB0hX9KfPLr7hDAFZ0ZNO6oR0AKBvb14+U/8AAMMhpJO0Q3qGAJI3u/SG/nQgG9opSZ2QDgAMZPmza/W2bPrTgRwI6aROSCdZvkAB8nH+2qL+dAAYAiGdZBkaB5AX/elALgyPI2VCOgAwNNGfHlPfAYD+COkkS7k7QH6iP73z/qvOHAD0SUgnWTNCOkCW6v70pZNOHpCsfZPTTg7JEtIBgKE78eHp6tSVcw4skKSpTZNODMkS0gGAkYht2fSnA8DGCOkky9RNgLzpTweAjRPSAYCR0Z8OpMhiECnb7OwAAKMU/elHt3+jOrRtj+NcoLeuXqiqS/Otff+xG830lq/6fANDI6QDACMXZe8Xv/4Tw5oKdPbqe/VP20VYf2FXp3pyx+G2HwpgQMrdSdYDm7c6OQCFqPvTL845nRQrhiQ+/cFr9Q/AIIR0krVv64yTA1CQWG19pcVl0bTDm5fPVCc+Ou1sA30T0gGAsXn50nx1NnqYoWAeRqUv2hMgVUI6ADBW0Z++/Pk1B51iRXuHh1FpE9JJmZAOABk7vvNIdjeb+tNpA8P0gH4J6QCQsZiW/vrDf5vdG4gAo28XAO4mpANA5mJ/5tj6KTeziyer89cXffwAYAUhHQAK8PyuTnVo297s3kjnov50AFhJSAeAQszvnq2mNk9m9WZib+ln7CsNALcI6QBQiOhPn3/kuezezKmPz+lPB4AuIR0ACqI/HQDyJqQDQGGiP33f5Ex2b0p/OgAI6QBQpCh7z7E/fXbxjQReCQA0R0gHgAJNb9lR/fThZ7N7Y29ePlP/AEBbCekAUKij2w9Ux3ceye7NzS69oT8dgNYS0gGgYHPTx7LrT1/+7Fq9LZv+dADaSEgHgMLl2J9+/tqi/nQAWklIB4DC6U8HuF0MqoRUCekA0ALRn/7kjsPZvdHoT3czDQyb7xVSJqSTrLNXLzg5AEM0N/NUlv3pnfdfTeCVAMB4COkA0BJTmybrsvcs+9OXTibwSgBg9IR0AGiRfVtnqrnpp7J7wyc+PF2dunIugVcCAKMlpANAy0Rveo796bEtmz5SAEonpANAC+lPB9rs7NX3nH+SJaSTLF+eAKPT60/PTfSnv3Jp3icDgGIJ6QDQUnV/+syx7N78y5fm7QACQLGEdABoseMPHamOPngguwMQZe/Ln19L4JUAOfL9QcqEdJK1aDgQwFhE2fv0lh1ZHey6P/3iXAKvBMjR+WtLzhvJEtJJlgm+AOMR/enzu5/L7mjH7BL96QCURkgHADLvTzdolPQ8sHnSWUnYJ8rdSZiQTrKWPv03JwdgjHLtT3/ZajoJOrRtj9OSsNgpAlIlpJMs5e4A4xf96VNWAGEgMeMhqlMA+iGkAwC31P3pj+TXnw4pybF1pE0sBJE6IZ2k2QcXYPyiTPeFXR1HHvrw+sPPVke359c20iZCOqkT0gGAuzy/q1Md2rbXgYF1ij8v/7TnperJHYcdssTZI53UbXaGSNn564sGrwA0ZH73bLX77e/Ve5LDWiKUfqflwfTRyem6VYQ8vGtoHIkT0knaJ24MARrT60//1oWXnATWNLNlhwfqAEOk3J2kLeoZAmiU/nSgNG+ZeUTihHSSZrAHQPOiP33fpO2kAGAchHSStvTpvzlBAAmIsnf7pwMlOHv1PeeRpAnpJM1KOkAaprfsqH768LPOBpA1k93JgZBO8mLCOwDNi72fj+884kwA2Xr32pKTR/KEdJL3yWfXnSSARMxNH9OfDmRLKyU5ENJJnr4hgLToTwdypZWSHAjpJM82bABpif70uemnnBUgO7ZfIwdCOsnzxBMgPU/uOFz/AOTkE4PjyICQTvLeNTgOIElzM0/pTweycv6a+0rSJ6STvOXPrtkuAyBBU5sm623Z9KcDObBjELkQ0smC7TIA0rRv64z+dCAL71pFJxNCOlnw5BMgXfrTgRyYc0QuhHSyoH8IIG3Rnx5T3wFSZbI7uRDSyYLhcQBpi/70+d3POUtAstxPkgshnSxYSQdIX92fPnPMmQKSE6XuMYwYciCkkw196QDpO/7QkerogwecKSAp7iPJiZBONkzkBMhDbMumPx1IiftIciKkkw1PQAHyoD8dSI2hceRESCcbZ325AmRDfzqQEkPjyImQTjYMjwPIS/SnH9q211kDGhXVmIbGkRMhnaxYTQfIy/zu2Wpq86SzBjTG/SO52eyMkZOzV9+rDm3b45yxbq9cmm/1wXpg82T9ZyZKj6EJdX/6I89V37rwkuNfqLrXt+XftY9OztTftfF5Jz2qMcmNkE5WDI9jo15u+Y1jT5Qcz808JazTiAgvL+zq+PNYqHiAHj9tFxUj0eLx/K5O2w9Fcnw+yY1yd7KiXAn6Ezco377wQw+6aEwEF/3plCx6nuNB1NMfvOY8J2Tp08v1D+RESCcrcQEUMqA/8ecngvry54bn0Az96bTBm5fPtL7VKiVW0cmRkE523tVXBH2LoP6TD087gDSi158OpTvxke/ZVNgfnRwJ6WTHly0M5tSVc44gjYn+9OM7jzgBFC0eiGrRS4OVdHIkpJMdX7YwGFNuadrc9LFq36QhhpTN/Urz9KOTKyGd7MSXrb50gLxF2bv+dGCUPCghV0I6WVJCBpC36S07qp8+/KyzCIyM9i5yJaSTJU9GAfJ3dPsB/enAyFjUIVdCOlnypQtQBv3pwCjEvWIM8IMcCelkydRUgHLoTweG7dSV3zimZEtIJ1u+fAHKEP3pc9NPOZvA0FjMIWdCOtny5QtQjid3HK5/AAZV7wRku1EyJqSTrfjytfclQDnmZp7Snw4MzFR3ciekkzVT3gHKMbVpst6WTX86MAj3h+ROSCdrnpQClGXf1hn96UDflj+/Vp362P0heRPSyZovYYDy6E8H+vVL94YUQEgne1bTAcoT/ekx9R1gI9wXUgIhnexZTQcoT/Snz+9+zpkF1k2pO6UQ0sneLz0xBShS3Z8+c8zJBdZFqTulENLJ3vJn15Q2ARTq+ENHqqMPHnB6gftyP0gphHSKoLQJoFyxLZv+dOBelLpTEiGdIih5ByiX/nTgfpS6UxIhnSIoeQcoW/Snv7Cr4ywDqzrx0WkHhmII6RRDiRNA2Z7f1akObdvrLAO3Wfr0cnX+2qKDQjGEdIqh5B2gfPO7Z6upzZPONHDLm5fPOBgURUinGFHy7ksaoGx1f/oj+tOBL/yj+z8KI6RTFH3pAOU7tG2P/nSgdvbqhbrcHUoipFOU6EuPLTgAKJv+dKCyik6hhHSK8+blt5xUgBbQnw7tFgszWh0pkZBOcXxZN2dq89a2vnVaYnrLDqc6IdGf/tOHn23Ve37A92w2HvAAaeQszFAqIZ3ixBYc56/bhqMJSk/zcPTBA0N9nY9OTif3vkcVpuPXTW3l9vEhn8/cHN1+oDq+80hyr3pUfy5iv3jVA3mI2QmM1okP/5sjTJGEdIp04sPTTmwD4maZ9p2nWM18csfhof6ag4iHRaNc8T7+UDqBMN5nhLa2m5s+Vu2bTOc4xGcw/lyMyuO+a5Pnz+boGRhHyYR0ihR7phsgN35xU2LictoiPIwiUMd5T2F1L17D3MxTI/09vrfzSDIrma8//LcJvIo0xLZsbfkMxq9vNT1t/myOnoFxlExIp0ixZ/ovP7YdWxNi4nJKq6p8IVYaY9DWKMQDml/tebHR4FCHo+mnRr56FSukTb/Xqg4BzyqnXSGVz2C8hrZ8BlmdP5ujFyvoZhBRsk2bnt4bd9PuqCnO0o3L1TN/+i0ntgHR8xyB8F9//4lStAREePk/d/5l9eaf/aD6ypcnRvaCHvqjqepv/uQvquXPr1f/68bl6nd/+P1Y3nwElc6f/EX1f/3ZD8Y2FyHea3y//PGXJ6p3ry+N7b1W3T9fcS6/PbV/bL9nLnrn5dN//331/u/+pZHP4O4//j/G8nv23mt8z47zzxtr82dzfH7y0em63B0KtfiliYXOS1VVvegMU6LfPPojPWEJcCFtTgyvGmVv7L3EA5pRP6SJBxApTFwfx3uNqd6+zzbGZ5Bx8Gdz/P70f3y3rpqEQp3Z7MxSshgg93rLtudJkbK/dkolvIxDm95rTnwGoTxR5i6gUzo96RSt/iI3QA4AoAgnPrKDD+UT0ineT2zHBgCQvWifO39t0YmkeEI6xbNFBwBA/l6+NO8s0gpCOsWzTQcAQN7ifu7s1fecRVpBSKcV/vHyW040AECmrKLTJkI6rRBPXm0DBgCQH1WRtI2QTmvoTQcAyI9VdNpGSKc14glsPIkFACAPVtFpIyGdVvEkFgAgHwI6bSSk0ypW0wEA8rD8+bXqxEennS1aR0indTyRBQBI308+PF0tf3bNmaJ1hHRaJ57IxpNZAADSZBWdNhPSaZ14IhtPZgEASNMrl+atotNaQjqtZDUdACBNMT/ohAUVWkxIp5WspgMApMluPLSdkE5rWU0HAEiLfdFBSKfFrKYDAKTFKjoI6bSc1XQAgDScvXrBKjqtVwnptJ3VdACANFhFh5uEdFovLgjR/wQAQDNiFf3s1fccfVqvEtLhJk9uAQCa8/QH/+DoQ5eQDlVV9z9ZTQcAGL+YEeQ+DL4gpEPX0x+85lAAAIxRDPB9RUUj3EZIh67og4p+KAAAxiMCegzyBb4gpMMKs0snHQ4AgDGIEvcTdtmBuwjpsML5a4v25wQAGAOthrA6IR3uEJPeoz8KAIDROHXlnC3XYA1COtwhSq9+ovQKAGAkYjFkdlGLIaxFSIdVxGq6rUAAAIYvFkPcZ8HahHRYgyFyAADDdf76Yr0YAqxNSIc1nPr4nC3ZAACGaHbxDYcT7kNIh3t4+oN/cHgAAIYgdtAxLA7uT0iHe4h+qVeUZAEADKQeFrdkFR3WQ0iH+zjxkeEmAACDeOaD16rlz2xxC+shpMN9xAXl6Q9ec5gAAPoQM35i1g+wPkI6rEP0T5264uICALARUeZuxg9sjJAO61SXaX2uTAsAYL1ito+2QdgYIR3WKcreDZEDAFifKHM/8eFpRws2SEiHDYgLjb3TAQDuTZk79E9Ihw2KC46ydwCAtSlzh/4J6bBB9k4HAFibMncYjJAOfVD2DgBwN2XuMDghHfqk7B0A4Hazi28oc4cBCenQJ2XvAABfOHXlXPXm5TOOCAxISIcBKHsHALhZ5v7MB685EjAEQjoMqPP+q8reAYBW61ycq5Y/cz8EwyCkw4DiguTJMQDQVic+isrC95x/GBIhHYbg1Md6sACA9jl/fbGaXTzpzMMQCekwJLNLppkCAO2hDx1GQ0iHIYmy9+hPBwBog9hu7fy1RecahkxIhyGKC5Vt2QCA0kWbn1Y/GA0hHYbs5UvztmUDAIpV96EvveEEw4gI6TACtmUDAErU60O33RqMjpAOI1D3p1+cc2gBgKLoQ4fRE9JhRGK/UP3pAEAp9KHDeAjpMELRn37qyjmHGADImj50GB8hHUYs+rbsnw4A5EofOoyXkA4jZv90ACBnEdD1ocP4COkwBnFhe/qD1xxqACArMV/n1Mda92CchHQYE8NWAICcnL16oZ6vA4yXkA5jFKvpMXgFACBlMU9Hux40Q0iHMfv2hR8aJAcAJCsGxUVANygOmiGkw5j1BsnFBRAAIDUGxUGzhHRoQFz4ZhftNQoApMWgOGiekA4NiSFyrxjGAgAkIu5NDIqD5gnp0KC4EJr4DgA0LQbbzi6p8oMUCOnQsLggmvgOADQl5uTEYFuD4iANQjo0LC6IJr4DAE0Q0CE9QjokwMR3AKAJMcjWJHdIi5AOiYgLZDzJBgAYh9mlk2bjQIKEdEhIBPWnP3jNKQEARirC+YkPTzvIkCAhHRITF01BHQAYlbNXL7jXgIQJ6ZCg+un2R55uAwDDFTvKxBwcIF1COiRqdlGfGAAwPCa5Qx6EdEhYlKIJ6gDAoAR0yIeQDombXXqjLk0DAOhXBHRbrUEehHRIXDzxri+sgjoA0IeozBPQIR9COmRAUAcA+qF1DvIjpEMmBHUAYCNipxgBHfIjpENGBHUAYD0inMdOMUB+hHTITAT1zsVX6ymtAAB3iof5UeYO5ElIhwwtfXr55jYqgjoAsEIE9LhHAPIlpEOmYkqroA4A9NgLHcogpEPGBHUAoBLQoShCOmROUAeAdusFdHuhQxmEdChAL6ib+g4A7fPMB68J6FAQIR0KIagDQPvEFPdTH59z5qEgQjoUxD7qANAeEdBjP3SgLEI6FEZQB4DyzS6dFNChUEI6FEhQB4ByRTg/8eFpZxgKJaRDoXpB3VN2AChHXNejzB0ol5AOBYugrl8NAMogoEM7COnQAoI6AORNQIf2ENKhJeLC7uIOAPkR0KFdhHRoERd5AMjLqSvnXLuhZYR0aJkI6t+68MNq+fNrTj0AJCx2aXlGQIfWEdKhhc5efa+e/C6oA0CaIqDX1+rPXKuhbYR0aKnz1xar3W9/z17qAJAYAR3aTUiHFuvtpR79bgBA8wR0QEiHloubgM7FV23RBgANE9CBSkgHemzRBgDNEdCBHiEduMXkdwAYPwEdWElIB27Tm/xuoBwAjF7MhRHQgZWEdOAuMfndQDkAGK2oYIu5MAI6sJKQDqyqN1DulUvzDhAADFkEdLNggNUI6cA9vXxpvuq8/6o+dQAYEgEduBchHbivUx+f06cOAEMgoAP3I6QD66JPHQAGI6AD6yGkA+vW61OfXTrpoAHABpz46LSADqyLkA5s2IkPT1ff+J9/p08dANYhwvnsogfcwPoI6UBfovx999vfq85eveAAAsAaIqBHmTvAegnpQN+i/P1bF16yTRsArEJAB/ohpAMDi23avnXhh9XSp5cdTABaL9rBYvtSAR3oh5AODMXZq+/VfeqmvwPQZhHQ691QPnY9BPojpANDs3L6u6FyALRNL6DH3BaAfgnpwNDF9Pf6JuW6mxQA2iGueQI6MAxCOjAScZPyjXf/rt4XFgBKJqADwySkAyMV+8IaKgdAqXoBPVq+AIZBSAdGzlA5AEoU09ujakxAB4ZJSAfGojdULrakMVQOgNxFQI990AGGTUgHxiq2pNn99vesqgOQrdjFREAHRkVIB8bOqjoAuYpwHruYAIyKkA40xqo6ALmIh8oxCDXK3AFGSUgHGmVVHYDUxfUpJrjHIFSAURPSgST0VtWtUACQkthiLSa42wMdGBchHUhGrKpHr5991QFIQW8PdNckYJyEdCA5vX3VX7k07+QA0Ah7oANNEdKBJMVN0cuX5qtH3v7b6uzVC04SAGNz4qPTtlgDGiOkA0mLEsNvXXipvlkyWA6AUYvrzeziSccZaIyQDmQhyg5jsFysbgDAsNliDUiFkA5kI0rgY3Uj+tWVwAMwLLZYA1IipAPZiW1wlMADMAwxwT0qtWyxBqRCSAey1SuBNwUegH6cunKuXkE3wR1IiZAOZG3lFPi42QKA9YgZJ52LrwroQHKEdKAIMQU+brZi6E+ULgLAWkxwB1ImpANFiaE/33j37+obsAjuANBjgjuQAyEdKFLcgMUU+OhXN1wOgKiyMsEdyIGQDhSr169uuBxAu8W2nRHQTXAHciCkA8VbOVxOiSNAu8T3fmzbaUAckAshHWiN6FGPXnVhHaAd4js/fgByIqQDrdML69+qexMv+AAAFMaAOCBnQjrQWjE8KEoghXWAchgQB+RuszMItN3NsP5edWjb3uqFXZ3q0LY9bT8kAFmKB66d91/Vfw5kzUo6QJeVdYB8nfjotAFxQBGspAPcwco6QF5izoj+c6AUQjrAGnphfXrLjjqsP7njsEMFkJAYEGf/c6A0yt0B7sPWbQDpiQFxu9/+noAOFEdIB1inXlj/0//x3eqVS/P1Cg4A4xcPTL/x7t/pPweKJKQDbFDcFL58ab5ewYnQHuEdgPGYXTpZf/cClGrTpqf3RpOlRkuADfrdH35fvXt9sZ4oHEF9avNk3b8OwPBF9dLj//yfq/n//d8dXaBkiwbHAQxBlF7Gz77Jmer4Q0cMmQMYoug/71x8VeUS0ArK3QGGKAYY9YbM6VsHGFw8AI0J7gI60BbK3QFG4JPPr1dnr16o5v7lvyqFB+hT9J8//7/+77q9CKAllLsDjNqdpfCPP3igmto06bgDrCGqkDoX56qzV99ziIDWEdIBxqRXCj+1NFk9vv1AdXznkWrf1hmHH2CF6D+P8nbbqwFtpdwdYMx6U+F/+q//VP3yyrnqK1/+o2r6Kzuqr3x5wqkAWi2qjh7/5/+kvB1oM+XuAE26c3X9OzsOV4e27XFOgNaJ78II6QBtJ6QDJCDKOnu96zFg7vjOv6yObj9g2BxQvBiu2Xn/1fqhJQDK3QGSE5Phf7X8TnXio9P1hPgvVZVyeKBI8R337f/H9moAKyh3B0hZTDaOn145/NEHD9Qr7AC5e+XSfPXypXnnEeAOQjpABlaWw8ee66bDA7mK7dWe+eC16tTH55xDgFUI6QCZubN/PVbXn9xxWGAHkhfbq3Uuvqq8HeAevjSx0HmpqqoXHSSAvAnsQMriweLs0hv2Pwe4tzNCOkCBBHYgFVHePrv4hu3VANZHSAcoXa+H3dA5YNxsrwawYWf0pAMUbmUPe+iF9ccfPFBNbZp0+oGROHXlXD0gTnk7wMYI6QAtExOV66nKH1TVvsmZW4FdWTwwLLNLJ6sTH552PAH6IKQDtFiUoMZP7FXcK4t/bNseq+xAX6L/vHNxrjp79T0HEKBPQjoAtdvK4rur7Ie27amObv9G/VeAezl79ULdf668HWAwQjoAq+qtsvdKVqOX/dC2vXVgVxoPrPTKpfm6IgeAwQnpAKzLrV727sT4COtCO7Sb8naA4RPSAdiwKGddLbRHWO8Fd6BsytsBRkNIB2Bgt4f2myWvEdb3TU7fCu0G0UE5lLcDjI6QDsBIRPlr/PR62qe37OgOo9vbXXG32g65Ud4OMHpCOgBjsfTp5fqnVyIfIrQ/unWm/qvgDmlT3g4wHkI6AI3pTZB/8/IXr+DO4P7o5LRSeWiY8naA8RHSAUjKasE9SuWnt3y1emzbnlt/b9UdRk95+//f3v2DyH2eeQB/HZsxROCsDxxyELDM06gBHgAAFnlJREFUFQc+iDaFA9Mk6yJXGJKTiimDLVCa40IsEOmCbZwuB5ZRrOaKrM7lFNkooOIar9xMocK7DjbkYMksGCxOYE8MMmS4cMc7+441Gu2/mfn9/30+IBwivPub97chfPd53ucBKJ6QDkDlTVvl54PCYeFd5R2yob0doBxCOgC1dVR4D2m6/NoTX5+0zAvwsJgr+5tfDX0EoFhCOgCNNA3us4PqwtyU+elud+BA/KVXrJ7HKycAlENIB6BV5qfMrz1xJvzo6RcmLfM/+rsXVNpprZuf3wk/3buuvR2gZEI6AK0WA8m797Ynf8LewXT5nzyzEX789AuTqjs0XRwOd2V44+B/AwCU7rHOoPd6COE1rwIAHhYD+8++9ZIKO421++VwUj3X3g5QGdsq6QBwhBhcLu1dD2v7By3xP/v7l9xhpzGu3b012X+uvR2gWoR0ADjBbEt8HDj3y2/37GmntmJ7e6yezw9VBKAahHQAWECcGv/Djz8S1qmluPv80t47k+GJAFTT17wXAFjcQVh/fdIOHyuTUHWxtT3+zAroANUmpAPACmIL/D9+8G+T9VVQRTGUf++PvwhvftL3fgBqQEgHgBXFO+u9P/16UlWHKom/PIoB3fR2gPoQ0gEgI7GqHgOR9nfKFn8G4y+N4i+PTG8HqBchHQAyFCuW//zxG4I6pYm7z7/34S8mvzQCoH6EdADIWAzqvT/9u2OlcHE4XAzohsMB1JeQDgA5iNPfr+xvOloKEUP5Dz9+w3A4gAYQ0gEgJ9c+vTXZSw15ms5CiL8YAqD+hHQAyJHKJnmJcw96/32wVcBwOIDmENIBIEexuhkHeUGWYodGvHt+8zP7+QGaRkgHgJyZsk2W4qyDH378uuFwAA0lpANAzlQ7ycJktdoffzGZdQBAcz3h3QJAvmLFM/559slnnDRLuXb31mS9mrvnAM2nkg4ABTB5m2VMV6tdGW4K6AAtIaQDQAEMj2NRNz+/Y7UaQAtpdweAAuze33fMnEpcrfbTvetmGQC0lJAOAAX4UCWdU4ir1S7tvWNyO0CLCekAUAD3iTlOrJ7HwXAmtwMgpANAQUx45zBxXkFsb9+9r9sCACEdAAojpDMvVs/f/KTvXAD4ipAOAFAw1XMAjiKkAwAU6NrdW5O95wBwGCEdAKAA8brDpb3r9p4DcCwhHQAgZ7F6Hu+fm/IPwEmEdACAnKieA7AoIR0AIAfv3tsOV/ZvqJ4DsBAhHQAgQ6O/3Z9Mbr/52R3HCsDChHQAgIzc/PzOJKCrngOwLCEdAGBFqucAZEVIBwBYgeo5AFkS0gGgIM8++YyjbhDVcwDyIKQDQEGE9OZQPQcgL0I6AMApqZ4DkDchHQAKoIpef6rnABRBSAeAAjz75Dcdc02pngNQJCEdAOAI797bDlf2b6ieA1AYIR0ACvCDp553zDWy/9d74dLe9fD+Fx+1/SgAKJiQDgAw49rdW+FXn/RVzwEohZAOAAX4zpmzjrniVM8BqAIhHQAKsPb4GcdcYarnAFSFkA4ABfi+O+mVtPvlcDK5fff+sO1HAUBFCOkAkDM70qspVs7f/KTf9mMAoGKEdADImR3p1fL+Fx+HK/ubqucAVJKQDgA5s36tGkZ/uz+pnl/79FbbjwKAChPSASBn2t3LF6vnl/bemUxwB4AqE9IBIGfa3csTq+dxMNzNz+609QgAqBkhHQByZrJ7Od69tx2u7N+wVg2AWhHSASBHWt2LF1vaL+1dD+9/8VHbPjoADSCkA0COtLoXazIY7u4t1XMAaktIB4AcmexejN0vh5O759aqAVB3QjoA5Ei7e76sVQOgaYR0AMiRdvf83Pz8Trgy3LRWDYBGEdIBIEcmu2cvhvIr+5vWqgHQSEI6AOREq3v24lC42N5uMBwADTUU0gEgJ1rds2MwHAAtsS+kA0BOTHZfncFwALRNDOkjbx0AsqfdfTVxMFysnmttB6BNYkjf8cYBIHva3ZcTB8Nd2rse3v/iozo+PgCsRLs7AOTEZPfFxNb233x6K7z5Sb9Ojw0AmRLSASAHWt0X8/4XH4dLe+/YeQ5A242EdADIgVb307HzHAAesmNwHADkwGT3k02mtt+9ZTAcAMx4Ytzt73QGPWcCABnS7n40re0AcDTt7gCQA+3uj9LaDgAncicdAPJgsvvDtLYDwMlip/s0pMdd6evODABWp9X9Aa3tALCYaUg3PA4AMqLV/aC1/dLe9fD+Fx9V4GkAoD60uwNAxto82X30t/vhN5/eCm9+0q/A0wBArWyHmZAe2903vD8AWN13zpxt5Sm+e297Es61tgPA8qYh/S/OEACy0bY76fHeeQznWtsBYCWTa+jupANAxs59vR2V9NjafmV4Y1JBBwBWthvm2t0BgBWda0mru5VqAJAPg+MAIEPfePxMo4/TvXMAyM2keK6SDgAZOnfm2UYep3vnAJC7B3fSx93+qDPoOXIAWNFawyrpsWIew7l75wCQu2GYa3eP1fR15w4A2HcOAMUad/uPhHQT3gFgRd9/6p9qf4RxIFwcDGcoHAAUZjj9RvOV9A3vAADayVA4ACjNoSH9L94HALRPHAp3ZX8z7N4fevsAUI4jK+kAwAr2//o/IYTna3GEJrYDQGXsTx/EnXQAyFAdWsXjM8bK+c3P7lTgaQCA2aL5VyF93O1vW8MGAKuJU9Gryjo1AKisQ9vdQ/qLs94bACwntpBXjXAOANU27vYfraQnQjoArCAOX4vV9LXHz5R+jMI5ANTCQ5Nb50P6bWvYAGA1f/jsTvjJM+X936mBcABQK8eGdLtXAGBFMSCXEdJjxfw/790WzgGgXm7PPq2QDgAZi23m1+7eCj/71ku5H238XgfhfLsWk+UBgEc8lMMfm//bzqD3f84MAFaz9sSZ8F/PvxbOfT2fUS8xmN/8/I41agBQfy/GbWvTT3FYSP+z4XEAsLoY1P/jH/41/PjpFzL5etNQ/ofP74TR/1Z31RsAcHrjbv+hXD7f7h7SEnUhHQBWFIN070+/ntxP/+W3e+HZJ59Z6AvufjmcDIGLd8xVzAGgkXbmP9RhIX03hHDe+weAbMTW9Pjn3Jmz4ftPPT9pgX/2yW8+8rVjGI/r23bv74cPvxyqlgNA850qpMde+Nf8MABAtuIO9fgHACDZnT+Irx1yMo8keQAAACBzj+TvRwbHBcPjAAAAIHfzQ+PCEZX0oJoOAAAAuTo0dx8V0h/piwcAAAAys1BI3z7ivwcAAABWd/uwr3BoSB93+0I6AAAA5GehSnpwLx0AAAByMRp3+wuHdNV0AAAAyN6RRfHjQvqh/fEAAADASo7M2yrpAAAAUKwj8/Yji9NndQa9D0II614WAAAAZGPc7R+ZxY+rpAfVdAAAAMjUsTn7pJDuXjoAAABk59icrZIOAAAAxdk67jsdG9LH3f7IvnQAAADIxJH70adOqqQH1XQAAADIxIn5+jQh/ffeBQAAAKzsxHx9Ykgfd/sx6Y+8CwAAAFhJJpX0oOUdAAAAVrIz7vaHJ32B04Z0Le8AAACwvFMVv1XSAQAAIH+nKn4/dtrH6Ax6H4QQ1r04AAAAWEhcvfb0af6F01bSoxveAQAAACxs67T/wiIhXcs7AAAALO7Uc95O3e4eDlre/xxCOOuFAAAAwOmMu/1TZ+9FKulhkRI9AAAAsFiOXjSku5cOAAAAp7fQSvOFQvq4298JIZy4fB0AAACYyLWSvvA3AAAAgJbaGnf7o0U++jIhXcs7AAAAnGyhVvew6HT3KVPeAQAA4Fijcbf/9KJHtEwlPXrbuwAAAIAjLXVVfNmQ7l46AAAAHG3hVvewbLt7OGh5fy+EsOGFAAAAwEOG427/uWWOZNlKejBADgAAAA61dPf5KiE9ftOFRskDAABACyw9x23pkJ52vbmbDgAAAA/sjLv94bLnsUolPWh5BwAAgIestA1tpZA+7va344V47wMAAADCyh3nq1bSg53pAAAAMLGVroYvLYuQvuldAAAAwOpF7JVDevotgaAOAABAm8WBcTurfv4sKunBADkAAABaLpOr4I9ldYadQe+DEMJ6Vl8PAAAAamI07vafzuJRs6qkBwPkAAAAaKnM8nBmIX3c7W+mcfMAAADQJpnNacuykh5U0wEAAGiZzXG3P8zqI2cd0k15BwAAoE0yHaSeaUhPvz0Q1AEAAGiD7XG3v53l58y6kh69kcPXBAAAgKrJ/Mp3ZivYZnUGvfdCCBt5fG0AAACogOG4238u68fIo5IeVNMBAABouFxyby6V9KCaDgAAQHPlUkUPOVbSg2o6AAAADZVb3s0tpKcJd5lOuQMAAICSjUIIW3k9Qp6V9KCaDgAAQMO8Pe72R3l9pFxDumo6AAAADRLD+dU8P07elfSgmg4AAEBD5FpFD0WEdNV0AAAAGiD3KnooqJIeVNMBAACouct5V9FDnnvS59mbDgAAQE3lthd9XlGV9KCaDgAAQE0VlmcLq6SHg2r670II54v8ngAAALCCwqrooeBKenS54O8HAAAAq7hY5OkVGtLH3f4whLBZ5PcEAACAJW2njWWFKbqSHlI1PfeJeAAAALCiwrvBCw/paWT920V/XwAAAFjA5rjb3yn6wMqopIe0AH5Y0vcGAACA44zK2lBWSkhP1XRD5AAAAKiit9NMtcIVuoJtXmfQey+EsOFHEgAAgIoodOXavLLa3adU0wEAAKiSUnNqqSE9XcK/WuYzAAAAQBJXrm2VeRhlV9JDuoxvJRsAAABlu1j2A5Qe0tMQudIPAgAAgFZ7o6xhcbNKHRw3yxA5AAAASlLqsLhZVWh3n1JNBwAAoAyVyaOVCempraCUZfEAAAC01ua429+uyoevUiU9BvXXQwg7FXgUAAAAmm9UtdXglQrpibZ3AAAAinAxDTOvjMqF9LQ7Xds7AAAAedoqeyf6YapYSY+uxul6FXgOAAAAmqeyq8ArGdJTu8GFCjwKAAAAzVO5NvepqlbStb0DAACQh0q2uU9VNqQH094BAADIVmXb3KcqHdIT094BAADIQmXb3KcqH9JT23ul9tYBAABQO1er3OY+VYdKegzqcdr7dgUeBQAAgPqpzcyzWoT05EK6PwAAAACLqHyb+1RtQno6UPfTAQAAWMTldI26FupUSQ/p/sDVCjwKAAAA1beVrk/XRq1CejgI6petZQMAAOAEwzp2Y9cupCfupwMAAHCcC3W5hz6rliF93O3X8jciAAAAFKJW99Bn1bWS7n46AAAAh6ndPfRZtQ3p4cH9dPvTAQAACGl+Wa27rmsd0pMLaSAAAAAA7TWq0z70o9Q+pKcXYJAcAABAu12s6z30WU2opIf0Ii5X4FEAAAAo3htpblntPdakH57OoPdWCOHVCjwKAAAAxYiD4i405awbUUmfMkgOAACgVWo/KG5eo0J6ciG9KAAAAJprMp+s7oPi5jWq3X2qM+idDSF8EEJYq8YTAQAAkLHvNmFQ3LwmVtJj23tcyfZiBR4FAACA7DVikvthGhnSw4OJ7426mwAAAEC4PO72N5t6DI0N6eEgqG9azQYAANAYm+Nu/2qTX2cj76TP6wx6vw0hvFKtpwIAAGABjVq1dpRGV9Knxt1+bHtvbDsEAABAw7XmOnMrKulTnUEvTnxfr8bTAAAAcAoxoL/YtFVrR2lFJX3Gi3aoAwAA1MaoTQE9tC2kpxcrqAMAAFRf6wJ6aFu7+1Rn0FsLIcTW97PVeCIAAABmTAN66wqsbWt3n0i/ibmQXjwAAADV0dqAHtpaSZ/qDHpxiNx7IYS1ajwRAABAq7U6oIe2h/QgqAMAAFRJDOjbbX4jrWx3n5V+Q/Oi1ncAAIBSXWx7QA8q6Q+oqAMAAJQmBvRNxy+kP0RQBwAAKNQoBfQtx35ASJ8jqAMAABSi9UPiDiOkH0JQBwAAyJWAfoTWD447zMwwOT8wAAAA2RLQj6GSfozOoLeWKurrlX1IAACA+hDQT6CSfoxxtz9SUQcAAMjEjoB+MpX0U0gV9d+GEM5X/mEBAACqZxrQR97N8YT0BXQGvRjUX6nNAwMAAJRPQF+AkL6gzqD3Vgjh1Vo9NAAAQDk2x93+RWd/ekL6EjqD3iup/R0AAIDDXR13+5edzWKE9CV1Br3zKajbpQ4AAPCwi+Nuf9OZLE5IX0Fn0FtPK9oEdQAAgIMVaxfG3f62s1iOkL4iu9QBAAAmhimgW7G2AnvSVzSzS10rBwAA0FYxmH9XQF+dSnqGOoPe6yGE1xrzgQAAAE5mgnuGhPSMGSgHAAC0iAFxGRPSc5AGyv3WPXUAAKChJtd+tbdnz530HKQfVPfUAQCAJoqT258T0POhkp6zzqD3agjhrUZ/SAAAoC2ujrv9y952foT0AqT299+FEM42/sMCAABNNEr3z7e83XwJ6QVJ+9TjPfXzrfjAAABAU+yk/edDbzR/QnrBtL8DAAA1or29YEJ6CbS/AwAAFae9vSSmu5cgTUH8runvAABABU2ntwvoJVBJL1ln0Duf7qqvtfogAACAssXq+Rvjbv+qN1EeIb0CDJUDAABKtpPa2+0+L5mQXiFpqNxrquoAAECBYvX8dQdeDUJ6xXQGvbOpqr7R9rMAAABypXpeQUJ6RamqAwAAOVI9ryghvcLcVQcAADIWJ7dfVj2vLiG9BtIE+LfsVQcAAJZkcntNCOk1karqsf391bafBQAAsJCtdPd85NiqT0ivmc6gt56q6gbLAQAAxxmmcL7tlOpDSK+pzqD3SgrrBssBAACzYsX8bYPh6klIrzEt8AAAwJytNBhu6GDqSUhvALvVAQCg9XZSONfaXnNCeoN0Br2NFNZNgQcAgHYYpqntm953MwjpDeS+OgAANN7k3nkI4aqp7c0ipDdUuq8e76r/XFgHAIBGuZqq58J5AwnpDTcT1l9r+1kAAEDNbaZwbihcgwnpLZGGy8Wg/krbzwIAAGpGOG8RIb1lhHUAAKgN4byFhPSWEtYBAKCyhPMWE9JbzoA5AACoDOEcIZ0DwjoAAJRiukptUzgnCOkcJu1Zj63wZx0QAADkYjgTzq1S4ytCOkfqDHobqbJ+3ikBAEAmtkMIN8bd/qbj5DBCOidKQ+Z+nobMaYUHAIDFxVD+9rjb33F2HEdI59TSvfXzKbCvOzkAADiWlnYWJqSzlM6gtz7TCq+6DgAAD2ymlvZtZ8KihHRWMlNdfzmEsOE0AQBoqdjGfkPVnFUJ6WQm3V1/JQV2k+EBAGi62M6+larm7pqTCSGdXKR2+JdTlV1gBwCgKUYpmP9+3O1veatkTUgnd2mV28vurwMAUFOCOYUR0imUCjsAADUhmFMKIZ3SpMAew/q/WOkGAEAFuGNO6YR0KiENndtIgX1DWzwAAAWJofx2/Oe42x86dMompFNJM1X2H1jtBgBAhmKFfDu1sdtjTuUI6dRCGj63IbQDALCgaSiP1fJtO8ypOiGdWpoJ7ee0xwMAkIxSKL+dgvmOUE7dCOk0QrrTvp4q7euq7QAArbCdQvluCuSGvVF7QjqNNRPcp+H9rLVvAAC1NEx/bqd/CuQ0lpBO66RW+WlgP5da5VXeAQDKt5Na1m/PBHMt67SKkA5JZ9BbS1X36T+/MbO/XYgHAFjdNITH8L0/E8SH1p/BASEdFpBa6Kct8+szA+tmA3045O8BAJpmfn3ZNHiHmQFuk/+sNR1OKYTw/2z0Q8ooseh4AAAAAElFTkSuQmCC;" vertex="1" parent="1">
          <mxGeometry x="160" y="399.53999999999996" width="40.5" height="40.46" as="geometry" />
        </mxCell>
        <mxCell id="qY5O7VFriRonlo1umFiI-3" value="" style="sketch=0;points=[[0,0,0],[0.25,0,0],[0.5,0,0],[0.75,0,0],[1,0,0],[0,1,0],[0.25,1,0],[0.5,1,0],[0.75,1,0],[1,1,0],[0,0.25,0],[0,0.5,0],[0,0.75,0],[1,0.25,0],[1,0.5,0],[1,0.75,0]];outlineConnect=0;fontColor=#232F3E;fillColor=#E7157B;strokeColor=#ffffff;dashed=0;verticalLabelPosition=bottom;verticalAlign=top;align=center;html=1;fontSize=12;fontStyle=0;aspect=fixed;shape=mxgraph.aws4.resourceIcon;resIcon=mxgraph.aws4.api_gateway;" vertex="1" parent="1">
          <mxGeometry x="360" y="200" width="40" height="40" as="geometry" />
        </mxCell>
        <mxCell id="qY5O7VFriRonlo1umFiI-4" value="" style="sketch=0;points=[[0,0,0],[0.25,0,0],[0.5,0,0],[0.75,0,0],[1,0,0],[0,1,0],[0.25,1,0],[0.5,1,0],[0.75,1,0],[1,1,0],[0,0.25,0],[0,0.5,0],[0,0.75,0],[1,0.25,0],[1,0.5,0],[1,0.75,0]];outlineConnect=0;fontColor=#232F3E;fillColor=#ED7100;strokeColor=#ffffff;dashed=0;verticalLabelPosition=bottom;verticalAlign=top;align=center;html=1;fontSize=12;fontStyle=0;aspect=fixed;shape=mxgraph.aws4.resourceIcon;resIcon=mxgraph.aws4.lambda;" vertex="1" parent="1">
          <mxGeometry x="480" y="200" width="40" height="40" as="geometry" />
        </mxCell>
        <mxCell id="qY5O7VFriRonlo1umFiI-5" value="AWS Step Functions workflow" style="points=[[0,0],[0.25,0],[0.5,0],[0.75,0],[1,0],[1,0.25],[1,0.5],[1,0.75],[1,1],[0.75,1],[0.5,1],[0.25,1],[0,1],[0,0.75],[0,0.5],[0,0.25]];outlineConnect=0;gradientColor=none;html=1;whiteSpace=wrap;fontSize=12;fontStyle=0;container=1;pointerEvents=0;collapsible=0;recursiveResize=0;shape=mxgraph.aws4.group;grIcon=mxgraph.aws4.group_aws_step_functions_workflow;strokeColor=#CD2264;fillColor=none;verticalAlign=top;align=left;spacingLeft=30;fontColor=#CD2264;dashed=0;" vertex="1" parent="1">
          <mxGeometry x="600" y="200" width="402" height="600" as="geometry" />
        </mxCell>
        <mxCell id="qY5O7VFriRonlo1umFiI-7" value="" style="shape=image;verticalLabelPosition=bottom;labelBackgroundColor=default;verticalAlign=top;aspect=fixed;imageAspect=0;editableCssRules=.*;image=data:image/svg+xml,PHN2ZyB4bWxucz0iaHR0cDovL3d3dy53My5vcmcvMjAwMC9zdmciIGhlaWdodD0iNzkzLjUiIHdpZHRoPSI1NDEuNSIgYXJpYS1sYWJlbGxlZGJ5PSJwb2x5bWF0aC1ncmFwaC10aXRsZSIgcm9sZT0iaW1nIiBkYXRhLXRlc3RpZD0iZ3JhcGgiIGNsYXNzPSJzYy1kV1pxcUogZm1sUkx5IGdyYXBoIiB2aWV3Qm94PSIxMS4yNSAxMS4yNSA1NDEuNSA3OTMuNSI+JiN4YTs8dGl0bGUgaWQ9InBvbHltYXRoLWdyYXBoLXRpdGxlIj5Xb3JrZmxvdyBTdHVkaW8g44K544OG44O844OI44Oe44K344Oz44Kw44Op44OVPC90aXRsZT4mI3hhOzxnIGNsYXNzPSJuZXctbG9vay1ncmFwaCIgdHJhbnNmb3JtPSJ0cmFuc2xhdGUoMTIsMTIpIj4mI3hhOzxnIGNsYXNzPSJub2RlcyI+JiN4YTs8ZyB0cmFuc2Zvcm09InRyYW5zbGF0ZSgyNzAsMjIpIiBjbGFzcz0ibm9kZS1jb250YWluZXIiPiYjeGE7PGc+JiN4YTs8Y2lyY2xlIHI9IjIyIiBjbGFzcz0ic2MtZ3VKQmRoIGdNWmhmcCBzaGFwZSIvPiYjeGE7PHRleHQgY2xhc3M9InNjLWpHS3hJSyBmbkR1bnEgbGFiZWwiPiYjeGE7PHRzcGFuIGFsaWdubWVudC1iYXNlbGluZT0iY2VudHJhbCIgdGV4dC1hbmNob3I9Im1pZGRsZSIgeG1sOnNwYWNlPSJwcmVzZXJ2ZSI+U3RhcnQ8L3RzcGFuPiYjeGE7PC90ZXh0PiYjeGE7PC9nPiYjeGE7PC9nPiYjeGE7PGcgdHJhbnNmb3JtPSJ0cmFuc2xhdGUoMjcwLDEwMy41KSIgY2xhc3M9Im5vZGUtY29udGFpbmVyIj4mI3hhOzxnIGRhdGEtc3RhdGUtdHlwZT0iUGFzcyIgZGF0YS1zdGF0ZS1pZD0iQXNzaWduUmVxdWVzdCIgZGF0YS10ZXN0aWQ9ImdyYXBoLUFzc2lnblJlcXVlc3QiIGNsYXNzPSJzYy1OeHNwZiBmQ0xEaiBub2RlIHN0YXRlIFBhc3MiPiYjeGE7PGcgY2xhc3M9Im5ldy1sb29rLXN0YXRlLW5vZGUiPiYjeGE7PHJlY3Qgcnk9IjMiIHJ4PSIzIiBoZWlnaHQ9IjQ5IiB3aWR0aD0iMjQwIiB5PSItMjQuNSIgeD0iLTEyMCIvPiYjeGE7PGcgdHJhbnNmb3JtPSJ0cmFuc2xhdGUoLTEyMCwtMjQuNSkiIGNsYXNzPSJoYW5kbGUiPiYjeGE7PHBhdGggZD0iTTUsMTYgTDUsMzQgTTgsMTYgTDgsMzQiLz4mI3hhOzwvZz4mI3hhOzxnIHRyYW5zZm9ybT0idHJhbnNsYXRlKC0xMDQsLTI0KSIgY2xhc3M9Imljb24iPiYjeGE7PHJlY3QgaGVpZ2h0PSI0OCIgd2lkdGg9IjQ4IiB5PSIwLjAxODEyOTE5NjciIHg9IjAuMDM2MTAyNjEwOCIgZmlsbD0idmFyKC0tY29sb3ItYmFja2dyb3VuZC1jb250YWluZXItaGVhZGVyLTdzMnRiYSwgI2ZhZmFmYSkiLz4mI3hhOzxsaW5lIHN0cm9rZS1saW5lY2FwPSJzcXVhcmUiIHN0cm9rZT0idmFyKC0tY29sb3ItYm9hcmQtcGxhY2Vob2xkZXItYWN0aXZlLXlqaTQwOCwgI2Q1ZGJkYikiIHkyPSI0Ny41IiB4Mj0iNDcuNSIgeTE9IjAuNDkxMjI4MDciIHgxPSI0Ny41Ii8+JiN4YTs8bGluZSBzdHJva2UtbGluZWNhcD0ic3F1YXJlIiBzdHJva2U9InZhcigtLWNvbG9yLWJvYXJkLXBsYWNlaG9sZGVyLWFjdGl2ZS15amk0MDgsICNkNWRiZGIpIiB5Mj0iNDcuNSIgeDI9IjAuNSIgeTE9IjAuNDkxMjI4MDciIHgxPSIwLjUiLz4mI3hhOzx1c2UgaHJlZj0iI2ljb24tZmxvdy1wYXNzIi8+JiN4YTs8L2c+JiN4YTs8ZyB0cmFuc2Zvcm09InRyYW5zbGF0ZSgtNDgsLTI0LjUpIiBjbGFzcz0idGV4dC1saW5lcyI+JiN4YTs8dGV4dCBjbGFzcz0ibGluZTEiIHRyYW5zZm9ybT0idHJhbnNsYXRlKDAsMTcpIj4mI3hhOzx0c3BhbiB0ZXh0LWFuY2hvcj0ic3RhcnQiIHhtbDpzcGFjZT0icHJlc2VydmUiPlBhc3Mgc3RhdGU8L3RzcGFuPiYjeGE7PC90ZXh0PiYjeGE7PHRleHQgY2xhc3M9ImxpbmUyIGxhYmVsIiB0cmFuc2Zvcm09InRyYW5zbGF0ZSgwLDM1LjUpIj4mI3hhOzx0c3BhbiB0ZXh0LWFuY2hvcj0ic3RhcnQiIHhtbDpzcGFjZT0icHJlc2VydmUiPkFzc2lnblJlcXVlc3Q8L3RzcGFuPiYjeGE7PC90ZXh0PiYjeGE7PC9nPiYjeGE7PC9nPiYjeGE7PC9nPiYjeGE7PC9nPiYjeGE7PGcgdHJhbnNmb3JtPSJ0cmFuc2xhdGUoMjcwLDE4Ny41KSIgY2xhc3M9Im5vZGUtY29udGFpbmVyIj4mI3hhOzxnIGRhdGEtc3RhdGUtdHlwZT0iVGFzayIgZGF0YS1zdGF0ZS1pZD0iR2V0U2Vzc2lvbiIgZGF0YS10ZXN0aWQ9ImdyYXBoLUdldFNlc3Npb24iIGNsYXNzPSJzYy1OeHNwZiBmQ0xEaiBub2RlIHN0YXRlIFRhc2siPiYjeGE7PGcgY2xhc3M9Im5ldy1sb29rLXN0YXRlLW5vZGUiPiYjeGE7PHJlY3Qgcnk9IjMiIHJ4PSIzIiBoZWlnaHQ9IjQ5IiB3aWR0aD0iMjQwIiB5PSItMjQuNSIgeD0iLTEyMCIvPiYjeGE7PGcgdHJhbnNmb3JtPSJ0cmFuc2xhdGUoLTEyMCwtMjQuNSkiIGNsYXNzPSJoYW5kbGUiPiYjeGE7PHBhdGggZD0iTTUsMTYgTDUsMzQgTTgsMTYgTDgsMzQiLz4mI3hhOzwvZz4mI3hhOzxnIHRyYW5zZm9ybT0idHJhbnNsYXRlKC0xMDQsLTI0KSIgY2xhc3M9Imljb24iPiYjeGE7PHJlY3QgaGVpZ2h0PSI0OCIgd2lkdGg9IjQ4IiB5PSIwLjAxODEyOTE5NjciIHg9IjAuMDM2MTAyNjEwOCIgZmlsbD0idmFyKC0tY29sb3ItYmFja2dyb3VuZC1jb250YWluZXItaGVhZGVyLTdzMnRiYSwgI2ZhZmFmYSkiLz4mI3hhOzxsaW5lIHN0cm9rZS1saW5lY2FwPSJzcXVhcmUiIHN0cm9rZT0idmFyKC0tY29sb3ItYm9hcmQtcGxhY2Vob2xkZXItYWN0aXZlLXlqaTQwOCwgI2Q1ZGJkYikiIHkyPSI0Ny41IiB4Mj0iNDcuNSIgeTE9IjAuNDkxMjI4MDciIHgxPSI0Ny41Ii8+JiN4YTs8bGluZSBzdHJva2UtbGluZWNhcD0ic3F1YXJlIiBzdHJva2U9InZhcigtLWNvbG9yLWJvYXJkLXBsYWNlaG9sZGVyLWFjdGl2ZS15amk0MDgsICNkNWRiZGIpIiB5Mj0iNDcuNSIgeDI9IjAuNSIgeTE9IjAuNDkxMjI4MDciIHgxPSIwLjUiLz4mI3hhOzx1c2UgYXJpYS1oaWRkZW49InRydWUiIGhyZWY9IiNpY29uLXNlcnZpY2UtZGRiIj4mI3hhOzx0aXRsZT5EeW5hbW9EQjwvdGl0bGU+JiN4YTs8L3VzZT4mI3hhOzwvZz4mI3hhOzxnIHRyYW5zZm9ybT0idHJhbnNsYXRlKC00OCwtMjQuNSkiIGNsYXNzPSJ0ZXh0LWxpbmVzIj4mI3hhOzx0ZXh0IGNsYXNzPSJsaW5lMSIgdHJhbnNmb3JtPSJ0cmFuc2xhdGUoMCwxNykiPiYjeGE7PHRzcGFuIHRleHQtYW5jaG9yPSJzdGFydCIgeG1sOnNwYWNlPSJwcmVzZXJ2ZSI+RHluYW1vREI6IEdldEl0ZW08L3RzcGFuPiYjeGE7PC90ZXh0PiYjeGE7PHRleHQgY2xhc3M9ImxpbmUyIGxhYmVsIiB0cmFuc2Zvcm09InRyYW5zbGF0ZSgwLDM1LjUpIj4mI3hhOzx0c3BhbiB0ZXh0LWFuY2hvcj0ic3RhcnQiIHhtbDpzcGFjZT0icHJlc2VydmUiPkdldFNlc3Npb248L3RzcGFuPiYjeGE7PC90ZXh0PiYjeGE7PC9nPiYjeGE7PC9nPiYjeGE7PC9nPiYjeGE7PC9nPiYjeGE7PGcgdHJhbnNmb3JtPSJ0cmFuc2xhdGUoMjcwLDI3MS41KSIgY2xhc3M9Im5vZGUtY29udGFpbmVyIj4mI3hhOzxnIGRhdGEtc3RhdGUtdHlwZT0iUGFzcyIgZGF0YS1zdGF0ZS1pZD0iUHJlcGFyZUtub3dsZWRnZUJhc2VQYXJhbWV0ZXIiIGRhdGEtdGVzdGlkPSJncmFwaC1QcmVwYXJlS25vd2xlZGdlQmFzZVBhcmFtZXRlciIgY2xhc3M9InNjLU54c3BmIGZDTERqIG5vZGUgc3RhdGUgUGFzcyI+JiN4YTs8ZyBjbGFzcz0ibmV3LWxvb2stc3RhdGUtbm9kZSI+JiN4YTs8cmVjdCByeT0iMyIgcng9IjMiIGhlaWdodD0iNDkiIHdpZHRoPSIyOTciIHk9Ii0yNC41IiB4PSItMTQ4LjUiLz4mI3hhOzxnIHRyYW5zZm9ybT0idHJhbnNsYXRlKC0xNDguNSwtMjQuNSkiIGNsYXNzPSJoYW5kbGUiPiYjeGE7PHBhdGggZD0iTTUsMTYgTDUsMzQgTTgsMTYgTDgsMzQiLz4mI3hhOzwvZz4mI3hhOzxnIHRyYW5zZm9ybT0idHJhbnNsYXRlKC0xMzIuNSwtMjQpIiBjbGFzcz0iaWNvbiI+JiN4YTs8cmVjdCBoZWlnaHQ9IjQ4IiB3aWR0aD0iNDgiIHk9IjAuMDE4MTI5MTk2NyIgeD0iMC4wMzYxMDI2MTA4IiBmaWxsPSJ2YXIoLS1jb2xvci1iYWNrZ3JvdW5kLWNvbnRhaW5lci1oZWFkZXItN3MydGJhLCAjZmFmYWZhKSIvPiYjeGE7PGxpbmUgc3Ryb2tlLWxpbmVjYXA9InNxdWFyZSIgc3Ryb2tlPSJ2YXIoLS1jb2xvci1ib2FyZC1wbGFjZWhvbGRlci1hY3RpdmUteWppNDA4LCAjZDVkYmRiKSIgeTI9IjQ3LjUiIHgyPSI0Ny41IiB5MT0iMC40OTEyMjgwNyIgeDE9IjQ3LjUiLz4mI3hhOzxsaW5lIHN0cm9rZS1saW5lY2FwPSJzcXVhcmUiIHN0cm9rZT0idmFyKC0tY29sb3ItYm9hcmQtcGxhY2Vob2xkZXItYWN0aXZlLXlqaTQwOCwgI2Q1ZGJkYikiIHkyPSI0Ny41IiB4Mj0iMC41IiB5MT0iMC40OTEyMjgwNyIgeDE9IjAuNSIvPiYjeGE7PHVzZSBocmVmPSIjaWNvbi1mbG93LXBhc3MiLz4mI3hhOzwvZz4mI3hhOzxnIHRyYW5zZm9ybT0idHJhbnNsYXRlKC03Ni41LC0yNC41KSIgY2xhc3M9InRleHQtbGluZXMiPiYjeGE7PHRleHQgY2xhc3M9ImxpbmUxIiB0cmFuc2Zvcm09InRyYW5zbGF0ZSgwLDE3KSI+JiN4YTs8dHNwYW4gdGV4dC1hbmNob3I9InN0YXJ0IiB4bWw6c3BhY2U9InByZXNlcnZlIj5QYXNzIHN0YXRlPC90c3Bhbj4mI3hhOzwvdGV4dD4mI3hhOzx0ZXh0IGNsYXNzPSJsaW5lMiBsYWJlbCIgdHJhbnNmb3JtPSJ0cmFuc2xhdGUoMCwzNS41KSI+JiN4YTs8dHNwYW4gdGV4dC1hbmNob3I9InN0YXJ0IiB4bWw6c3BhY2U9InByZXNlcnZlIj5QcmVwYXJlS25vd2xlZGdlQmFzZVBhcmFtZXRlcjwvdHNwYW4+JiN4YTs8L3RleHQ+JiN4YTs8L2c+JiN4YTs8L2c+JiN4YTs8L2c+JiN4YTs8L2c+JiN4YTs8ZyB0cmFuc2Zvcm09InRyYW5zbGF0ZSgyNzAsMzU1LjUpIiBjbGFzcz0ibm9kZS1jb250YWluZXIiPiYjeGE7PGcgZGF0YS1zdGF0ZS10eXBlPSJUYXNrIiBkYXRhLXN0YXRlLWlkPSJSZXRyaWV2ZUFuZEdlbmVyYXRlIiBkYXRhLXRlc3RpZD0iZ3JhcGgtUmV0cmlldmVBbmRHZW5lcmF0ZSIgY2xhc3M9InNjLU54c3BmIGZDTERqIG5vZGUgc3RhdGUgVGFzayI+JiN4YTs8ZyBjbGFzcz0ibmV3LWxvb2stc3RhdGUtbm9kZSI+JiN4YTs8cmVjdCByeT0iMyIgcng9IjMiIGhlaWdodD0iNDkiIHdpZHRoPSIzMzgiIHk9Ii0yNC41IiB4PSItMTY5Ii8+JiN4YTs8ZyB0cmFuc2Zvcm09InRyYW5zbGF0ZSgtMTY5LC0yNC41KSIgY2xhc3M9ImhhbmRsZSI+JiN4YTs8cGF0aCBkPSJNNSwxNiBMNSwzNCBNOCwxNiBMOCwzNCIvPiYjeGE7PC9nPiYjeGE7PGcgdHJhbnNmb3JtPSJ0cmFuc2xhdGUoLTE1MywtMjQpIiBjbGFzcz0iaWNvbiI+JiN4YTs8cmVjdCBoZWlnaHQ9IjQ4IiB3aWR0aD0iNDgiIHk9IjAuMDE4MTI5MTk2NyIgeD0iMC4wMzYxMDI2MTA4IiBmaWxsPSJ2YXIoLS1jb2xvci1iYWNrZ3JvdW5kLWNvbnRhaW5lci1oZWFkZXItN3MydGJhLCAjZmFmYWZhKSIvPiYjeGE7PGxpbmUgc3Ryb2tlLWxpbmVjYXA9InNxdWFyZSIgc3Ryb2tlPSJ2YXIoLS1jb2xvci1ib2FyZC1wbGFjZWhvbGRlci1hY3RpdmUteWppNDA4LCAjZDVkYmRiKSIgeTI9IjQ3LjUiIHgyPSI0Ny41IiB5MT0iMC40OTEyMjgwNyIgeDE9IjQ3LjUiLz4mI3hhOzxsaW5lIHN0cm9rZS1saW5lY2FwPSJzcXVhcmUiIHN0cm9rZT0idmFyKC0tY29sb3ItYm9hcmQtcGxhY2Vob2xkZXItYWN0aXZlLXlqaTQwOCwgI2Q1ZGJkYikiIHkyPSI0Ny41IiB4Mj0iMC41IiB5MT0iMC40OTEyMjgwNyIgeDE9IjAuNSIvPiYjeGE7PHVzZSBhcmlhLWhpZGRlbj0idHJ1ZSIgaHJlZj0iI2ljb24tc2VydmljZS1hbWF6b25iZWRyb2NrIj4mI3hhOzx0aXRsZT5BbWF6b24gQmVkcm9jazwvdGl0bGU+JiN4YTs8L3VzZT4mI3hhOzwvZz4mI3hhOzxnIHRyYW5zZm9ybT0idHJhbnNsYXRlKC05NywtMjQuNSkiIGNsYXNzPSJ0ZXh0LWxpbmVzIj4mI3hhOzx0ZXh0IGNsYXNzPSJsaW5lMSIgdHJhbnNmb3JtPSJ0cmFuc2xhdGUoMCwxNykiPiYjeGE7PHRzcGFuIHRleHQtYW5jaG9yPSJzdGFydCIgeG1sOnNwYWNlPSJwcmVzZXJ2ZSI+QmVkcm9jayBSdW50aW1lIEFnZW50czogUmV0cmlldmVBbmRHZW5lcmF0ZTwvdHNwYW4+JiN4YTs8L3RleHQ+JiN4YTs8dGV4dCBjbGFzcz0ibGluZTIgbGFiZWwiIHRyYW5zZm9ybT0idHJhbnNsYXRlKDAsMzUuNSkiPiYjeGE7PHRzcGFuIHRleHQtYW5jaG9yPSJzdGFydCIgeG1sOnNwYWNlPSJwcmVzZXJ2ZSI+UmV0cmlldmVBbmRHZW5lcmF0ZTwvdHNwYW4+JiN4YTs8L3RleHQ+JiN4YTs8L2c+JiN4YTs8L2c+JiN4YTs8L2c+JiN4YTs8L2c+JiN4YTs8ZyB0cmFuc2Zvcm09InRyYW5zbGF0ZSgyNzAsNTIyKSIgY2xhc3M9Im5vZGUtY29udGFpbmVyIj4mI3hhOzxnIGRhdGEtc3RhdGUtdHlwZT0iUGFyYWxsZWwiIGRhdGEtc3RhdGUtaWQ9IlBhcmFsbGVsIiBkYXRhLXRlc3RpZD0iZ3JhcGgtUGFyYWxsZWwiIGNsYXNzPSJzYy1OeHNwZiBmQ0xEaiBub2RlIHN0YXRlIGNvbnRhaW5lciBQYXJhbGxlbCI+JiN4YTs8ZyBjbGFzcz0ibmV3LWxvb2stc3RhdGUtbm9kZSI+JiN4YTs8ZyB0cmFuc2Zvcm09InRyYW5zbGF0ZSgwLDUpIiBjbGFzcz0iYm91bmRpbmctYm94Ij4mI3hhOzxyZWN0IGhlaWdodD0iMjA5IiB3aWR0aD0iNTQwIiB5PSItMTA3IiB4PSItMjcwIiByeT0iNyIgcng9IjciIGNsYXNzPSJzYy1mVEZqVE0gZ3lNdmNFIHNoYXBlIi8+JiN4YTs8ZyB0cmFuc2Zvcm09InRyYW5zbGF0ZSgtMjcwLC0xMDcpIiBjbGFzcz0iY29udGVudCI+JiN4YTs8ZyB0cmFuc2Zvcm09InRyYW5zbGF0ZSgyMCw4OSkiIGNsYXNzPSJicmFuY2giPiYjeGE7PGcgaGVpZ2h0PSIxMDAiIHdpZHRoPSIyMCIgeT0iMCIgeD0iLTIwIiBpZD0iUGFyYWxsZWw6MCIgZGF0YS1wYXJlbnQtc3RhdGUtaWQ9IlBhcmFsbGVsIiBkYXRhLWluc2VydGlvbi1pbmRleD0iMCIgY2xhc3M9ImJyYW5jaEluc2VydEFyZWEiPiYjeGE7PHJlY3QgZmlsbD0ibm9uZSIgc3Ryb2tlPSJub25lIiBoZWlnaHQ9IjEwMCIgd2lkdGg9IjIwIiB5PSIwIiB4PSItMjAiLz4mI3hhOzxwYXRoIGZpbGw9Im5vbmUiIHN0cm9rZT0ibm9uZSIgZD0iTS0xMCwwIGwwLDEwMCIvPiYjeGE7PC9nPiYjeGE7PGcgdHJhbnNmb3JtPSIiPiYjeGE7PGcgY2xhc3M9Im5vZGVzIj4mI3hhOzxnIHRyYW5zZm9ybT0idHJhbnNsYXRlKDEyMCwyNC41KSIgY2xhc3M9Im5vZGUtY29udGFpbmVyIj4mI3hhOzxnIGRhdGEtc3RhdGUtdHlwZT0iVGFzayIgZGF0YS1zdGF0ZS1pZD0iU2VuZFJlc3BvbnNlIiBkYXRhLXRlc3RpZD0iZ3JhcGgtU2VuZFJlc3BvbnNlIiBjbGFzcz0ic2MtTnhzcGYgZkNMRGogbm9kZSBzdGF0ZSBUYXNrIj4mI3hhOzxnIGNsYXNzPSJuZXctbG9vay1zdGF0ZS1ub2RlIj4mI3hhOzxyZWN0IHJ5PSIzIiByeD0iMyIgaGVpZ2h0PSI0OSIgd2lkdGg9IjI0MCIgeT0iLTI0LjUiIHg9Ii0xMjAiLz4mI3hhOzxnIHRyYW5zZm9ybT0idHJhbnNsYXRlKC0xMjAsLTI0LjUpIiBjbGFzcz0iaGFuZGxlIj4mI3hhOzxwYXRoIGQ9Ik01LDE2IEw1LDM0IE04LDE2IEw4LDM0Ii8+JiN4YTs8L2c+JiN4YTs8ZyB0cmFuc2Zvcm09InRyYW5zbGF0ZSgtMTA0LC0yNCkiIGNsYXNzPSJpY29uIj4mI3hhOzxyZWN0IGhlaWdodD0iNDgiIHdpZHRoPSI0OCIgeT0iMC4wMTgxMjkxOTY3IiB4PSIwLjAzNjEwMjYxMDgiIGZpbGw9InZhcigtLWNvbG9yLWJhY2tncm91bmQtY29udGFpbmVyLWhlYWRlci03czJ0YmEsICNmYWZhZmEpIi8+JiN4YTs8bGluZSBzdHJva2UtbGluZWNhcD0ic3F1YXJlIiBzdHJva2U9InZhcigtLWNvbG9yLWJvYXJkLXBsYWNlaG9sZGVyLWFjdGl2ZS15amk0MDgsICNkNWRiZGIpIiB5Mj0iNDcuNSIgeDI9IjQ3LjUiIHkxPSIwLjQ5MTIyODA3IiB4MT0iNDcuNSIvPiYjeGE7PGxpbmUgc3Ryb2tlLWxpbmVjYXA9InNxdWFyZSIgc3Ryb2tlPSJ2YXIoLS1jb2xvci1ib2FyZC1wbGFjZWhvbGRlci1hY3RpdmUteWppNDA4LCAjZDVkYmRiKSIgeTI9IjQ3LjUiIHgyPSIwLjUiIHkxPSIwLjQ5MTIyODA3IiB4MT0iMC41Ii8+JiN4YTs8dXNlIGFyaWEtaGlkZGVuPSJ0cnVlIiBocmVmPSIjaWNvbi1zZXJ2aWNlLWh0dHAiPiYjeGE7PHRpdGxlPmh0dHA8L3RpdGxlPiYjeGE7PC91c2U+JiN4YTs8L2c+JiN4YTs8ZyB0cmFuc2Zvcm09InRyYW5zbGF0ZSgtNDgsLTI0LjUpIiBjbGFzcz0idGV4dC1saW5lcyI+JiN4YTs8dGV4dCBjbGFzcz0ibGluZTEiIHRyYW5zZm9ybT0idHJhbnNsYXRlKDAsMTcpIj4mI3hhOzx0c3BhbiB0ZXh0LWFuY2hvcj0ic3RhcnQiIHhtbDpzcGFjZT0icHJlc2VydmUiPkhUVFAgRW5kcG9pbnQ8L3RzcGFuPiYjeGE7PC90ZXh0PiYjeGE7PHRleHQgY2xhc3M9ImxpbmUyIGxhYmVsIiB0cmFuc2Zvcm09InRyYW5zbGF0ZSgwLDM1LjUpIj4mI3hhOzx0c3BhbiB0ZXh0LWFuY2hvcj0ic3RhcnQiIHhtbDpzcGFjZT0icHJlc2VydmUiPlNlbmRSZXNwb25zZTwvdHNwYW4+JiN4YTs8L3RleHQ+JiN4YTs8L2c+JiN4YTs8L2c+JiN4YTs8L2c+JiN4YTs8L2c+JiN4YTs8ZyB0cmFuc2Zvcm09InRyYW5zbGF0ZSgxMjAsOTIpIiBjbGFzcz0ibm9kZS1jb250YWluZXIiPiYjeGE7PGc+JiN4YTs8Y2lyY2xlIHI9IjgiIGNsYXNzPSJzYy1oWkR5QVEga2VxaXNjIHNoYXBlIi8+JiN4YTs8L2c+JiN4YTs8L2c+JiN4YTs8L2c+JiN4YTs8ZyBjbGFzcz0iZWRnZXMiPiYjeGE7PGcgY2xhc3M9InNjLWNmeGZjTSBkRk5RTEkgZWRnZSI+JiN4YTs8cGF0aCBmaWxsPSJub25lIiBtYXJrZXItZW5kPSJ1cmwoI2Fycm93aGVhZCkiIGQ9Ik0xMjAsNDlMMTIwLDUxLjkxNjY2NjY2NjY2NjY2NEMxMjAsNTQuODMzMzMzMzMzMzMzMzM2LDEyMCw2MC42NjY2NjY2NjY2NjY2NjQsMTIwLDY2LjVDMTIwLDcyLjMzMzMzMzMzMzMzMzMzLDEyMCw3OC4xNjY2NjY2NjY2NjY2NywxMjAsODEuMDgzMzMzMzMzMzMzMzNMMTIwLDg0IiBpZD0ic3RhdGUtU2VuZFJlc3BvbnNlOmVuZDpub3JtYWwiLz4mI3hhOzwvZz4mI3hhOzwvZz4mI3hhOzwvZz4mI3hhOzxnIGhlaWdodD0iMTAwIiB3aWR0aD0iMjAiIHk9IjAiIHg9IjI0MCIgaWQ9IlBhcmFsbGVsOjEiIGRhdGEtcGFyZW50LXN0YXRlLWlkPSJQYXJhbGxlbCIgZGF0YS1pbnNlcnRpb24taW5kZXg9IjEiIGNsYXNzPSJicmFuY2hJbnNlcnRBcmVhIj4mI3hhOzxyZWN0IGZpbGw9Im5vbmUiIHN0cm9rZT0ibm9uZSIgaGVpZ2h0PSIxMDAiIHdpZHRoPSIyMCIgeT0iMCIgeD0iMjQwIi8+JiN4YTs8cGF0aCBmaWxsPSJub25lIiBzdHJva2U9Im5vbmUiIGQ9Ik0yNTAsMCBsMCwxMDAiLz4mI3hhOzwvZz4mI3hhOzwvZz4mI3hhOzxnIHRyYW5zZm9ybT0idHJhbnNsYXRlKDI4MCw4OSkiIGNsYXNzPSJicmFuY2giPiYjeGE7PGcgdHJhbnNmb3JtPSIiPiYjeGE7PGcgY2xhc3M9Im5vZGVzIj4mI3hhOzxnIHRyYW5zZm9ybT0idHJhbnNsYXRlKDEyMCwyNC41KSIgY2xhc3M9Im5vZGUtY29udGFpbmVyIj4mI3hhOzxnIGRhdGEtc3RhdGUtdHlwZT0iVGFzayIgZGF0YS1zdGF0ZS1pZD0iUHV0U2Vzc2lvbiIgZGF0YS10ZXN0aWQ9ImdyYXBoLVB1dFNlc3Npb24iIGNsYXNzPSJzYy1OeHNwZiBmQ0xEaiBub2RlIHN0YXRlIFRhc2siPiYjeGE7PGcgY2xhc3M9Im5ldy1sb29rLXN0YXRlLW5vZGUiPiYjeGE7PHJlY3Qgcnk9IjMiIHJ4PSIzIiBoZWlnaHQ9IjQ5IiB3aWR0aD0iMjQwIiB5PSItMjQuNSIgeD0iLTEyMCIvPiYjeGE7PGcgdHJhbnNmb3JtPSJ0cmFuc2xhdGUoLTEyMCwtMjQuNSkiIGNsYXNzPSJoYW5kbGUiPiYjeGE7PHBhdGggZD0iTTUsMTYgTDUsMzQgTTgsMTYgTDgsMzQiLz4mI3hhOzwvZz4mI3hhOzxnIHRyYW5zZm9ybT0idHJhbnNsYXRlKC0xMDQsLTI0KSIgY2xhc3M9Imljb24iPiYjeGE7PHJlY3QgaGVpZ2h0PSI0OCIgd2lkdGg9IjQ4IiB5PSIwLjAxODEyOTE5NjciIHg9IjAuMDM2MTAyNjEwOCIgZmlsbD0idmFyKC0tY29sb3ItYmFja2dyb3VuZC1jb250YWluZXItaGVhZGVyLTdzMnRiYSwgI2ZhZmFmYSkiLz4mI3hhOzxsaW5lIHN0cm9rZS1saW5lY2FwPSJzcXVhcmUiIHN0cm9rZT0idmFyKC0tY29sb3ItYm9hcmQtcGxhY2Vob2xkZXItYWN0aXZlLXlqaTQwOCwgI2Q1ZGJkYikiIHkyPSI0Ny41IiB4Mj0iNDcuNSIgeTE9IjAuNDkxMjI4MDciIHgxPSI0Ny41Ii8+JiN4YTs8bGluZSBzdHJva2UtbGluZWNhcD0ic3F1YXJlIiBzdHJva2U9InZhcigtLWNvbG9yLWJvYXJkLXBsYWNlaG9sZGVyLWFjdGl2ZS15amk0MDgsICNkNWRiZGIpIiB5Mj0iNDcuNSIgeDI9IjAuNSIgeTE9IjAuNDkxMjI4MDciIHgxPSIwLjUiLz4mI3hhOzx1c2UgYXJpYS1oaWRkZW49InRydWUiIGhyZWY9IiNpY29uLXNlcnZpY2UtZGRiIj4mI3hhOzx0aXRsZT5EeW5hbW9EQjwvdGl0bGU+JiN4YTs8L3VzZT4mI3hhOzwvZz4mI3hhOzxnIHRyYW5zZm9ybT0idHJhbnNsYXRlKC00OCwtMjQuNSkiIGNsYXNzPSJ0ZXh0LWxpbmVzIj4mI3hhOzx0ZXh0IGNsYXNzPSJsaW5lMSIgdHJhbnNmb3JtPSJ0cmFuc2xhdGUoMCwxNykiPiYjeGE7PHRzcGFuIHRleHQtYW5jaG9yPSJzdGFydCIgeG1sOnNwYWNlPSJwcmVzZXJ2ZSI+RHluYW1vREI6IFB1dEl0ZW08L3RzcGFuPiYjeGE7PC90ZXh0PiYjeGE7PHRleHQgY2xhc3M9ImxpbmUyIGxhYmVsIiB0cmFuc2Zvcm09InRyYW5zbGF0ZSgwLDM1LjUpIj4mI3hhOzx0c3BhbiB0ZXh0LWFuY2hvcj0ic3RhcnQiIHhtbDpzcGFjZT0icHJlc2VydmUiPlB1dFNlc3Npb248L3RzcGFuPiYjeGE7PC90ZXh0PiYjeGE7PC9nPiYjeGE7PC9nPiYjeGE7PC9nPiYjeGE7PC9nPiYjeGE7PGcgdHJhbnNmb3JtPSJ0cmFuc2xhdGUoMTIwLDkyKSIgY2xhc3M9Im5vZGUtY29udGFpbmVyIj4mI3hhOzxnPiYjeGE7PGNpcmNsZSByPSI4IiBjbGFzcz0ic2MtaFpEeUFRIGtlcWlzYyBzaGFwZSIvPiYjeGE7PC9nPiYjeGE7PC9nPiYjeGE7PC9nPiYjeGE7PGcgY2xhc3M9ImVkZ2VzIj4mI3hhOzxnIGNsYXNzPSJzYy1jZnhmY00gZEZOUUxJIGVkZ2UiPiYjeGE7PHBhdGggZmlsbD0ibm9uZSIgbWFya2VyLWVuZD0idXJsKCNhcnJvd2hlYWQpIiBkPSJNMTIwLDQ5TDEyMCw1MS45MTY2NjY2NjY2NjY2NjRDMTIwLDU0LjgzMzMzMzMzMzMzMzMzNiwxMjAsNjAuNjY2NjY2NjY2NjY2NjY0LDEyMCw2Ni41QzEyMCw3Mi4zMzMzMzMzMzMzMzMzMywxMjAsNzguMTY2NjY2NjY2NjY2NjcsMTIwLDgxLjA4MzMzMzMzMzMzMzMzTDEyMCw4NCIgaWQ9InN0YXRlLVB1dFNlc3Npb246ZW5kOm5vcm1hbCIvPiYjeGE7PC9nPiYjeGE7PC9nPiYjeGE7PC9nPiYjeGE7PGcgaGVpZ2h0PSIxMDAiIHdpZHRoPSIyMCIgeT0iMCIgeD0iMjQwIiBpZD0iUGFyYWxsZWw6MiIgZGF0YS1wYXJlbnQtc3RhdGUtaWQ9IlBhcmFsbGVsIiBkYXRhLWluc2VydGlvbi1pbmRleD0iMiIgY2xhc3M9ImJyYW5jaEluc2VydEFyZWEiPiYjeGE7PHJlY3QgZmlsbD0ibm9uZSIgc3Ryb2tlPSJub25lIiBoZWlnaHQ9IjEwMCIgd2lkdGg9IjIwIiB5PSIwIiB4PSIyNDAiLz4mI3hhOzxwYXRoIGZpbGw9Im5vbmUiIHN0cm9rZT0ibm9uZSIgZD0iTTI1MCwwIGwwLDEwMCIvPiYjeGE7PC9nPiYjeGE7PC9nPiYjeGE7PGcgY2xhc3M9InNjLWNmeGZjTSBkRk5RTEkiPiYjeGE7PHBhdGggZmlsbD0ibm9uZSIgZD0iTTI3MCw0NEwyNzAsNDcuNzVDMjcwLDUxLjUsMjcwLDU5LDI0OC4zMzMzMzMzMzMzMzMzNCw2Mi43NUMyMjYuNjY2NjY2NjY2NjY2NjYsNjYuNSwxODMuMzMzMzMzMzMzMzMzMzQsNjYuNSwxNjEuNjY2NjY2NjY2NjY2NjYsNzAuMjVDMTQwLDc0LDE0MCw4MS41LDE0MCw4NS4yNUwxNDAsODkiIGNsYXNzPSJwYXRoIHN0YXJ0aW5nLWNvbm5lY3Rpb24iIGlkPSJQYXJhbGxlbC1TZW5kUmVzcG9uc2UiLz4mI3hhOzwvZz4mI3hhOzxnIGNsYXNzPSJzYy1jZnhmY00gZEZOUUxJIj4mI3hhOzxwYXRoIGZpbGw9Im5vbmUiIGQ9Ik0yNzAsNDRMMjcwLDQ3Ljc1QzI3MCw1MS41LDI3MCw1OSwyOTEuNjY2NjY2NjY2NjY2Nyw2Mi43NUMzMTMuMzMzMzMzMzMzMzMzMyw2Ni41LDM1Ni42NjY2NjY2NjY2NjY3LDY2LjUsMzc4LjMzMzMzMzMzMzMzMzMsNzAuMjVDNDAwLDc0LDQwMCw4MS41LDQwMCw4NS4yNUw0MDAsODkiIGNsYXNzPSJwYXRoIHN0YXJ0aW5nLWNvbm5lY3Rpb24iIGlkPSJQYXJhbGxlbC1QdXRTZXNzaW9uIi8+JiN4YTs8L2c+JiN4YTs8L2c+JiN4YTs8L2c+JiN4YTs8ZyBjbGFzcz0ibmV3LWxvb2stc3RhdGUtbm9kZSI+JiN4YTs8cmVjdCByeT0iMyIgcng9IjMiIGhlaWdodD0iNDkiIHdpZHRoPSIyNDAiIHk9Ii0xMDciIHg9Ii0xMjAiLz4mI3hhOzxnIHRyYW5zZm9ybT0idHJhbnNsYXRlKC0xMjAsLTEwNykiIGNsYXNzPSJoYW5kbGUiPiYjeGE7PHBhdGggZD0iTTUsMTYgTDUsMzQgTTgsMTYgTDgsMzQiLz4mI3hhOzwvZz4mI3hhOzxnIHRyYW5zZm9ybT0idHJhbnNsYXRlKC0xMDQsLTEwNi41KSIgY2xhc3M9Imljb24iPiYjeGE7PHJlY3QgaGVpZ2h0PSI0OCIgd2lkdGg9IjQ4IiB5PSIwLjAxODEyOTE5NjciIHg9IjAuMDM2MTAyNjEwOCIgZmlsbD0idmFyKC0tY29sb3ItYmFja2dyb3VuZC1jb250YWluZXItaGVhZGVyLTdzMnRiYSwgI2ZhZmFmYSkiLz4mI3hhOzxsaW5lIHN0cm9rZS1saW5lY2FwPSJzcXVhcmUiIHN0cm9rZT0idmFyKC0tY29sb3ItYm9hcmQtcGxhY2Vob2xkZXItYWN0aXZlLXlqaTQwOCwgI2Q1ZGJkYikiIHkyPSI0Ny41IiB4Mj0iNDcuNSIgeTE9IjAuNDkxMjI4MDciIHgxPSI0Ny41Ii8+JiN4YTs8bGluZSBzdHJva2UtbGluZWNhcD0ic3F1YXJlIiBzdHJva2U9InZhcigtLWNvbG9yLWJvYXJkLXBsYWNlaG9sZGVyLWFjdGl2ZS15amk0MDgsICNkNWRiZGIpIiB5Mj0iNDcuNSIgeDI9IjAuNSIgeTE9IjAuNDkxMjI4MDciIHgxPSIwLjUiLz4mI3hhOzx1c2UgaHJlZj0iI2ljb24tZmxvdy1wYXJhbGxlbCIvPiYjeGE7PC9nPiYjeGE7PGcgdHJhbnNmb3JtPSJ0cmFuc2xhdGUoLTQ4LC0xMDcpIiBjbGFzcz0idGV4dC1saW5lcyI+JiN4YTs8dGV4dCBjbGFzcz0ibGluZTEiIHRyYW5zZm9ybT0idHJhbnNsYXRlKDAsMTcpIj4mI3hhOzx0c3BhbiB0ZXh0LWFuY2hvcj0ic3RhcnQiIHhtbDpzcGFjZT0icHJlc2VydmUiPlBhcmFsbGVsIHN0YXRlPC90c3Bhbj4mI3hhOzwvdGV4dD4mI3hhOzx0ZXh0IGNsYXNzPSJsaW5lMiBsYWJlbCIgdHJhbnNmb3JtPSJ0cmFuc2xhdGUoMCwzNS41KSI+JiN4YTs8dHNwYW4gdGV4dC1hbmNob3I9InN0YXJ0IiB4bWw6c3BhY2U9InByZXNlcnZlIj5QYXJhbGxlbDwvdHNwYW4+JiN4YTs8L3RleHQ+JiN4YTs8L2c+JiN4YTs8L2c+JiN4YTs8L2c+JiN4YTs8L2c+JiN4YTs8L2c+JiN4YTs8ZyB0cmFuc2Zvcm09InRyYW5zbGF0ZSgyNzAsNjg4LjUpIiBjbGFzcz0ibm9kZS1jb250YWluZXIiPiYjeGE7PGcgZGF0YS1zdGF0ZS10eXBlPSJTdWNjZWVkIiBkYXRhLXN0YXRlLWlkPSJTdWNjZXNzIiBkYXRhLXRlc3RpZD0iZ3JhcGgtU3VjY2VzcyIgY2xhc3M9InNjLU54c3BmIGZDTERqIG5vZGUgc3RhdGUgU3VjY2VlZCI+JiN4YTs8ZyBjbGFzcz0ibmV3LWxvb2stc3RhdGUtbm9kZSI+JiN4YTs8cmVjdCByeT0iMyIgcng9IjMiIGhlaWdodD0iNDkiIHdpZHRoPSIyNDAiIHk9Ii0yNC41IiB4PSItMTIwIi8+JiN4YTs8ZyB0cmFuc2Zvcm09InRyYW5zbGF0ZSgtMTIwLC0yNC41KSIgY2xhc3M9ImhhbmRsZSI+JiN4YTs8cGF0aCBkPSJNNSwxNiBMNSwzNCBNOCwxNiBMOCwzNCIvPiYjeGE7PC9nPiYjeGE7PGcgdHJhbnNmb3JtPSJ0cmFuc2xhdGUoLTEwNCwtMjQpIiBjbGFzcz0iaWNvbiI+JiN4YTs8cmVjdCBoZWlnaHQ9IjQ4IiB3aWR0aD0iNDgiIHk9IjAuMDE4MTI5MTk2NyIgeD0iMC4wMzYxMDI2MTA4IiBmaWxsPSJ2YXIoLS1jb2xvci1iYWNrZ3JvdW5kLWNvbnRhaW5lci1oZWFkZXItN3MydGJhLCAjZmFmYWZhKSIvPiYjeGE7PGxpbmUgc3Ryb2tlLWxpbmVjYXA9InNxdWFyZSIgc3Ryb2tlPSJ2YXIoLS1jb2xvci1ib2FyZC1wbGFjZWhvbGRlci1hY3RpdmUteWppNDA4LCAjZDVkYmRiKSIgeTI9IjQ3LjUiIHgyPSI0Ny41IiB5MT0iMC40OTEyMjgwNyIgeDE9IjQ3LjUiLz4mI3hhOzxsaW5lIHN0cm9rZS1saW5lY2FwPSJzcXVhcmUiIHN0cm9rZT0idmFyKC0tY29sb3ItYm9hcmQtcGxhY2Vob2xkZXItYWN0aXZlLXlqaTQwOCwgI2Q1ZGJkYikiIHkyPSI0Ny41IiB4Mj0iMC41IiB5MT0iMC40OTEyMjgwNyIgeDE9IjAuNSIvPiYjeGE7PHVzZSBocmVmPSIjaWNvbi1mbG93LXN1Y2NlZWQiLz4mI3hhOzwvZz4mI3hhOzxnIHRyYW5zZm9ybT0idHJhbnNsYXRlKC00OCwtMjQuNSkiIGNsYXNzPSJ0ZXh0LWxpbmVzIj4mI3hhOzx0ZXh0IGNsYXNzPSJsaW5lMSIgdHJhbnNmb3JtPSJ0cmFuc2xhdGUoMCwxNykiPiYjeGE7PHRzcGFuIHRleHQtYW5jaG9yPSJzdGFydCIgeG1sOnNwYWNlPSJwcmVzZXJ2ZSI+U3VjY2VlZCBzdGF0ZTwvdHNwYW4+JiN4YTs8L3RleHQ+JiN4YTs8dGV4dCBjbGFzcz0ibGluZTIgbGFiZWwiIHRyYW5zZm9ybT0idHJhbnNsYXRlKDAsMzUuNSkiPiYjeGE7PHRzcGFuIHRleHQtYW5jaG9yPSJzdGFydCIgeG1sOnNwYWNlPSJwcmVzZXJ2ZSI+U3VjY2VzczwvdHNwYW4+JiN4YTs8L3RleHQ+JiN4YTs8L2c+JiN4YTs8L2c+JiN4YTs8L2c+JiN4YTs8L2c+JiN4YTs8ZyB0cmFuc2Zvcm09InRyYW5zbGF0ZSgyNzAsNzcwKSIgY2xhc3M9Im5vZGUtY29udGFpbmVyIj4mI3hhOzxnPiYjeGE7PGNpcmNsZSByPSIyMiIgY2xhc3M9InNjLWd1SkJkaCBnTVpoZnAgc2hhcGUiLz4mI3hhOzx0ZXh0IGNsYXNzPSJzYy1qR0t4SUsgZm5EdW5xIGxhYmVsIj4mI3hhOzx0c3BhbiBhbGlnbm1lbnQtYmFzZWxpbmU9ImNlbnRyYWwiIHRleHQtYW5jaG9yPSJtaWRkbGUiIHhtbDpzcGFjZT0icHJlc2VydmUiPkVuZDwvdHNwYW4+JiN4YTs8L3RleHQ+JiN4YTs8L2c+JiN4YTs8L2c+JiN4YTs8L2c+JiN4YTs8ZyBjbGFzcz0iZWRnZXMiPiYjeGE7PGcgY2xhc3M9InNjLWNmeGZjTSBkRk5RTEkgZWRnZSI+JiN4YTs8cGF0aCBmaWxsPSJub25lIiBtYXJrZXItZW5kPSJ1cmwoI2Fycm93aGVhZCkiIGQ9Ik0yNzAsMTI4TDI3MCwxMzAuOTE2NjY2NjY2NjY2NjZDMjcwLDEzMy44MzMzMzMzMzMzMzMzNCwyNzAsMTM5LjY2NjY2NjY2NjY2NjY2LDI3MCwxNDUuNUMyNzAsMTUxLjMzMzMzMzMzMzMzMzM0LDI3MCwxNTcuMTY2NjY2NjY2NjY2NjYsMjcwLDE2MC4wODMzMzMzMzMzMzMzNEwyNzAsMTYzIiBpZD0ic3RhdGUtQXNzaWduUmVxdWVzdDpzdGF0ZS1HZXRTZXNzaW9uOm5vcm1hbCIvPiYjeGE7PC9nPiYjeGE7PGcgY2xhc3M9InNjLWNmeGZjTSBkRk5RTEkgZWRnZSI+JiN4YTs8cGF0aCBmaWxsPSJub25lIiBtYXJrZXItZW5kPSJ1cmwoI2Fycm93aGVhZCkiIGQ9Ik0yNzAsNDRMMjcwLDQ2LjkxNjY2NjY2NjY2NjY2NEMyNzAsNDkuODMzMzMzMzMzMzMzMzM2LDI3MCw1NS42NjY2NjY2NjY2NjY2NjQsMjcwLDYxLjVDMjcwLDY3LjMzMzMzMzMzMzMzMzMzLDI3MCw3My4xNjY2NjY2NjY2NjY2NywyNzAsNzYuMDgzMzMzMzMzMzMzMzNMMjcwLDc5IiBpZD0ic3RhcnQ6c3RhdGUtQXNzaWduUmVxdWVzdCIvPiYjeGE7PC9nPiYjeGE7PGcgY2xhc3M9InNjLWNmeGZjTSBkRk5RTEkgZWRnZSI+JiN4YTs8cGF0aCBmaWxsPSJub25lIiBtYXJrZXItZW5kPSJ1cmwoI2Fycm93aGVhZCkiIGQ9Ik0yNzAsMjEyTDI3MCwyMTQuOTE2NjY2NjY2NjY2NjZDMjcwLDIxNy44MzMzMzMzMzMzMzMzNCwyNzAsMjIzLjY2NjY2NjY2NjY2NjY2LDI3MCwyMjkuNUMyNzAsMjM1LjMzMzMzMzMzMzMzMzM0LDI3MCwyNDEuMTY2NjY2NjY2NjY2NjYsMjcwLDI0NC4wODMzMzMzMzMzMzMzNEwyNzAsMjQ3IiBpZD0ic3RhdGUtR2V0U2Vzc2lvbjpzdGF0ZS1QcmVwYXJlS25vd2xlZGdlQmFzZVBhcmFtZXRlcjpub3JtYWwiLz4mI3hhOzwvZz4mI3hhOzxnIGNsYXNzPSJzYy1jZnhmY00gZEZOUUxJIGVkZ2UiPiYjeGE7PHBhdGggZmlsbD0ibm9uZSIgbWFya2VyLWVuZD0idXJsKCNhcnJvd2hlYWQpIiBkPSJNMjcwLDI5NkwyNzAsMjk4LjkxNjY2NjY2NjY2NjdDMjcwLDMwMS44MzMzMzMzMzMzMzMzLDI3MCwzMDcuNjY2NjY2NjY2NjY2NywyNzAsMzEzLjVDMjcwLDMxOS4zMzMzMzMzMzMzMzMzLDI3MCwzMjUuMTY2NjY2NjY2NjY2NywyNzAsMzI4LjA4MzMzMzMzMzMzMzNMMjcwLDMzMSIgaWQ9InN0YXRlLVByZXBhcmVLbm93bGVkZ2VCYXNlUGFyYW1ldGVyOnN0YXRlLVJldHJpZXZlQW5kR2VuZXJhdGU6bm9ybWFsIi8+JiN4YTs8L2c+JiN4YTs8ZyBjbGFzcz0ic2MtY2Z4ZmNNIGRGTlFMSSBlZGdlIj4mI3hhOzxwYXRoIGZpbGw9Im5vbmUiIG1hcmtlci1lbmQ9InVybCgjYXJyb3doZWFkKSIgZD0iTTI3MCwzODBMMjcwLDM4Mi45MTY2NjY2NjY2NjY3QzI3MCwzODUuODMzMzMzMzMzMzMzMywyNzAsMzkxLjY2NjY2NjY2NjY2NjcsMjcwLDM5Ny41QzI3MCw0MDMuMzMzMzMzMzMzMzMzMywyNzAsNDA5LjE2NjY2NjY2NjY2NjcsMjcwLDQxMi4wODMzMzMzMzMzMzMzTDI3MCw0MTUiIGlkPSJzdGF0ZS1SZXRyaWV2ZUFuZEdlbmVyYXRlOnN0YXRlLVBhcmFsbGVsOm5vcm1hbCIvPiYjeGE7PC9nPiYjeGE7PGcgY2xhc3M9InNjLWNmeGZjTSBkRk5RTEkgZWRnZSI+JiN4YTs8cGF0aCBmaWxsPSJub25lIiBtYXJrZXItZW5kPSJ1cmwoI2Fycm93aGVhZCkiIGQ9Ik0yNzAsNjI5TDI3MCw2MzEuOTE2NjY2NjY2NjY2NkMyNzAsNjM0LjgzMzMzMzMzMzMzMzQsMjcwLDY0MC42NjY2NjY2NjY2NjY2LDI3MCw2NDYuNUMyNzAsNjUyLjMzMzMzMzMzMzMzMzQsMjcwLDY1OC4xNjY2NjY2NjY2NjY2LDI3MCw2NjEuMDgzMzMzMzMzMzMzNEwyNzAsNjY0IiBpZD0ic3RhdGUtUGFyYWxsZWw6c3RhdGUtU3VjY2Vzczpub3JtYWwiLz4mI3hhOzwvZz4mI3hhOzxnIGNsYXNzPSJzYy1jZnhmY00gZEZOUUxJIGVkZ2UiPiYjeGE7PHBhdGggZmlsbD0ibm9uZSIgbWFya2VyLWVuZD0idXJsKCNhcnJvd2hlYWQpIiBkPSJNMjcwLDcxM0wyNzAsNzE1LjkxNjY2NjY2NjY2NjZDMjcwLDcxOC44MzMzMzMzMzMzMzM0LDI3MCw3MjQuNjY2NjY2NjY2NjY2NiwyNzAsNzMwLjVDMjcwLDczNi4zMzMzMzMzMzMzMzM0LDI3MCw3NDIuMTY2NjY2NjY2NjY2NiwyNzAsNzQ1LjA4MzMzMzMzMzMzMzRMMjcwLDc0OCIgaWQ9InN0YXRlLVN1Y2Nlc3M6ZW5kOm5vcm1hbCIvPiYjeGE7PC9nPiYjeGE7PC9nPiYjeGE7PGRlZnM+JiN4YTs8bWFya2VyIGNsYXNzPSJzYy1pYlFBbGIganJjQ2twIiBvcmllbnQ9ImF1dG8iIHJlZlk9IjMiIHJlZlg9IjciIG1hcmtlckhlaWdodD0iNiIgbWFya2VyV2lkdGg9IjgiIGlkPSJhcnJvd2hlYWQiPiYjeGE7PHBvbHlnb24gcG9pbnRzPSIwIDAsIDggMywgMCA2Ii8+JiN4YTs8L21hcmtlcj4mI3hhOzxtYXJrZXIgY2xhc3M9InNjLWliUUFsYiBqcmNDa3AiIG9yaWVudD0iYXV0byIgcmVmWT0iMiIgcmVmWD0iNSIgbWFya2VySGVpZ2h0PSI0IiBtYXJrZXJXaWR0aD0iNiIgaWQ9ImhpZ2hsaWdodGVkLWFycm93aGVhZCI+JiN4YTs8cG9seWdvbiBwb2ludHM9IjAgMCwgNiAyLCAwIDQiLz4mI3hhOzwvbWFya2VyPiYjeGE7PG1hcmtlciBjbGFzcz0ic2MtaWJRQWxiIGpyY0NrcCIgb3JpZW50PSJhdXRvIiByZWZZPSIyIiByZWZYPSI1IiBtYXJrZXJIZWlnaHQ9IjQiIG1hcmtlcldpZHRoPSI2IiBpZD0iZXJyb3ItYXJyb3doZWFkIj4mI3hhOzxwb2x5Z29uIHBvaW50cz0iMCAwLCA2IDIsIDAgNCIvPiYjeGE7PC9tYXJrZXI+JiN4YTs8bWFya2VyIGNsYXNzPSJzYy1pYlFBbGIganJjQ2twIiBvcmllbnQ9ImF1dG8iIHJlZlk9IjQiIHJlZlg9IjkiIG1hcmtlckhlaWdodD0iOCIgbWFya2VyV2lkdGg9IjEwIiBpZD0ibGFyZ2UtYXJyb3doZWFkIj4mI3hhOzxwb2x5Z29uIHBvaW50cz0iMCAwLCAxMCA0LCAwIDgiLz4mI3hhOzwvbWFya2VyPiYjeGE7PG1hcmtlciBjbGFzcz0ic2MtaWJRQWxiIGpyY0NrcCIgb3JpZW50PSJhdXRvIiByZWZZPSIyIiByZWZYPSI0LjUiIG1hcmtlckhlaWdodD0iNCIgbWFya2VyV2lkdGg9IjUuNSIgaWQ9ImxhcmdlLWhpZ2hsaWdodGVkLWFycm93aGVhZCI+JiN4YTs8cG9seWdvbiBwb2ludHM9IjAgMCwgNS41IDIsIDAgNCIvPiYjeGE7PC9tYXJrZXI+JiN4YTs8bWFya2VyIGNsYXNzPSJzYy1pYlFBbGIganJjQ2twIiBvcmllbnQ9ImF1dG8iIHJlZlk9IjQiIHJlZlg9IjkiIG1hcmtlckhlaWdodD0iOCIgbWFya2VyV2lkdGg9IjEwIiBpZD0ibGFyZ2UtZXJyb3ItYXJyb3doZWFkIj4mI3hhOzxwb2x5Z29uIHBvaW50cz0iMCAwLCAxMCA0LCAwIDgiLz4mI3hhOzwvbWFya2VyPiYjeGE7PGxpbmVhckdyYWRpZW50IGlkPSJncmFkaWVudC1vcmFuZ2UiIHkyPSIwJSIgeDI9IjEwMCUiIHkxPSIxMDAlIiB4MT0iMCUiPiYjeGE7PHN0b3Agb2Zmc2V0PSIwJSIgc3RvcC1jb2xvcj0iI0M4NTExQiIvPiYjeGE7PHN0b3Agb2Zmc2V0PSIxMDAlIiBzdG9wLWNvbG9yPSIjRkY5OTAwIi8+JiN4YTs8L2xpbmVhckdyYWRpZW50PiYjeGE7PGxpbmVhckdyYWRpZW50IGlkPSJncmFkaWVudC10dXJxdW9pc2UiIHkyPSIwJSIgeDI9IjEwMCUiIHkxPSIxMDAlIiB4MT0iMCUiPiYjeGE7PHN0b3Agb2Zmc2V0PSIwJSIgc3RvcC1jb2xvcj0iIzA1NUY0RSIvPiYjeGE7PHN0b3Agb2Zmc2V0PSIxMDAlIiBzdG9wLWNvbG9yPSIjNTZDMEE3Ii8+JiN4YTs8L2xpbmVhckdyYWRpZW50PiYjeGE7PGxpbmVhckdyYWRpZW50IGlkPSJncmFkaWVudC1ibHVlIiB5Mj0iMCUiIHgyPSIxMDAlIiB5MT0iMTAwJSIgeDE9IjAlIj4mI3hhOzxzdG9wIG9mZnNldD0iMCUiIHN0b3AtY29sb3I9IiMyRTI3QUQiLz4mI3hhOzxzdG9wIG9mZnNldD0iMTAwJSIgc3RvcC1jb2xvcj0iIzUyN0ZGRiIvPiYjeGE7PC9saW5lYXJHcmFkaWVudD4mI3hhOzxsaW5lYXJHcmFkaWVudCBpZD0iZ3JhZGllbnQtcGluayIgeTI9IjAlIiB4Mj0iMTAwJSIgeTE9IjEwMCUiIHgxPSIwJSI+JiN4YTs8c3RvcCBvZmZzZXQ9IjAlIiBzdG9wLWNvbG9yPSIjQjAwODREIi8+JiN4YTs8c3RvcCBvZmZzZXQ9IjEwMCUiIHN0b3AtY29sb3I9IiNGRjRGOEIiLz4mI3hhOzwvbGluZWFyR3JhZGllbnQ+JiN4YTs8bGluZWFyR3JhZGllbnQgaWQ9ImdyYWRpZW50LXJlZCIgeTI9IjAlIiB4Mj0iMTAwJSIgeTE9IjEwMCUiIHgxPSIwJSI+JiN4YTs8c3RvcCBvZmZzZXQ9IjAlIiBzdG9wLWNvbG9yPSIjQkQwODE2Ii8+JiN4YTs8c3RvcCBvZmZzZXQ9IjEwMCUiIHN0b3AtY29sb3I9IiNGRjUyNTIiLz4mI3hhOzwvbGluZWFyR3JhZGllbnQ+JiN4YTs8bGluZWFyR3JhZGllbnQgaWQ9ImdyYWRpZW50LWdyZWVuIiB5Mj0iMCUiIHgyPSIxMDAlIiB5MT0iMTAwJSIgeDE9IjAlIj4mI3hhOzxzdG9wIG9mZnNldD0iMCUiIHN0b3AtY29sb3I9IiMxQjY2MEYiLz4mI3hhOzxzdG9wIG9mZnNldD0iMTAwJSIgc3RvcC1jb2xvcj0iIzZDQUUzRSIvPiYjeGE7PC9saW5lYXJHcmFkaWVudD4mI3hhOzxsaW5lYXJHcmFkaWVudCBpZD0iZ3JhZGllbnQtcHVycGxlIiB5Mj0iMCUiIHgyPSIxMDAlIiB5MT0iMTAwJSIgeDE9IjAlIj4mI3hhOzxzdG9wIG9mZnNldD0iMCUiIHN0b3AtY29sb3I9IiM0RDI3QTgiLz4mI3hhOzxzdG9wIG9mZnNldD0iMTAwJSIgc3RvcC1jb2xvcj0iI0ExNjZGRiIvPiYjeGE7PC9saW5lYXJHcmFkaWVudD4mI3hhOzxsaW5lYXJHcmFkaWVudCBpZD0iZ3JhZGllbnQtZ3JleSIgeTI9IjAlIiB4Mj0iMTAwJSIgeTE9IjEwMCUiIHgxPSIwJSI+JiN4YTs8c3RvcCBvZmZzZXQ9IjAlIiBzdG9wLWNvbG9yPSIjRENEQ0RDIi8+JiN4YTs8c3RvcCBvZmZzZXQ9IjEwMCUiIHN0b3AtY29sb3I9IiNGNkY1RjciLz4mI3hhOzwvbGluZWFyR3JhZGllbnQ+JiN4YTs8bGluZWFyR3JhZGllbnQgaWQ9ImdyYWRpZW50LWxpZ2h0LXBpbmsiIHkyPSIwJSIgeDI9IjEwMCUiIHkxPSIxMDAlIiB4MT0iMCUiPiYjeGE7PHN0b3Agb2Zmc2V0PSIwJSIgc3RvcC1jb2xvcj0iI0REMzQ0QyIvPiYjeGE7PHN0b3Agb2Zmc2V0PSIxMDAlIiBzdG9wLWNvbG9yPSIjREQzNDRDIi8+JiN4YTs8L2xpbmVhckdyYWRpZW50Piw8bGluZWFyR3JhZGllbnQgaWQ9ImdyYWRpZW50LWFnIiB5Mj0iMCUiIHgyPSIxMDAlIiB5MT0iMTAwJSIgeDE9IjAlIj4mI3hhOzxzdG9wIG9mZnNldD0iMCUiIHN0b3AtY29sb3I9IiNCQzEzNTYiLz4mI3hhOzxzdG9wIG9mZnNldD0iMTAwJSIgc3RvcC1jb2xvcj0iI0YzNDQ4MiIvPiYjeGE7PC9saW5lYXJHcmFkaWVudD4mI3hhOzxsaW5lYXJHcmFkaWVudCBpZD0iZ3JhZGllbnQtYXRoZW5hIiB5Mj0iMCUiIHgyPSIxMDAlIiB5MT0iMTAwJSIgeDE9IjAlIj4mI3hhOzxzdG9wIG9mZnNldD0iMCUiIHN0b3AtY29sb3I9IiM1OTMwQjUiLz4mI3hhOzxzdG9wIG9mZnNldD0iMTAwJSIgc3RvcC1jb2xvcj0iIzk0NURGMiIvPiYjeGE7PC9saW5lYXJHcmFkaWVudD4mI3hhOzxsaW5lYXJHcmFkaWVudCBpZD0iZ3JhZGllbnQtZW1yIiB5Mj0iMCUiIHgyPSIxMDAlIiB5MT0iMTAwJSIgeDE9IjAlIj4mI3hhOzxzdG9wIG9mZnNldD0iMCUiIHN0b3AtY29sb3I9IiM1OTMwQjUiLz4mI3hhOzxzdG9wIG9mZnNldD0iMTAwJSIgc3RvcC1jb2xvcj0iIzk0NURGMiIvPiYjeGE7PC9saW5lYXJHcmFkaWVudD4mI3hhOzxsaW5lYXJHcmFkaWVudCBpZD0iZ3JhZGllbnQtZ2x1ZSIgeTI9IjAlIiB4Mj0iMTAwJSIgeTE9IjEwMCUiIHgxPSIwJSI+JiN4YTs8c3RvcCBvZmZzZXQ9IjAlIiBzdG9wLWNvbG9yPSIjNTkzMEI1Ii8+JiN4YTs8c3RvcCBvZmZzZXQ9IjEwMCUiIHN0b3AtY29sb3I9IiM5NDVERjIiLz4mI3hhOzwvbGluZWFyR3JhZGllbnQ+JiN4YTs8bGluZWFyR3JhZGllbnQgaWQ9ImdyYWRpZW50LXNucyIgeTI9IjAlIiB4Mj0iMTAwJSIgeTE9IjEwMCUiIHgxPSIwJSI+JiN4YTs8c3RvcCBvZmZzZXQ9IjAlIiBzdG9wLWNvbG9yPSIjQkMxMzU2Ii8+JiN4YTs8c3RvcCBvZmZzZXQ9IjEwMCUiIHN0b3AtY29sb3I9IiNGMzQ0ODIiLz4mI3hhOzwvbGluZWFyR3JhZGllbnQ+JiN4YTs8bGluZWFyR3JhZGllbnQgaWQ9ImdyYWRpZW50LXN0YXRlcyIgeTI9IjAlIiB4Mj0iMTAwJSIgeTE9IjEwMCUiIHgxPSIwJSI+JiN4YTs8c3RvcCBvZmZzZXQ9IjAlIiBzdG9wLWNvbG9yPSIjQkMxMzU2Ii8+JiN4YTs8c3RvcCBvZmZzZXQ9IjEwMCUiIHN0b3AtY29sb3I9IiNGMzQ0ODIiLz4mI3hhOzwvbGluZWFyR3JhZGllbnQ+JiN4YTs8bGluZWFyR3JhZGllbnQgaWQ9ImdyYWRpZW50LWdlbmVyaWMiIHkyPSIwJSIgeDI9IjEwMCUiIHkxPSIxMDAlIiB4MT0iMCUiPiYjeGE7PHN0b3Agb2Zmc2V0PSIwJSIgc3RvcC1jb2xvcj0iI2NjYyIvPiYjeGE7PHN0b3Agb2Zmc2V0PSIxMDAlIiBzdG9wLWNvbG9yPSIjZGRkIi8+JiN4YTs8L2xpbmVhckdyYWRpZW50PiYjeGE7PGcgaWQ9Imljb24tZmxvdy1wYXNzIiBmaWxsLXJ1bGU9ImV2ZW5vZGQiIGZpbGw9Im5vbmUiIHN0cm9rZS13aWR0aD0iMSIgc3Ryb2tlPSJub25lIj4mI3hhOzxnIGZpbGwtcnVsZT0ibm9uemVybyIgZmlsbD0iIzAwNzNCQiIgdHJhbnNmb3JtPSJ0cmFuc2xhdGUoMTAuNTAwMDAwLCA4Ljc1MDAwMCkiPiYjeGE7PHBhdGggZmlsbD0iZmFsc2UiIGQ9Ik0xMy44MjE3MzYzLDMxLjI4MDMzMDEgTDEzLjczNjg0NTQsMzEuMzUzMjUwOCBMMTMuNzM2ODQ1NCwzMS4zNTMyNTA4IEwxMy42NTM0NDI2LDMxLjQwNzA1MyBMMTMuNjUzNDQyNiwzMS40MDcwNTMgTDEzLjYwNTI4NzgsMzEuNDMxMzgzOSBMMTMuNjA1Mjg3OCwzMS40MzEzODM5IEwxMy41MDgxNjcxLDMxLjQ2ODE0NTggTDEzLjUwODE2NzEsMzEuNDY4MTQ1OCBMMTMuNDUxMzcxMSwzMS40ODI4Mzk1IEwxMy40NTEzNzExLDMxLjQ4MjgzOTUgTDEzLjM4NDY3NTUsMzEuNDk0MjEyNyBMMTMuMzg0Njc1NSwzMS40OTQyMTI3IEwxMy4zNDEyNDI4LDMxLjQ5ODM1NyBMMTMuMzQxMjQyOCwzMS40OTgzNTcgTDEzLjI0MTQ5NSwzMS40OTgzNTcgTDEzLjI0MTQ5NSwzMS40OTgzNTcgTDEzLjE4MDIwNDUsMzEuNDkxNzU4OCBMMTMuMTgwMjA0NSwzMS40OTE3NTg4IEwxMy4xMzE0NjQ0LDMxLjQ4MjgzNjEgTDEzLjEzMTQ2NDQsMzEuNDgyODM2MSBMMTMuMDY1MjkyMSwzMS40NjUyNjUyIEwxMi45Nzc2MjM1LDMxLjQzMTQyOTQgTDEyLjk3NzYyMzUsMzEuNDMxNDI5NCBMMTIuOTI5Mzc4MiwzMS40MDcwNjA4IEwxMi45MjkzNzgyLDMxLjQwNzA2MDggTDEyLjgyOTQ4MjQsMzEuMzQwOTU5NiBMMTIuNzYxMDc2MiwzMS4yODAzMzAxIEwxMi43NjEwNzYyLDMxLjI4MDMzMDEgTDguMjYxMDc2MTYsMjYuNzgwMzMwMSBDNy45NjgxODI5NSwyNi40ODc0MzY5IDcuOTY4MTgyOTUsMjYuMDEyNTYzMSA4LjI2MTA3NjE2LDI1LjcxOTY2OTkgQzguNTI3MzQyNzMsMjUuNDUzNDAzNCA4Ljk0NDAwNjQxLDI1LjQyOTE5NzMgOS4yMzc2MTc5LDI1LjY0NzA1MTggTDkuMzIxNzM2MzQsMjUuNzE5NjY5OSBMMTIuNTgxNDA2MywyOC45NzkgTDEyLjU4MSwxOS43NDk1NTIyIEwzLjUsMTkuNzUgQzEuNjMxNDM2NiwxOS43NSAwLjEwNDg3MzU1MSwxOC4yODU3MjI0IDAuMDA1MTc4ODYyNzMsMTYuNDQyMDM1MiBMMCwxNi4yNSBMMCwxMi4yNSBDMCwxMC4zODE0MzY2IDEuNDY0Mjc3Niw4Ljg1NDg3MzU1IDMuMzA3OTY0OCw4Ljc1NTE3ODg2IEwzLjUsOC43NSBMMTEuNjg2LDguNzQ5NTUyMTYgTDExLjY4NiwxMC4yNDk1NTIyIEwzLjUsMTAuMjUgQzIuNDQ1NjM4MiwxMC4yNSAxLjU4MTgzNDg4LDExLjA2NTg3NzggMS41MDU0ODU3NCwxMi4xMDA3Mzc3IEwxLjUsMTIuMjUgTDEuNSwxNi4yNSBDMS41LDE3LjMwNDM2MTggMi4zMTU4Nzc3OSwxOC4xNjgxNjUxIDMuMzUwNzM3NjYsMTguMjQ0NTE0MyBMMy41LDE4LjI1IEwyMi41LDE4LjI1IEMyMy41NTQzNjE4LDE4LjI1IDI0LjQxODE2NTEsMTcuNDM0MTIyMiAyNC40OTQ1MTQzLDE2LjM5OTI2MjMgTDI0LjUsMTYuMjUgTDI0LjUsMTIuMjUgQzI0LjUsMTEuMTk1NjM4MiAyMy42ODQxMjIyLDEwLjMzMTgzNDkgMjIuNjQ5MjYyMywxMC4yNTU0ODU3IEwyMi41LDEwLjI1IEwxNS42ODYsMTAuMjQ5NTUyMiBMMTUuNjg2LDguNzQ5NTUyMTYgTDIyLjUsOC43NSBDMjQuMzY4NTYzNCw4Ljc1IDI1Ljg5NTEyNjQsMTAuMjE0Mjc3NiAyNS45OTQ4MjExLDEyLjA1Nzk2NDggTDI2LDEyLjI1IEwyNiwxNi4yNSBDMjYsMTguMTE4NTYzNCAyNC41MzU3MjI0LDE5LjY0NTEyNjQgMjIuNjkyMDM1MiwxOS43NDQ4MjExIEwyMi41LDE5Ljc1IEwxNC4wODEsMTkuNzQ5NTUyMiBMMTQuMDgxNDA2MywyOC44OTkgTDE3LjI2MTA3NjIsMjUuNzE5NjY5OSBMMTcuMzQ1MTk0NiwyNS42NDcwNTE4IEMxNy42Mzg4MDYxLDI1LjQyOTE5NzMgMTguMDU1NDY5OCwyNS40NTM0MDM0IDE4LjMyMTczNjMsMjUuNzE5NjY5OSBDMTguNTg4MDAyOSwyNS45ODU5MzY1IDE4LjYxMjIwODksMjYuNDAyNjAwMiAxOC4zOTQzNTQ1LDI2LjY5NjIxMTcgTDE4LjMyMTczNjMsMjYuNzgwMzMwMSBMMTMuODIxNzM2MywzMS4yODAzMzAxIFoiLz4mI3hhOzxwb2x5Z29uIGZpbGw9ImZhbHNlIiBwb2ludHM9IjE0LjA4MTgyOTEgMCAxNC4wODE4MjkxIDE0LjUgMTIuNTgxODI5MSAxNC41IDEyLjU4MTgyOTEgMCIvPiYjeGE7PC9nPiYjeGE7PC9nPiYjeGE7PGcgaWQ9Imljb24tZmxvdy1wYXJhbGxlbCIgZmlsbC1ydWxlPSJldmVub2RkIiBmaWxsPSJub25lIiBzdHJva2Utd2lkdGg9IjEiIHN0cm9rZT0ibm9uZSI+JiN4YTs8ZyBmaWxsLXJ1bGU9Im5vbnplcm8iIGZpbGw9IiMwMDczQkIiIHRyYW5zZm9ybT0idHJhbnNsYXRlKDcuNzk0NzU4LCA4Ljc1MDAwMCkiPiYjeGE7PHBhdGggZmlsbD0iZmFsc2UiIGQ9Ik0xNi4xOTk1NjIsMzAuOTYxNTE1NyBMMTYuMTA4ODkwNywzMC45NTY3Mjg5IEwxNi4wNDI4NDExLDMwLjk0NjI2MjEgTDE1LjkyODkyMDUsMzAuOTEzNDAxNiBMMTUuODU4MTM5NSwzMC44ODI0NjU1IEwxNS43NDc1MzQsMzAuODE0NDYzOSBMMTUuNjYzNDE1NiwzMC43NDE4NDU3IEwxMi4xNjM0MTU2LDI3LjI0MTg0NTcgQzExLjg3MDUyMjQsMjYuOTQ4OTUyNSAxMS44NzA1MjI0LDI2LjQ3NDA3ODggMTIuMTYzNDE1NiwyNi4xODExODU2IEMxMi40Mjk2ODIxLDI1LjkxNDkxOSAxMi44NDYzNDU4LDI1Ljg5MDcxMyAxMy4xMzk5NTczLDI2LjEwODU2NzQgTDEzLjIyNDA3NTgsMjYuMTgxMTg1NiBMMTUuNDU1LDI4LjQxMiBMMTUuNDU1LDEyLjk5OSBMNC45NTUyNDE3OSwxMi45OTkgTDQuOTU1LDI4LjQ0NiBMNy4yMTk2Njk5MSwyNi4xODExODU2IEw3LjMwMzc4ODM1LDI2LjEwODU2NzQgQzcuNTk3Mzk5ODQsMjUuODkwNzEzIDguMDE0MDYzNTIsMjUuOTE0OTE5IDguMjgwMzMwMDksMjYuMTgxMTg1NiBDOC41NDY1OTY2NSwyNi40NDc0NTIxIDguNTcwODAyNywyNi44NjQxMTU4IDguMzUyOTQ4MjQsMjcuMTU3NzI3MyBMOC4yODAzMzAwOSwyNy4yNDE4NDU3IEw0Ljc4MDMzMDA5LDMwLjc0MTg0NTcgTDQuNjk2MjExNjUsMzAuODE0NDYzOSBMNC42ODksMzAuODE4IEM0LjY2MDg5NDQ3LDMwLjg0MDY2ODYgNC42MjM3OTY5LDMwLjg2MzM3MTEgNC41ODUzOTQ4MywzMC44ODI1NzEyIEw0LjUwODI1NTc1LDMwLjkxNTg0MDMgTDQuNDQxNjM1MDcsMzAuOTM2NzQ2MiBMNC4zNjc3NDA1OCwzMC45NTIyNzAxIEw0LjI3Nzc5ODQ0LDMwLjk2MTAwNTcgTDQuMjIyMTI2NDgsMzAuOTYxMDAwNyBMNC4wOTkwOTU0MywzMC45NDYyNjIxIEwzLjk5MTc2MDgzLDMwLjkxNTg0NjcgTDMuOTE0MzkzOCwzMC44ODI0NjU1IEwzLjgyNTU0MTg0LDMwLjgzMDAwOTQgTDMuODAzNzg4MzUsMzAuODE0NDYzOSBMMy43MTk2Njk5MSwzMC43NDE4NDU3IEwwLjIxOTY2OTkxNCwyNy4yNDE4NDU3IEMtMC4wNzMyMjMzMDQ3LDI2Ljk0ODk1MjUgLTAuMDczMjIzMzA0NywyNi40NzQwNzg4IDAuMjE5NjY5OTE0LDI2LjE4MTE4NTYgQzAuNDg1OTM2NDc3LDI1LjkxNDkxOSAwLjkwMjYwMDE1OSwyNS44OTA3MTMgMS4xOTYyMTE2NSwyNi4xMDg1Njc0IEwxLjI4MDMzMDA5LDI2LjE4MTE4NTYgTDMuNDU1LDI4LjM1NiBMMy40NTUyNDE3OSwxMi4yNSBDMy40NTUyNDE3OSwxMS44NzAzMDQyIDMuNzM3Mzk1NjgsMTEuNTU2NTA5IDQuMTAzNDcxMjQsMTEuNTA2ODQ2NiBMNC4yMDUyNDE3OSwxMS41IEwxNS40NTUsMTEuNTAyIEwxNS40NTUyNDE4LC0xLjQyMTA4NTQ3ZS0xMyBMMTYuOTU1MjQxOCwtMS40MjEwODU0N2UtMTMgTDE2Ljk1NSwxMS40OTUgTDI4LjE1NTUxNzEsMTEuNSBDMjguNTM1MTE0MywxMS41MDAxMzk0IDI4Ljg0ODc2MDMsMTEuNzgyMjY3NCAyOC44OTgzOTg1LDEyLjE0ODI1NDkgTDI4LjkwNTI0MTgsMTIuMjUgTDI4LjkwNSwyOC40NCBMMzEuMTY0MTk1NSwyNi4xODExODU2IEwzMS4yNDgzMTM5LDI2LjEwODU2NzQgQzMxLjU0MTkyNTQsMjUuODkwNzEzIDMxLjk1ODU4OTEsMjUuOTE0OTE5IDMyLjIyNDg1NTcsMjYuMTgxMTg1NiBDMzIuNDkxMTIyMiwyNi40NDc0NTIxIDMyLjUxNTMyODMsMjYuODY0MTE1OCAzMi4yOTc0NzM4LDI3LjE1NzcyNzMgTDMyLjIyNDg1NTcsMjcuMjQxODQ1NyBMMjguNzI0ODU1NywzMC43NDE4NDU3IEMyOC42ODQ1Mzg2LDMwLjc4MjE2MjggMjguNjQwNzczNCwzMC44MTY5MzAyIDI4LjU5NDUwOTQsMzAuODQ2MTQ3OCBMMjguNTMyODQ2OSwzMC44ODExIEwyOC40MjY4MDI3LDMwLjkyNDgwODkgTDI4LjMxMTI3MzMsMzAuOTUyNDI2NCBMMjguMTg4NzA5MiwzMC45NjE1MTU3IEwyOC4xMDg3MjMxLDMwLjk1NjYxODkgTDI4LjAzNTI3MTQsMzAuOTQ0NTA1OCBMMjcuOTI3NzQwMSwzMC45MTI2NjAzIEwyNy44OTIwNjA0LDMwLjg5ODA0MzMgTDI3Ljg1NjgxNDEsMzAuODgxNDA3OSBDMjcuODM1MTYwNiwzMC44NzA0NjI2IDI3LjgxNDUxMzYsMzAuODU4NzY5OCAyNy43OTQzNDIxLDMwLjg0NjAyMTcgQzI3Ljc0ODI3NzcsMzAuODE2OTMwMiAyNy43MDQ1MTI2LDMwLjc4MjE2MjggMjcuNjY0MTk1NSwzMC43NDE4NDU3IEwyNC4xNjQxOTU1LDI3LjI0MTg0NTcgQzIzLjg3MTMwMjMsMjYuOTQ4OTUyNSAyMy44NzEzMDIzLDI2LjQ3NDA3ODggMjQuMTY0MTk1NSwyNi4xODExODU2IEMyNC40MzA0NjIxLDI1LjkxNDkxOSAyNC44NDcxMjU4LDI1Ljg5MDcxMyAyNS4xNDA3MzcyLDI2LjEwODU2NzQgTDI1LjIyNDg1NTcsMjYuMTgxMTg1NiBMMjcuNDA1LDI4LjM2MiBMMjcuNDA1MjQxOCwxMi45OTkgTDE2Ljk1NSwxMi45OTIgTDE2Ljk1NSwyOC4zODkgTDE5LjE2MzQxNTYsMjYuMTgxMTg1NiBMMTkuMjQ3NTM0LDI2LjEwODU2NzQgQzE5LjU0MTE0NTUsMjUuODkwNzEzIDE5Ljk1NzgwOTIsMjUuOTE0OTE5IDIwLjIyNDA3NTgsMjYuMTgxMTg1NiBDMjAuNDkwMzQyMywyNi40NDc0NTIxIDIwLjUxNDU0ODQsMjYuODY0MTE1OCAyMC4yOTY2OTM5LDI3LjE1NzcyNzMgTDIwLjIyNDA3NTgsMjcuMjQxODQ1NyBMMTYuNzI0MDc1OCwzMC43NDE4NDU3IEwxNi42Mzk5NTczLDMwLjgxNDQ2MzkgTDE2LjYzNiwzMC44MTYgTDE2LjU4OTEzNiwzMC44NDkwMjU1IEwxNi41MzMwNDEzLDMwLjg4MDYwNjYgTDE2LjQyNjAyMjgsMzAuOTI0ODA4OSBMMTYuMzUzMjcyOSwzMC45NDQ0NDY3IEwxNi4yNzk1MzMzLDMwLjk1NjYyNTUgTDE2LjE5OTU2MiwzMC45NjE1MTU3IFoiLz4mI3hhOzwvZz4mI3hhOzwvZz4mI3hhOzxnIGlkPSJpY29uLWZsb3ctc3VjY2VlZCIgZmlsbC1ydWxlPSJldmVub2RkIiBmaWxsPSJub25lIiBzdHJva2Utd2lkdGg9IjEiIHN0cm9rZT0ibm9uZSI+JiN4YTs8ZyBmaWxsLXJ1bGU9Im5vbnplcm8iIGZpbGw9IiMyQUI1MTIiIHRyYW5zZm9ybT0idHJhbnNsYXRlKDExLjI1MDAwMCwgMTIuMjUwMDAwKSI+JiN4YTs8cGF0aCBkPSJNMTIuNzUsMCBDNS43MDgzNjk0NCwwIDAsNS43MDgzNjk0NCAwLDEyLjc1IEMwLDE5Ljc5MTYzMDYgNS43MDgzNjk0NCwyNS41IDEyLjc1LDI1LjUgQzE5Ljc5MTYzMDYsMjUuNSAyNS41LDE5Ljc5MTYzMDYgMjUuNSwxMi43NSBDMjUuNSw1LjcwODM2OTQ0IDE5Ljc5MTYzMDYsMCAxMi43NSwwIFogTTEyLjc1LDEuNSBDMTguOTYzMjAzNCwxLjUgMjQsNi41MzY3OTY1NiAyNCwxMi43NSBDMjQsMTguOTYzMjAzNCAxOC45NjMyMDM0LDI0IDEyLjc1LDI0IEM2LjUzNjc5NjU2LDI0IDEuNSwxOC45NjMyMDM0IDEuNSwxMi43NSBDMS41LDYuNTM2Nzk2NTYgNi41MzY3OTY1NiwxLjUgMTIuNzUsMS41IFoiLz4mI3hhOzxwYXRoIGQ9Ik0xNy40ODIxNTEsOS4zOTEyMzYxIEMxNy43NzUwNDQyLDkuMDk4MzQyODggMTguMjQ5OTE3OSw5LjA5ODM0Mjg4IDE4LjU0MjgxMTEsOS4zOTEyMzYxIEMxOC44MDkwNzc3LDkuNjU3NTAyNjYgMTguODMzMjgzOCwxMC4wNzQxNjYzIDE4LjYxNTQyOTMsMTAuMzY3Nzc3OCBMMTguNTQyODExMSwxMC40NTE4OTYzIEwxMS4xNTgxOTU4LDE3LjgzNjUxMTcgQzEwLjkwMTM0MjcsMTguMDkzMzY0NyAxMC41MDMwMDM4LDE4LjEyNTgyNDMgMTAuMjEwNDI5NCwxNy45MjkzOTU5IEwxMC4xMTcxNjA5LDE3Ljg1NTQzNjIgTDYuOTgyNTMyMjUsMTQuOTQwODE0MyBDNi42NzkxODcyOCwxNC42NTg3NTk5IDYuNjYxOTI3ODksMTQuMTg0MTk5OSA2Ljk0Mzk4MjMyLDEzLjg4MDg1NDkgQzcuMjAwMzk1NDQsMTMuNjA1MDg2OCA3LjYxNTkwNDA1LDEzLjU2NTc1MyA3LjkxNzIzOTUzLDEzLjc3Mjc5MjEgTDguMDAzOTQxNywxMy44NDIzMDUgTDEwLjYwOCwxNi4yNjQgTDE3LjQ4MjE1MSw5LjM5MTIzNjEgWiIvPiYjeGE7PC9nPiYjeGE7PC9nPiYjeGE7PGcgaWQ9Imljb24tc2VydmljZS1kZGIiIGZpbGwtcnVsZT0iZXZlbm9kZCIgZmlsbD0ibm9uZSIgc3Ryb2tlLXdpZHRoPSIxIiBzdHJva2U9Im5vbmUiPiYjeGE7PHBvbHlnb24gcG9pbnRzPSIwIDAgNDggMCA0OCA0OCAwIDQ4IiBmaWxsLXJ1bGU9Im5vbnplcm8iIGZpbGw9InVybCgjZ3JhZGllbnQtYmx1ZSkiLz4mI3hhOzxwYXRoIGZpbGw9IiNGRkZGRkYiIGQ9Ik0zNC41ODEwMjg3LDE5LjU5NDc1NTYgTDMyLjE5MTA0MTIsMTkuNTk0NzU1NiBDMzEuOTcyMzc1NywxOS41OTQ3NTU2IDMxLjc2NzcxMDEsMTkuNDg2MjUzNCAzMS42NDMwNDQxLDE5LjMwNDk2NzEgQzMxLjUxODM3ODEsMTkuMTIzMDA2OSAzMS40ODk3MTE2LDE4Ljg5MTE3NjIgMzEuNTY3MDQ0NSwxOC42ODQyODA3IEwzMy4yMjkwMzU4LDE0LjIwMzM0MjEgTDI3LjI4NzA2NywxNC4yMDMzNDIxIEwyNC41NTk3NDgsMjAuMjY4NjgyMyBMMjcuNTI0Mzk5MSwyMC4yNjg2ODIzIEMyNy43MzgzOTgsMjAuMjY4NjgyMyAyNy45Mzk3MzAyLDIwLjM3MjQ2NyAyOC4wNjU3Mjk2LDIwLjU0OTAzNTggQzI4LjE5MDM5NTYsMjAuNzI0MjU2OCAyOC4yMjUwNjIxLDIwLjk1MDAyMjIgMjguMTU2Mzk1OCwyMS4xNTU1Njk5IEwyNS43MTY0MDg2LDI4LjU1NTk1ODkgTDM0LjU4MTAyODcsMTkuNTk0NzU1NiBaIE0zNi42NjE2ODQ0LDE5LjM5NzI5NTEgTDI0LjY2MjQxNDEsMzEuNTI3OTc1NiBDMjQuNTM0NDE0OCwzMS42NTgwNDM1IDI0LjM2MzA4MjQsMzEuNzI1NDM2MSAyNC4xOTEwODMzLDMxLjcyNTQzNjEgQzI0LjA2OTc1MDYsMzEuNzI1NDM2MSAyMy45NDkwODQ1LDMxLjY5MjQxMzcgMjMuODQxMDg1MSwzMS42MjUwMjExIEMyMy41Nzc3NTMyLDMxLjQ2MDU4MjkgMjMuNDYwNDIwNCwzMS4xMzUwNzY0IDIzLjU1OTA4NjYsMzAuODM4NTQ4NiBMMjYuNTk5MDcwNiwyMS42MTY1MzU3IEwyMy41MjQ0MjAxLDIxLjYxNjUzNTcgQzIzLjI5Nzc1NDYsMjEuNjE2NTM1NyAyMy4wODcwODkxLDIxLjQ5OTk0NjQgMjIuOTYzNzU2NCwyMS4zMDc4NzczIEMyMi44NDE3NTcsMjEuMTE0NDYwMyAyMi44MjM3NTcxLDIwLjg3MjUyMDYgMjIuOTE3NzU2NiwyMC42NjM2MDM0IEwyNi4yNTEwNzI0LDEzLjI1MDQwOTcgQzI2LjM1OTA3MTksMTMuMDA5ODE3OSAyNi41OTU3MzczLDEyLjg1NTQ4ODcgMjYuODU3NzM1OSwxMi44NTU0ODg3IEwzNC4xOTEwMzA3LDEyLjg1NTQ4ODcgQzM0LjQwOTY5NjIsMTIuODU1NDg4NyAzNC42MTQzNjE4LDEyLjk2Mzk5MDkgMzQuNzM5MDI3OCwxMy4xNDUyNzcyIEMzNC44NjM2OTM4LDEzLjMyNzIzNzQgMzQuODkyMzYwMywxMy41NTkwNjgxIDM0LjgxNTY5NDEsMTMuNzY1OTYzNiBMMzMuMTUzMDM2MiwxOC4yNDY5MDIyIEwzNi4xOTAzNTM1LDE4LjI0NjkwMjIgQzM2LjQ1OTY4NTQsMTguMjQ2OTAyMiAzNi43MDM2ODQyLDE4LjQxMTM0MDMgMzYuODA2MzUwMywxOC42NjI3MTUgQzM2LjkwOTY4MzEsMTguOTE0NzYzNiAzNi44NTIzNSwxOS4yMDQ1NTIxIDM2LjY2MTY4NDQsMTkuMzk3Mjk1MSBMMzYuNjYxNjg0NCwxOS4zOTcyOTUxIFogTTMwLjg1NzcxNDksMzIuMjQxNjY0IEMyOS4wNTEwNTc3LDMzLjQ5OTIxMTIgMjUuNzMzMDc1MiwzNC4xNjMwMjkgMjIuNTQ1NzU4NiwzNC4xNjMwMjkgQzE5LjMzNTEwODgsMzQuMTYzMDI5IDE1Ljk4Nzc5MzEsMzMuNDkwNDUwMiAxNC4xOTA0NjkyLDMyLjIxNDAzMyBMMTQuMTkxMTM1OCwzNC43NTgxMDYzIEMxNC4xOTExMzU4LDM1Ljg2NzM4OTYgMTcuMzY5Nzg1OCwzNy40MTQwNTE0IDIyLjU0NTc1ODYsMzcuNDE0MDUxNCBDMjcuNTQyMzk5LDM3LjQxNDA1MTQgMzAuODU3NzE0OSwzNS42MTI2NDUzIDMwLjg1NzcxNDksMzQuNDIxMTQyOSBMMzAuODU3NzE0OSwzMi4yNDE2NjQgWiBNMzIuMjMzNzA3NywzMC4wNjIxODUxIEMzMi4yMzM3MDc3LDMwLjE4Njg2MTUgMzIuMjEyMzc0NCwzMC4zMDY4MjA0IDMyLjE5MTA0MTIsMzAuNDI2MTA1NSBMMzIuMTkxMDQxMiwzNC40MjExNDI5IEMzMi4xOTEwNDEyLDM2LjgxNDkzMDUgMjcuODY0Mzk3MywzOC43NjE5MDQ4IDIyLjU0NTc1ODYsMzguNzYxOTA0OCBDMTcuOTQzNzgyOCwzOC43NjE5MDQ4IDEzLjI5ODQ3MzksMzcuNTAyMzM1OCAxMi44OTcxNDI2LDM1LjA5NTA2OTYgTDEyLjg1NzgwOTUsMzUuMDk1MDY5NiBMMTIuODU3MTQyOSwzMS43MjU0MzYxIEwxMi44NTcxNDI5LDIyLjk2NDM4OTEgTDEyLjg1NzE0MjksMTMuNTI5NDE1NCBMMTIuODU3ODA5NSwxMy41Mjk0MTU0IEMxMi44NTc4MDk1LDEwLjg2NTM4MzEgMTcuODQ5MTE2Niw5LjQyODU3MTQzIDIyLjU0NTc1ODYsOS40Mjg1NzE0MyBDMjUuMTczMDc4MSw5LjQyODU3MTQzIDI3LjY5OTA2NDgsOS44NTUxNjcwMyAyOS40NzcwNTU1LDEwLjU5OTE4MjEgTDI4Ljk2NjM5MTUsMTEuODQ0NTk4NiBDMjcuMzQ1MDY2NywxMS4xNjUyODA1IDI1LjAwNDQxMjMsMTAuNzc2NDI0OCAyMi41NDU3NTg2LDEwLjc3NjQyNDggQzE3LjM2OTc4NTgsMTAuNzc2NDI0OCAxNC4xOTExMzU4LDEyLjM3OTY5NjQgMTQuMTkxMTM1OCwxMy41Mjk0MTU0IEMxNC4xOTExMzU4LDE0LjY3OTEzNDMgMTcuMzY5Nzg1OCwxNi4yODI0MDU5IDIyLjU0NTc1ODYsMTYuMjgyNDA1OSBDMjIuNjc1NzU3OSwxNi4yODI0MDU5IDIyLjgxMTc1NzIsMTYuMjgzMDc5OCAyMi45NDMwODk4LDE2LjI3NzY4ODQgTDIyLjk5NTA4OTYsMTcuNjI0MTk0IEMyMi44NDUwOTAzLDE3LjYzMDI1OTMgMjIuNjk1NzU3OCwxNy42MzAyNTkzIDIyLjU0NTc1ODYsMTcuNjMwMjU5MyBDMTkuMzM0NDQyMSwxNy42MzAyNTkzIDE1Ljk4Nzc5MzEsMTYuOTU3NjgwNSAxNC4xOTA0NjkyLDE1LjY4MTI2MzMgTDE0LjE5MDQ2OTIsMTguNTg2NTYxMyBMMTQuMTkxMTM1OCwxOC41ODY1NjEzIEwxNC4xOTExMzU4LDE4LjU5ODAxOCBDMTQuMTk0NDY5MiwxOC45NTExNTU2IDE0LjUxNzEzNDEsMTkuMzYwMjI5MSAxNS4xMDA0NjQ0LDE5Ljc0NDM2NzQgQzE2LjQyMTc5MDgsMjAuNjAyOTUgMTguODAwNDQ0OSwyMS4xODk5NDAxIDIxLjQ1OTc2NDMsMjEuMzExOTIwOCBMMjEuMzk5MDk4LDIyLjY1ODQyNjQgQzE4LjY0ODQ0NTcsMjIuNTMxNzI4MiAxNi4yMzI0NTg0LDIxLjk0NjA4NTkgMTQuNjc1MTMzMywyMS4wNDc3NDE2IEMxNC40Njg0Njc3LDIxLjI0NjU1IDE0LjE5MTEzNTgsMjEuNzUxOTk1IDE0LjE5MTEzNTgsMjIuMDI1NjA5MiBDMTQuMTkxMTM1OCwyMy4xNzUzMjgyIDE3LjM2OTc4NTgsMjQuNzc4NTk5OCAyMi41NDU3NTg2LDI0Ljc3ODU5OTggQzIzLjAzNzc1NiwyNC43Nzg1OTk4IDIzLjUyMjQyMDEsMjQuNzYxNzUxNiAyMy45ODcwODQzLDI0LjcyODcyOTIgTDI0LjA4MTA4MzksMjYuMDczMjEyOSBDMjMuNTg1MDg2NSwyNi4xMDg5MzExIDIzLjA2ODQyMjUsMjYuMTI2NDUzMiAyMi41NDU3NTg2LDI2LjEyNjQ1MzIgQzE5LjMzNDQ0MjEsMjYuMTI2NDUzMiAxNS45ODc3OTMxLDI1LjQ1Mzg3NDMgMTQuMTkwNDY5MiwyNC4xNzc0NTcyIEwxNC4xOTA0NjkyLDI2LjYyMzgxMTEgTDE0LjE5MTEzNTgsMjYuNjIzODExMSBDMTQuMTk0NDY5MiwyNi45ODg0MDU0IDE0LjUxNzEzNDEsMjcuMzk3NDc4OSAxNS4xMDA0NjQ0LDI3Ljc4MTYxNzEgQzE2LjYxMjQ1NjQsMjguNzY0ODc2MiAxOS40NjY0NDE0LDI5LjM3NzQ3NTUgMjIuNTQ1NzU4NiwyOS4zNzc0NzU1IEwyMi43NjU3NTc0LDI5LjM3NzQ3NTUgTDIyLjc2NTc1NzQsMzAuNzI1MzI4OSBMMjIuNTQ1NzU4NiwzMC43MjUzMjg5IEMxOS4zNjA0NDIsMzAuNzI1MzI4OSAxNS45NzI0NTk4LDMwLjA1MzQyNCAxNC4xOTExMzU4LDI5LjAyOTcyOTQgQzEzLjk3NjQ3MDMsMjkuMjI4NTM3NyAxNC4xOTExMzU4LDI5LjcwMzY1NjEgMTQuMTkxMTM1OCwzMC4wNjIxODUxIEMxNC4xOTExMzU4LDMxLjIxMTkwNCAxNy4zNjk3ODU4LDMyLjgxNTE3NTYgMjIuNTQ1NzU4NiwzMi44MTUxNzU2IEMyNy43MjIzOTgsMzIuODE1MTc1NiAzMC45MDAzODEzLDMxLjIxMTkwNCAzMC45MDAzODEzLDMwLjA2MjE4NTEgQzMwLjkwMDM4MTMsMjkuNjU1ODA3MyAzMC41MDEwNTAxLDI5LjI3OTA4MjIgMzAuMTcyMzg1MiwyOS4wMzY0Njg2IEMyOS44OTk3MTk5LDI5LjIwMDkwNjcgMjkuNTk5NzIxNSwyOS4zNTg2MDU2IDI5LjI1NzcyMzMsMjkuNTAyODI1OSBMMjguNzQ1NzI2LDI4LjI1ODA4MzMgQzI5LjA5OTcyNDEsMjguMTA5MTQ1NSAyOS40MDU3MjI1LDI3Ljk0OTQyNDkgMjkuNjU1MDU0NSwyNy43ODM2Mzg5IEMzMC4zODkwNTA3LDI3LjI5NDM2ODEgMzAuODU3NzE0OSwyNi41OTgyMDE4IDMwLjg1NzcxNDksMjYuMzM0MDIyNiBMMzIuMTkxMDQxMiwyNi4zMzQwMjI2IEMzMi4xOTEwNDEyLDI2Ljk2MDc3NDQgMzEuNzc3MDQzNCwyNy42MzIwMDU0IDMxLjI0NjM3OTUsMjguMTgzOTUxNCBDMzIuMDQxMDQyLDI4Ljg3NzQyMTkgMzIuMjMzNzA3NywyOS41Njk1NDQ2IDMyLjIzMzcwNzcsMzAuMDYyMTg1MSBMMzIuMjMzNzA3NywzMC4wNjIxODUxIFogTTE0Ljk1MTc5ODUsMzUuMDIwOTM3NyBDMTUuNDc5MTI5MSwzNS4yOTMyMDQxIDE2LjA5NTc5MjUsMzUuNTM1ODE3NyAxNi43ODY0NTU1LDM1Ljc0MTM2NTMgTDE3LjE2MjQ1MzYsMzQuNDQ4MSBDMTYuNTUxNzkwMSwzNC4yNjY4MTM3IDE2LjAxMTc5MjksMzQuMDU1MjAwNyAxNS41NTg0NjIsMzMuODIwNjc0MiBMMTQuOTUxNzk4NSwzNS4wMjA5Mzc3IFogTTE2Ljc4NjQ1NTUsMjcuNjU0MjQ1IEwxNy4xNjI0NTM2LDI2LjM2MTY1MzYgQzE2LjU1MTc5MDEsMjYuMTc5NjkzNCAxNi4wMTE3OTI5LDI1Ljk2ODc1NDMgMTUuNTU4NDYyLDI1LjczNDIyNzggTDE0Ljk1MTc5ODUsMjYuOTMzODE3MyBDMTUuNDc5MTI5MSwyNy4yMDY3NTc2IDE2LjA5NTc5MjUsMjcuNDQ4Njk3MyAxNi43ODY0NTU1LDI3LjY1NDI0NSBMMTYuNzg2NDU1NSwyNy42NTQyNDUgWiBNMTQuOTUxNzk4NSwxOC44NDczNzA5IEwxNS41NTg0NjIsMTcuNjQ3MTA3NSBDMTYuMDExNzkyOSwxNy44ODE2MzQgMTYuNTUxNzkwMSwxOC4wOTI1NzMgMTcuMTYyNDUzNiwxOC4yNzQ1MzMyIEwxNi43ODY0NTU1LDE5LjU2Nzc5ODYgQzE2LjA5NTc5MjUsMTkuMzYyMjUwOSAxNS40NzkxMjkxLDE5LjExOTYzNzMgMTQuOTUxNzk4NSwxOC44NDczNzA5IEwxNC45NTE3OTg1LDE4Ljg0NzM3MDkgWiIvPiYjeGE7PC9nPiYjeGE7PGcgdHJhbnNmb3JtPSJ0cmFuc2xhdGUoNSw3KSIgaWQ9Imljb24tc2VydmljZS1odHRwIiBmaWxsLXJ1bGU9ImV2ZW5vZGQiIGZpbGw9Im5vbmUiIHN0cm9rZS13aWR0aD0iMSIgc3Ryb2tlPSJub25lIj4mI3hhOzxwYXRoIHN0cm9rZS1saW5lam9pbj0icm91bmQiIHN0cm9rZS13aWR0aD0iMS41IiBzdHJva2U9IiMwMDczQkIiIGQ9Ik01Ljk2Mzk2IDEzLjY4ODFDNS45NjM5NiAxMC4zOTQ1IDguMTc2ODcgNi42MDEyMyAxMS4zMzc1IDUuMjQ5QzE1LjM5NTkgMy41MTExIDE5LjEwNDIgNC44MjkyMiAyMS41NDM5IDcuMzA0MzhDMjIuNjczIDguNDQ4NDggMjMuNTAyMSA5Ljg5MDA3IDI0LjA0OTggMTEuNDU3NUMyNi4xMTYyIDguNjI3MjEgMzAuNzQwOSA5LjUxNDk4IDMxLjA4MzkgMTQuNjQwNUwzMS4wNzIzIDE0LjcxMzRDMzMuMTc1OSAxNS4wNzkxIDM2Ljg4MTkgMTYuNTgwNiAzNi44ODE5IDIxLjI4NTJDMzYuODgxOSAyNy4zNjY3IDMwLjkxMTggMjcuODU3IDMwLjkxMTggMjcuODU3TDcuNzIzMzYgMjcuODMyM0M0LjQwMjI1IDI3LjgyODggMS40NjM3MiAyNS4zNTg0IDEuMTUzMjQgMjIuMDEzMUMxLjEyOTk4IDIxLjc2MjYgMS4xMTcxOSAyMS41MDA0IDEuMTE3MTkgMjEuMjI4OEMxLjExNzE5IDE3LjIwODYgMy43MjA4MiAxNS40MjgzIDYuMDMxNCAxNC44Mjk4QzUuOTg3MjIgMTQuNDU4MiA1Ljk2Mzk2IDE0LjA3NjEgNS45NjM5NiAxMy42ODgxWiIgY2xpcC1ydWxlPSJldmVub2RkIiBmaWxsLXJ1bGU9ImV2ZW5vZGQiLz4mI3hhOzxwYXRoIGZpbGw9IiMwMDczQkIiIGQ9Ik0xNS40NjQgMjJMMTUuMDIzIDIwLjU3OEgxMi44OUwxMi40NjcgMjJIMTEuMDU0TDEzLjI1IDE1Ljc2M0gxNC43MzVMMTYuOTMxIDIySDE1LjQ2NFpNMTMuMTc4IDE5LjYwNkgxNC43NDRMMTMuOTUyIDE2Ljk5NkwxMy4xNzggMTkuNjA2Wk0xOS4wMTk0IDE5LjcyM1YyMkgxNy43MDU0VjE1Ljc2M0gyMC4wOTA0QzIwLjczODQgMTUuNzYzIDIxLjI1MTQgMTUuOTQgMjEuNjI5NCAxNi4yOTRDMjIuMDA3NCAxNi42NDggMjIuMTk2NCAxNy4xMzEgMjIuMTk2NCAxNy43NDNDMjIuMTk2NCAxOC4zNTUgMjIuMDA3NCAxOC44MzggMjEuNjI5NCAxOS4xOTJDMjEuMjUxNCAxOS41NDYgMjAuNzM4NCAxOS43MjMgMjAuMDkwNCAxOS43MjNIMTkuMDE5NFpNMTkuMDE5NCAxOC43MTVIMTkuOTM3NEMyMC4yMzc0IDE4LjcxNSAyMC40NjU0IDE4LjYzNCAyMC42MjE0IDE4LjQ3MkMyMC43ODM0IDE4LjMwNCAyMC44NjQ0IDE4LjA2MSAyMC44NjQ0IDE3Ljc0M0MyMC44NjQ0IDE3LjQyNSAyMC43ODM0IDE3LjE4NSAyMC42MjE0IDE3LjAyM0MyMC40NjU0IDE2Ljg1NSAyMC4yMzc0IDE2Ljc3MSAxOS45Mzc0IDE2Ljc3MUgxOS4wMTk0VjE4LjcxNVpNMjMuMzEzNiAyMlYxNS43NjNIMjQuNjYzNlYyMkgyMy4zMTM2WiIvPiYjeGE7PHBhdGggZmlsbD0iI0ZBRkFGQSIgZD0iTTcuODIzNTMgMTMuOTI4N0gwVjIzLjk1NzNINy44MjM1M1YxMy45Mjg3WiIvPiYjeGE7PHBhdGggZmlsbD0iIzAwNzNCQiIgZD0iTS0xIDE4LjM4NTRMNi40NjgxMiAxOC4zODY0TDQuMDI5NDEgMTYuMTU2OUw0Ljk5MzExIDE1LjM2ODlMOS4yOTAzIDE5LjI2ODlMNC45OTMxMSAyMy4xNjg5TDQuMDI5NDEgMjIuMjg1NEw2LjQ2ODEyIDIwLjA1NzlMLTEgMjAuMDU2OUwtMSAxOC4zODU0WiIvPiYjeGE7PC9nPiYjeGE7PGcgaWQ9Imljb24tc2VydmljZS1hbWF6b25iZWRyb2NrIiBmaWxsLXJ1bGU9ImV2ZW5vZGQiIGZpbGw9Im5vbmUiIHN0cm9rZS13aWR0aD0iMC4zIiBzdHJva2U9Im5vbmUiPiYjeGE7PHBvbHlnb24gcG9pbnRzPSIwIDAgNDggMCA0OCA0OCAwIDQ4IiBmaWxsLXJ1bGU9Im5vbnplcm8iIGZpbGw9InVybCgjZ3JhZGllbnQtdHVycXVvaXNlKSIvPiYjeGE7PGcgdHJhbnNmb3JtPSJ0cmFuc2xhdGUoMTAuMjAwMDAwLCA5LjUwMDAwMCkgc2NhbGUoMS44NSkiPiYjeGE7PHBhdGggZmlsbD0iI0ZGRkZGRiIgZD0iTTgsMTQuMTM5NzAxNCBMNS41NzQsMTQuOTQ4NzAxNCBMNC42MjgsMTQuMzE3NzAxNCBMNS42NTgsMTMuOTczNzAxNCBMNS4zNDIsMTMuMDI1NzAxNCBMMy41NzQsMTMuNjE0NzAxNCBMMywxMy4yMzI3MDE0IEwzLDEwLjQ5OTcwMTQgQzMsMTAuMzEwNzAxNCAyLjg5MywxMC4xMzc3MDE0IDIuNzI0LDEwLjA1MjcwMTQgTDEsOS4xOTA3MDEzNiBMMSw2LjgwODcwMTM2IEwyLjUsNi4wNTg3MDEzNiBMNCw2LjgwODcwMTM2IEw0LDguNDk5NzAxMzYgQzQsOC42ODk3MDEzNiA0LjEwNyw4Ljg2MjcwMTM2IDQuMjc2LDguOTQ3NzAxMzYgTDYuMjc2LDkuOTQ3NzAxMzYgTDYuNzI0LDkuMDUyNzAxMzYgTDUsOC4xOTA3MDEzNiBMNSw2LjgwODcwMTM2IEw2LjcyNCw1Ljk0NzcwMTM2IEM2Ljg5Myw1Ljg2MjcwMTM2IDcsNS42ODk3MDEzNiA3LDUuNDk5NzAxMzYgTDcsMy45OTk3MDEzNiBMNiwzLjk5OTcwMTM2IEw2LDUuMTkwNzAxMzYgTDQuNSw1Ljk0MDcwMTM2IEwzLDUuMTkwNzAxMzYgTDMsMi43Njc3MDEzNiBMNCwyLjEwMDcwMTM2IEw0LDMuOTk5NzAxMzYgTDUsMy45OTk3MDEzNiBMNSwxLjQzNDcwMTM2IEw1LjU3NCwxLjA1MTcwMTM2IEw4LDEuODYwNzAxMzYgTDgsMTQuMTM5NzAxNCBaIE0xMy41LDEyLjk5OTcwMTQgQzEzLjc3NSwxMi45OTk3MDE0IDE0LDEzLjIyMzcwMTQgMTQsMTMuNDk5NzAxNCBDMTQsMTMuNzc1NzAxNCAxMy43NzUsMTMuOTk5NzAxNCAxMy41LDEzLjk5OTcwMTQgQzEzLjIyNSwxMy45OTk3MDE0IDEzLDEzLjc3NTcwMTQgMTMsMTMuNDk5NzAxNCBDMTMsMTMuMjIzNzAxNCAxMy4yMjUsMTIuOTk5NzAxNCAxMy41LDEyLjk5OTcwMTQgTDEzLjUsMTIuOTk5NzAxNCBaIE0xMi41LDEuOTk5NzAxMzYgQzEyLjc3NSwxLjk5OTcwMTM2IDEzLDIuMjIzNzAxMzYgMTMsMi40OTk3MDEzNiBDMTMsMi43NzU3MDEzNiAxMi43NzUsMi45OTk3MDEzNiAxMi41LDIuOTk5NzAxMzYgQzEyLjIyNSwyLjk5OTcwMTM2IDEyLDIuNzc1NzAxMzYgMTIsMi40OTk3MDEzNiBDMTIsMi4yMjM3MDEzNiAxMi4yMjUsMS45OTk3MDEzNiAxMi41LDEuOTk5NzAxMzYgTDEyLjUsMS45OTk3MDEzNiBaIE0xNC41LDcuOTk5NzAxMzYgQzE0Ljc3NSw3Ljk5OTcwMTM2IDE1LDguMjIzNzAxMzYgMTUsOC40OTk3MDEzNiBDMTUsOC43NzU3MDEzNiAxNC43NzUsOC45OTk3MDEzNiAxNC41LDguOTk5NzAxMzYgQzE0LjIyNSw4Ljk5OTcwMTM2IDE0LDguNzc1NzAxMzYgMTQsOC40OTk3MDEzNiBDMTQsOC4yMjM3MDEzNiAxNC4yMjUsNy45OTk3MDEzNiAxNC41LDcuOTk5NzAxMzYgTDE0LjUsNy45OTk3MDEzNiBaIE0xMy4wOTIsOC45OTk3MDEzNiBDMTMuMjk5LDkuNTgwNzAxMzYgMTMuODQ5LDkuOTk5NzAxMzYgMTQuNSw5Ljk5OTcwMTM2IEMxNS4zMjcsOS45OTk3MDEzNiAxNiw5LjMyNzcwMTM2IDE2LDguNDk5NzAxMzYgQzE2LDcuNjcyNzAxMzYgMTUuMzI3LDYuOTk5NzAxMzYgMTQuNSw2Ljk5OTcwMTM2IEMxMy44NDksNi45OTk3MDEzNiAxMy4yOTksNy40MTk3MDEzNiAxMy4wOTIsNy45OTk3MDEzNiBMOSw3Ljk5OTcwMTM2IEw5LDUuOTk5NzAxMzYgTDEyLjUsNS45OTk3MDEzNiBDMTIuNzc2LDUuOTk5NzAxMzYgMTMsNS43NzY3MDEzNiAxMyw1LjQ5OTcwMTM2IEwxMywzLjkwNzcwMTM2IEMxMy41ODEsMy43MDA3MDEzNiAxNCwzLjE1MDcwMTM2IDE0LDIuNDk5NzAxMzYgQzE0LDEuNjcyNzAxMzYgMTMuMzI3LDAuOTk5NzAxMzYyIDEyLjUsMC45OTk3MDEzNjIgQzExLjY3MywwLjk5OTcwMTM2MiAxMSwxLjY3MjcwMTM2IDExLDIuNDk5NzAxMzYgQzExLDMuMTUwNzAxMzYgMTEuNDE5LDMuNzAwNzAxMzYgMTIsMy45MDc3MDEzNiBMMTIsNC45OTk3MDEzNiBMOSw0Ljk5OTcwMTM2IEw5LDEuNDk5NzAxMzYgQzksMS4yODQ3MDEzNiA4Ljg2MiwxLjA5MzcwMTM2IDguNjU4LDEuMDI1NzAxMzYgTDUuNjU4LDAuMDI1NzAxMzYyMiBDNS41MTEsLTAuMDIzMjk4NjM3OCA1LjM1MSwtMC4wMDEyOTg2Mzc3NiA1LjIyMywwLjA4MzcwMTM2MjIgTDIuMjIzLDIuMDgzNzAxMzYgQzIuMDg0LDIuMTc2NzAxMzYgMiwyLjMzMjcwMTM2IDIsMi40OTk3MDEzNiBMMiw1LjE5MDcwMTM2IEwwLjI3Niw2LjA1MjcwMTM2IEMwLjEwNyw2LjEzNzcwMTM2IDAsNi4zMTA3MDEzNiAwLDYuNDk5NzAxMzYgTDAsOS40OTk3MDEzNiBDMCw5LjY4OTcwMTM2IDAuMTA3LDkuODYyNzAxMzYgMC4yNzYsOS45NDc3MDEzNiBMMiwxMC44MDg3MDE0IEwyLDEzLjQ5OTcwMTQgQzIsMTMuNjY2NzAxNCAyLjA4NCwxMy44MjM3MDE0IDIuMjIzLDEzLjkxNTcwMTQgTDUuMjIzLDE1LjkxNTcwMTQgQzUuMzA2LDE1Ljk3MTcwMTQgNS40MDIsMTUuOTk5NzAxNCA1LjUsMTUuOTk5NzAxNCBDNS41NTMsMTUuOTk5NzAxNCA1LjYwNiwxNS45OTE3MDE0IDUuNjU4LDE1Ljk3MzcwMTQgTDguNjU4LDE0Ljk3MzcwMTQgQzguODYyLDE0LjkwNjcwMTQgOSwxNC43MTU3MDE0IDksMTQuNDk5NzAxNCBMOSwxMS45OTk3MDE0IEwxMS4yOTMsMTEuOTk5NzAxNCBMMTIuMTQ2LDEyLjg1MzcwMTQgTDEyLjE1OSwxMi44NDA3MDE0IEMxMi4wNjEsMTMuMDQwNzAxNCAxMiwxMy4yNjI3MDE0IDEyLDEzLjQ5OTcwMTQgQzEyLDE0LjMyNjcwMTQgMTIuNjczLDE0Ljk5OTcwMTQgMTMuNSwxNC45OTk3MDE0IEMxNC4zMjcsMTQuOTk5NzAxNCAxNSwxNC4zMjY3MDE0IDE1LDEzLjQ5OTcwMTQgQzE1LDEyLjY3MjcwMTQgMTQuMzI3LDExLjk5OTcwMTQgMTMuNSwxMS45OTk3MDE0IEMxMy4yNjIsMTEuOTk5NzAxNCAxMy4wNCwxMi4wNjA3MDE0IDEyLjg0MSwxMi4xNTk3MDE0IEwxMi44NTQsMTIuMTQ2NzAxNCBMMTEuODU0LDExLjE0NjcwMTQgQzExLjc2LDExLjA1MjcwMTQgMTEuNjMzLDEwLjk5OTcwMTQgMTEuNSwxMC45OTk3MDE0IEw5LDEwLjk5OTcwMTQgTDksOC45OTk3MDEzNiBMMTMuMDkyLDguOTk5NzAxMzYgWiIvPiYjeGE7PC9nPiYjeGE7PC9nPiYjeGE7PC9kZWZzPiYjeGE7PC9nPiYjeGE7PHN0eWxlIGRhdGEtc3R5bGVkLXZlcnNpb249IjUuMy4xMSIgZGF0YS1zdHlsZWQ9InRydWUiPi5mQ0xEantjdXJzb3I6cG9pbnRlcjt9Lyohc2MqLyYjeGE7ZGF0YS1zdHlsZWQuZzU4W2lkPSJzYy1OeHNwZiJde2NvbnRlbnQ6ImZDTERqLCJ9Lyohc2MqLyYjeGE7LmRGTlFMSXtzdHJva2U6IzU1NTtiYWNrZ3JvdW5kLWNvbG9yOiM1NTU7c3Ryb2tlLXdpZHRoOjFweDt9Lyohc2MqLyYjeGE7ZGF0YS1zdHlsZWQuZzU5W2lkPSJzYy1jZnhmY00iXXtjb250ZW50OiJkRk5RTEksIn0vKiFzYyovJiN4YTsuanJjQ2twe2ZpbGw6dmFyKC0tY29sb3ItdGV4dC1mb3JtLXNlY29uZGFyeS0xdG4ybmQsIzY4NzA3OCk7fS8qIXNjKi8mI3hhO2RhdGEtc3R5bGVkLmc4N1tpZD0ic2MtaWJRQWxiIl17Y29udGVudDoianJjQ2twLCJ9Lyohc2MqLyYjeGE7LmZuRHVucXtmb250LXdlaWdodDo0MDA7Zm9udC1zaXplOjEycHg7bGluZS1oZWlnaHQ6MTZweDtmb250LWZhbWlseTpBbWF6b24gRW1iZXIsQXJpYWwsUm9ib3RvLEFyaWFsLHNhbnMtc2VyaWY7dGV4dC1zaGFkb3c6bm9uZTtmaWxsOnZhcigtLWNvbG9yLXRleHQtYnV0dG9uLXByaW1hcnktZGVmYXVsdC1oMWVsN28sIzE2MTkxZik7fS8qIXNjKi8mI3hhO2RhdGEtc3R5bGVkLmc4OFtpZD0ic2MtakdLeElLIl17Y29udGVudDoiZm5EdW5xLCJ9Lyohc2MqLyYjeGE7LmdNWmhmcHtmaWxsOiNmZmY5Y2M7c3Ryb2tlOnZhcigtLWNvbG9yLXRleHQtZm9ybS1zZWNvbmRhcnktMXRuMm5kLCM2ODcwNzgpO3N0cm9rZS13aWR0aDowLjZweDt9Lyohc2MqLyYjeGE7ZGF0YS1zdHlsZWQuZzg5W2lkPSJzYy1ndUpCZGgiXXtjb250ZW50OiJnTVpoZnAsIn0vKiFzYyovJiN4YTsua2VxaXNje2ZpbGw6I2ZmZjljYztzdHJva2U6dmFyKC0tY29sb3ItdGV4dC1mb3JtLXNlY29uZGFyeS0xdG4ybmQsIzY4NzA3OCk7c3Ryb2tlLXdpZHRoOjAuNnB4O30vKiFzYyovJiN4YTtkYXRhLXN0eWxlZC5nOTBbaWQ9InNjLWhaRHlBUSJde2NvbnRlbnQ6ImtlcWlzYywifS8qIXNjKi8mI3hhOy5neU12Y0V7c3Ryb2tlOnZhcigtLWNvbG9yLWJvcmRlci1jb250cm9sLWRlZmF1bHQtOWk2eTUzLCM2ODcwNzgpO3N0cm9rZS13aWR0aDoxcHg7ZmlsbDp2YXIoLS1jb2xvci1iYWNrZ3JvdW5kLWNvbnRhaW5lci1jb250ZW50LWV6c3VkMiwjZmZmZmZmKTtvcGFjaXR5OjAuNTt9Lyohc2MqLyYjeGE7Lm5vZGUgJmd0OyAubmV3LWxvb2stc3RhdGUtbm9kZS5oYXMtZXJyb3JzICZndDsgLmJvdW5kaW5nLWJveCAmZ3Q7IC5zYy1mVEZqVE17c3Ryb2tlOnZhcigtLWNvbG9yLWJvcmRlci1zdGF0dXMtZXJyb3ItMTZubDVrLCNkMTMyMTIpO2ZpbGw6dmFyKC0tY29sb3ItYmFja2dyb3VuZC1zdGF0dXMtZXJyb3ItcnYwZ2dvLCNmZGYzZjEpO30vKiFzYyovJiN4YTsuc2VsZWN0ZWQgJmd0OyAubm9kZSAmZ3Q7IC5uZXctbG9vay1zdGF0ZS1ub2RlICZndDsgLmJvdW5kaW5nLWJveCAmZ3Q7IC5zYy1mVEZqVE17c3Ryb2tlOnZhcigtLWNvbG9yLWJvcmRlci1zdGF0dXMtaW5mby1rZDBndnosIzAwNzNiYik7ZmlsbDp2YXIoLS1jb2xvci1iYWNrZ3JvdW5kLXN0YXR1cy1pbmZvLXhkYzN1dSwjZjFmYWZmKTt9Lyohc2MqLyYjeGE7LnNlbGVjdGVkICZndDsgLm5vZGUgJmd0OyAubmV3LWxvb2stc3RhdGUtbm9kZS5oYXMtZXJyb3JzICZndDsgLmJvdW5kaW5nLWJveCAmZ3Q7IC5zYy1mVEZqVE17c3Ryb2tlOnZhcigtLWNvbG9yLWJvcmRlci1zdGF0dXMtZXJyb3ItMTZubDVrLCNkMTMyMTIpO2ZpbGw6I2ZkZTBkYTt9Lyohc2MqLyYjeGE7ZGF0YS1zdHlsZWQuZzkxW2lkPSJzYy1mVEZqVE0iXXtjb250ZW50OiJneU12Y0UsIn0vKiFzYyovJiN4YTs8L3N0eWxlPiYjeGE7PHN0eWxlPiYjeGE7Lm5ldy1sb29rLXN0YXRlLW5vZGUgJmd0OyByZWN0OmZpcnN0LW9mLXR5cGUgeyYjeGE7ICBzdHJva2U6ICM2ODcwNzg7JiN4YTsgIHN0cm9rZS13aWR0aDogMXB4OyYjeGE7ICBmaWxsOiAjRkZGRkZGOyYjeGE7fSYjeGE7JiN4YTsubmV3LWxvb2stc3RhdGUtbm9kZSAuZXJyb3ItaWNvbiBjaXJjbGUgeyYjeGE7IHN0cm9rZS1saW5lam9pbjogcm91bmQ7JiN4YTt9JiN4YTsmI3hhOy5uZXctbG9vay1zdGF0ZS1ub2RlIC5lcnJvci1pY29uIGNpcmNsZSwgLm5ldy1sb29rLXN0YXRlLW5vZGUgLmVycm9yLWljb24gcGF0aCB7JiN4YTsgc3Ryb2tlOiB2YXIoLS1jb2xvci1ib3JkZXItc3RhdHVzLWVycm9yLTE2bmw1aywgI2QxMzIxMik7JiN4YTsgZmlsbDogbm9uZTsmI3hhOyBzdHJva2Utd2lkdGg6IDJweDsmI3hhO30mI3hhOyYjeGE7Lm5ldy1sb29rLXN0YXRlLW5vZGUuaGFzLWVycm9ycyAmZ3Q7IHJlY3Q6Zmlyc3Qtb2YtdHlwZSB7JiN4YTsgc3Ryb2tlOiB2YXIoLS1jb2xvci1ib3JkZXItc3RhdHVzLWVycm9yLTE2bmw1aywgI2QxMzIxMik7JiN4YTsgZmlsbDogdmFyKC0tY29sb3ItYmFja2dyb3VuZC1zdGF0dXMtZXJyb3ItcnYwZ2dvLCAjZmRmM2YxKTsmI3hhO30mI3hhOyYjeGE7Lm5ldy1sb29rLXN0YXRlLW5vZGUuaGFzLWVycm9ycyAmZ3Q7IC5ib3VuZGluZy1ib3ggJmd0OyAubmV3LWxvb2stc3RhdGUtbm9kZS1zdWIgJmd0OyByZWN0IHsmI3hhOyAgc3Ryb2tlOiB2YXIoLS1jb2xvci1ib3JkZXItc3RhdHVzLWVycm9yLTE2bmw1aywgI2QxMzIxMik7JiN4YTsgIGZpbGw6IHZhcigtLWNvbG9yLWJhY2tncm91bmQtc3RhdHVzLWVycm9yLXJ2MGdnbywgI2ZkZjNmMSk7JiN4YTt9JiN4YTsmI3hhOy5uZXctbG9vay1zdGF0ZS1ub2RlIC5oYW5kbGUgcGF0aCB7JiN4YTsgIHN0cm9rZTogdmFyKC0tY29sb3ItYm9yZGVyLWRyb3Bkb3duLWl0ZW0taG92ZXItazBmcWtuLCAjODc5NTk2KTsmI3hhOyAgc3Ryb2tlLXdpZHRoOiAxcHg7JiN4YTsgIGZpbGw6IG5vbmU7JiN4YTt9JiN4YTsmI3hhOy5uZXctbG9vay1zdGF0ZS1ub2RlIHsmI3hhOyAgZm9udC13ZWlnaHQ6IDQwMDsmI3hhOyAgZm9udC1mYW1pbHk6IEFtYXpvbiBFbWJlciwgQXJpYWwsIFJvYm90bywgQXJpYWwsIHNhbnMtc2VyaWY7JiN4YTsgIHRleHQtc2hhZG93OiBub25lOyYjeGE7fSYjeGE7JiN4YTsubmV3LWxvb2stc3RhdGUtbm9kZSAubGluZTEgeyYjeGE7ICBmaWxsOiAjNjg3MDc4OyYjeGE7ICBmb250LXNpemU6IDEycHg7JiN4YTt9JiN4YTsmI3hhOy5uZXctbG9vay1zdGF0ZS1ub2RlIC5saW5lMiB7JiN4YTsgIGZpbGw6ICMxNjE5MWY7JiN4YTt9JiN4YTsmI3hhOy5zZWxlY3RlZC5ub2RlICZndDsgLm5ldy1sb29rLXN0YXRlLW5vZGUgJmd0OyByZWN0LCYjeGE7LnNlbGVjdGVkLm5vZGUgJmd0OyAubmV3LWxvb2stc3RhdGUtbm9kZSAmZ3Q7IC5uZXctbG9vay1zdGF0ZS1ub2RlICZndDsgcmVjdCwmI3hhOy5zZWxlY3RlZC5ub2RlICZndDsgLm5ldy1sb29rLXN0YXRlLW5vZGUgJmd0OyAuYm91bmRpbmctYm94ICZndDsgcmVjdCwmI3hhOy5zZWxlY3RlZC5ub2RlICZndDsgLm5ldy1sb29rLXN0YXRlLW5vZGUuaGFzLWVycm9ycyAmZ3Q7IHJlY3QsJiN4YTsuc2VsZWN0ZWQubm9kZSAmZ3Q7IC5uZXctbG9vay1zdGF0ZS1ub2RlLmhhcy1lcnJvcnMgJmd0OyAuYm91bmRpbmctYm94ICZndDsgcmVjdCwmI3hhOy5zZWxlY3RlZC5ub2RlICZndDsgLm5ldy1sb29rLXN0YXRlLW5vZGUuaGFzLWVycm9ycyAmZ3Q7IC5uZXctbG9vay1zdGF0ZS1ub2RlICZndDsgcmVjdCwmI3hhOy5zZWxlY3RlZC5ub2RlICZndDsgLm5ldy1sb29rLXN0YXRlLW5vZGUgJmd0OyAuYm91bmRpbmctYm94ICZndDsgLm5ldy1sb29rLXN0YXRlLW5vZGUtc3ViICZndDsgcmVjdCYjeGE7IHsmI3hhOyAgc3Ryb2tlOiB2YXIoLS1jb2xvci1ib3JkZXItc3RhdHVzLWluZm8ta2QwZ3Z6LCAjMDA3M2JiKTsmI3hhOyAgZmlsbDogdmFyKC0tY29sb3ItYmFja2dyb3VuZC1zdGF0dXMtaW5mby14ZGMzdXUsICNmMWZhZmYpOyYjeGE7ICBzdHJva2Utd2lkdGg6IDFweDsmI3hhO30mI3hhOyYjeGE7Lm5ldy1sb29rLXN0YXRlLW5vZGUtc3ViIC5pdGVtLXNvdXJjZS5ub3Qtc3BlY2lmaWVkIHsmI3hhOyAgaGVpZ2h0OiAxNXB4OyYjeGE7ICBjb2xvcjogIzY4NzA3ODsmI3hhOyAgZm9udC1mYW1pbHk6ICJBbWF6b24gRW1iZXIiOyYjeGE7ICBmb250LXNpemU6IDEycHg7JiN4YTsgIGxldHRlci1zcGFjaW5nOiAwOyYjeGE7ICBsaW5lLWhlaWdodDogMTZweDsmI3hhOyAgZm9udC13ZWlnaHQ6IDQwMDsmI3hhO30mI3hhOy5uZXctbG9vay1zdGF0ZS1ub2RlLXN1YiAuaXRlbS1zb3VyY2UgLml0ZW0tc291cmNlX25hbWV7JiN4YTsgIGZvbnQtd2VpZ2h0OiA2MDA7JiN4YTt9JiN4YTsubmV3LWxvb2stc3RhdGUtbm9kZS1zdWIgLml0ZW0tc291cmNlLm5vdC1zcGVjaWZpZWQgLml0ZW0tc291cmNlX25hbWV7JiN4YTsgIGZvbnQtd2VpZ2h0OiA0MDA7JiN4YTt9JiN4YTsmI3hhOy5uZXctbG9vay1zdGF0ZS1ub2RlLXN1YiAuaXRlbS1zb3VyY2Uubm90LXNwZWNpZmllZCB7JiN4YTsgIGZvbnQtc3R5bGU6IGl0YWxpYzsmI3hhO30mI3hhOyYjeGE7Lm5ldy1sb29rLXN0YXRlLW5vZGUtc3ViICZndDsgcmVjdCwmI3hhOy5uZXctbG9vay1zdGF0ZS1ub2RlICZndDsgLmJvdW5kaW5nLWJveCAmZ3Q7IHJlY3QgeyYjeGE7ICBzdHJva2U6IHZhcigtLWNvbG9yLWJvcmRlci1jb250cm9sLWRlZmF1bHQtOWk2eTUzLCAjNjg3MDc4KTsmI3hhOyAgZmlsbDogI2ZmZmZmZjsmI3hhO30mI3hhOyYjeGE7Lm5ldy1sb29rLWdyYXBoIC5kcmFnLXNvdXJjZSB7JiN4YTsgIG9wYWNpdHk6IDAuMjsmI3hhO30mI3hhOyYjeGE7Lm5ldy1sb29rLWdyYXBoIC5lZGdlLCAubmV3LWxvb2stZ3JhcGggcGF0aC5zdGFydGluZy1jb25uZWN0aW9uIHsmI3hhOyAgc3Ryb2tlLXdpZHRoOiAxcHg7JiN4YTsgIHN0cm9rZTogdmFyKC0tY29sb3ItdGV4dC1mb3JtLXNlY29uZGFyeS0xdG4ybmQsICM2ODcwNzgpOyYjeGE7ICBtYXJrZXItZW5kOiB1cmwoI2xhcmdlLWFycm93aGVhZCk7JiN4YTt9JiN4YTsmI3hhOy5uZXctbG9vay1ncmFwaCAuZWRnZS1sYWJlbCB7JiN4YTsgIGN1cnNvcjogcG9pbnRlcjsmI3hhO30mI3hhOyYjeGE7Lm5ldy1sb29rLWdyYXBoIC5lZGdlLWxhYmVsIHJlY3QgeyYjeGE7ICBzdHJva2Utd2lkdGg6IDFweDsmI3hhOyAgc3Ryb2tlOiB2YXIoLS1jb2xvci1ib3JkZXItY29udHJvbC1kZWZhdWx0LTlpNnk1MywgIzY4NzA3OCk7JiN4YTsgIGZpbGw6ICNmYWZhZmE7JiN4YTt9JiN4YTsmI3hhOy5uZXctbG9vay1ncmFwaCAuZWRnZS1sYWJlbC5zZWxlY3RlZCByZWN0IHsmI3hhOyAgc3Ryb2tlOiB2YXIoLS1jb2xvci1ib3JkZXItc3RhdHVzLWluZm8ta2QwZ3Z6LCAjMDA3M2JiKTsmI3hhOyAgZmlsbDogdmFyKC0tY29sb3ItYmFja2dyb3VuZC1zdGF0dXMtaW5mby14ZGMzdXUsICNmMWZhZmYpOyYjeGE7ICBzdHJva2Utd2lkdGg6IDAuNnB4OyYjeGE7fSYjeGE7JiN4YTsmI3hhOyYjeGE7Lm5ldy1sb29rLWdyYXBoIC5lZGdlLWxhYmVsIC5sYWJlbCB7JiN4YTsgIGZpbGw6IHZhcigtLWNvbG9yLXRleHQtZm9ybS1zZWNvbmRhcnktMXRuMm5kLCAjNjg3MDc4KTsmI3hhOyAgZm9udC1mYW1pbHk6IEFtYXpvbiBFbWJlciwgQXJpYWwsIFJvYm90bywgQXJpYWwsIHNhbnMtc2VyaWY7JiN4YTt9JiN4YTsmI3hhOy8qIGNlbnRlcmluZyB0aGUgc2hhcGUgdGV4dCAqLyYjeGE7QC1tb3otZG9jdW1lbnQgdXJsLXByZWZpeCgpIHsmI3hhOyAgLm5ldy1sb29rLWdyYXBoIC5zaGFwZSArIHRleHQsJiN4YTsgIC5uZXctbG9vay1ncmFwaCAuZWRnZS1sYWJlbCB0ZXh0IHsmI3hhOyAgICB0cmFuc2Zvcm06IHRyYW5zbGF0ZVkoMy41cHgpOyYjeGE7ICB9JiN4YTt9JiN4YTsmI3hhOy5uZXctbG9vay1ncmFwaCAuZWRnZSBwYXRoIHsmI3hhOyAgbWFya2VyLWVuZDogdXJsKCNsYXJnZS1hcnJvd2hlYWQpICFpbXBvcnRhbnQ7JiN4YTt9JiN4YTsmI3hhOy5uZXctbG9vay1ncmFwaCAuZWRnZS5zZWxlY3RlZCBwYXRoeyYjeGE7ICBzdHJva2U6IHZhcigtLWNvbG9yLWJvcmRlci1zdGF0dXMtaW5mby1rZDBndnosICMwMDczYmIpOyYjeGE7ICBzdHJva2Utd2lkdGg6IDEuMXB4OyYjeGE7fSYjeGE7JiN4YTsubmV3LWxvb2stZ3JhcGggLmVkZ2UuZHJhZ2dpbmctb3ZlciBwYXRoLCAubmV3LWxvb2stZ3JhcGggIGcuZHJhZ2dpbmctb3ZlciAuc3RhcnRpbmctY29ubmVjdGlvbiB7JiN4YTsgIHN0cm9rZTogIzVDODZGRjsmI3hhOyAgc3Ryb2tlLXdpZHRoOiAycHg7JiN4YTt9JiN4YTsmI3hhOy5uZXctbG9vay1ncmFwaCAuZWRnZS5kcmFnZ2luZy1vdmVyIHBhdGgsIC5uZXctbG9vay1ncmFwaCAuZHJhZ2dpbmctb3ZlciBwYXRoLnN0YXJ0aW5nLWNvbm5lY3Rpb24geyYjeGE7ICBtYXJrZXItZW5kOiB1cmwoI2xhcmdlLWhpZ2hsaWdodGVkLWFycm93aGVhZCkgIWltcG9ydGFudDsmI3hhO30mI3hhOyYjeGE7Lm5ldy1sb29rLWdyYXBoIC5lZGdlLmRyYWdnaW5nLW92ZXIgLmVkZ2UtbGFiZWwgdGV4dCB7JiN4YTsgIGZpbGw6ICM1Qzg2RkY7JiN4YTt9JiN4YTsmI3hhOyNsYXJnZS1oaWdobGlnaHRlZC1hcnJvd2hlYWQgeyYjeGE7ICBmaWxsOiAjNUM4NkZGOyYjeGE7fSYjeGE7JiN4YTsjbGFyZ2UtaGlnaGxpZ2h0ZWQtYXJyb3doZWFkIHBhdGggeyYjeGE7ICBzdHJva2U6IG5vbmU7JiN4YTt9JiN4YTsmI3hhOy5uZXctbG9vay1ncmFwaCAuZWRnZS5kcm9wLW5vdC1zdXBwb3J0ZWQgcGF0aCwgZy5kcm9wLW5vdC1zdXBwb3J0ZWQgLnN0YXJ0aW5nLWNvbm5lY3Rpb24geyYjeGE7ICBzdHJva2U6IHJlZDsmI3hhO30mI3hhOyYjeGE7Lm5ldy1sb29rLWdyYXBoIC5lZGdlLmRyb3Atbm90LXN1cHBvcnRlZCAuZWRnZS1sYWJlbCB0ZXh0IHsmI3hhOyAgZmlsbDogcmVkOyYjeGE7fSYjeGE7JiN4YTsubmV3LWxvb2stZ3JhcGggLmVkZ2UuZHJvcC1ub3Qtc3VwcG9ydGVkIHBhdGggeyYjeGE7ICBtYXJrZXItZW5kOiB1cmwoI2xhcmdlLWVycm9yLWFycm93aGVhZCkgIWltcG9ydGFudDsmI3hhO30mI3hhOyYjeGE7I2xhcmdlLWVycm9yLWFycm93aGVhZCB7JiN4YTsgIGZpbGw6IHJlZDsmI3hhO30mI3hhOyYjeGE7Lm5vZGUtY29udGFpbmVyICogJmd0OyAuaWNvbiAgeyYjeGE7ICAmZ3Q7IHJlY3QgeyYjeGE7ICAgIGZpbGw6ICNmYWZhZmE7JiN4YTsgIH0mI3hhOyAgJmd0OyBsaW5lIHsmI3hhOyAgICBzdHJva2U6ICNkNWRiZGI7JiN4YTsgIH0mI3hhO30mI3hhOyYjeGE7JiN4YTsubm9kZS5QbGFjZWhvbGRlci5kcmFnZ2luZy1vdmVyIHJlY3QgeyYjeGE7ICBzdHJva2U6IHZhcigtLWNvbG9yLWJvcmRlci1zdGF0dXMtaW5mby1rZDBndnosICMwMDczYmIpOyYjeGE7ICBmaWxsOiB2YXIoLS1jb2xvci1iYWNrZ3JvdW5kLXN0YXR1cy1pbmZvLXhkYzN1dSwgI2YxZmFmZik7JiN4YTsgIHN0cm9rZS13aWR0aDogMnB4OyYjeGE7fSYjeGE7JiN4YTsubm9kZS5QbGFjZWhvbGRlci5kcmFnZ2luZy1vdmVyIC5sYWJlbCB7JiN4YTsgIGZpbGw6IHZhcigtLWNvbG9yLXRleHQtc3RhdHVzLWluZm8tanF2dnJkLCAjMDA3M2JiKTsmI3hhO30mI3hhOyYjeGE7Zy5QbGFjZWhvbGRlciByZWN0IHsmI3hhOyAgc3Ryb2tlLWRhc2hhcnJheTogNSA0OyYjeGE7ICBzdHJva2U6IHZhcigtLWNvbG9yLWJvcmRlci1kcm9wZG93bi1pdGVtLWhvdmVyLWswZnFrbiwgIzg3OTU5Nik7JiN4YTsgIGZpbGw6ICNmZmZmZmY7JiN4YTsgIHN0cm9rZS13aWR0aDogMXB4OyYjeGE7fSYjeGE7JiN4YTtnLlBsYWNlaG9sZGVyIC5sYWJlbCB7JiN4YTsgIGZvbnQtc3R5bGU6IGl0YWxpYzsmI3hhOyAgZmlsbDogdmFyKC0tY29sb3ItdGV4dC1pbnB1dC1wbGFjZWhvbGRlci0wODRlNnEsICM2ODcwNzgpOyYjeGE7fSYjeGE7JiN4YTsubm9kZS5QbGFjZWhvbGRlci5kcm9wLW5vdC1zdXBwb3J0ZWQgcmVjdCB7JiN4YTsgIHN0cm9rZTogcmVkOyYjeGE7fSYjeGE7JiN4YTsubm9kZS5QbGFjZWhvbGRlci5kcm9wLW5vdC1zdXBwb3J0ZWQgLmxhYmVsIHsmI3hhOyAgZmlsbDogcmVkOyYjeGE7fSYjeGE7PC9zdHlsZT4mI3hhOzxzdHlsZT4ubGluZTIgeyBmb250LXNpemU6IDE0cHggfTwvc3R5bGU+JiN4YTs8L3N2Zz4=;" vertex="1" parent="qY5O7VFriRonlo1umFiI-5">
          <mxGeometry x="11.45" y="30" width="379.09" height="555.35" as="geometry" />
        </mxCell>
        <mxCell id="qY5O7VFriRonlo1umFiI-8" style="edgeStyle=orthogonalEdgeStyle;rounded=0;orthogonalLoop=1;jettySize=auto;html=1;exitX=1;exitY=0.25;exitDx=0;exitDy=0;entryX=0;entryY=0.5;entryDx=0;entryDy=0;entryPerimeter=0;" edge="1" parent="1" source="qY5O7VFriRonlo1umFiI-2" target="qY5O7VFriRonlo1umFiI-3">
          <mxGeometry relative="1" as="geometry">
            <Array as="points">
              <mxPoint x="310" y="410" />
              <mxPoint x="310" y="220" />
            </Array>
          </mxGeometry>
        </mxCell>
        <mxCell id="qY5O7VFriRonlo1umFiI-9" style="edgeStyle=orthogonalEdgeStyle;rounded=0;orthogonalLoop=1;jettySize=auto;html=1;entryX=0;entryY=0.5;entryDx=0;entryDy=0;entryPerimeter=0;" edge="1" parent="1" source="qY5O7VFriRonlo1umFiI-3" target="qY5O7VFriRonlo1umFiI-4">
          <mxGeometry relative="1" as="geometry" />
        </mxCell>
        <mxCell id="qY5O7VFriRonlo1umFiI-10" style="edgeStyle=orthogonalEdgeStyle;rounded=0;orthogonalLoop=1;jettySize=auto;html=1;entryX=0;entryY=0.033;entryDx=0;entryDy=0;entryPerimeter=0;" edge="1" parent="1" source="qY5O7VFriRonlo1umFiI-4" target="qY5O7VFriRonlo1umFiI-5">
          <mxGeometry relative="1" as="geometry" />
        </mxCell>
        <mxCell id="qY5O7VFriRonlo1umFiI-11" style="edgeStyle=orthogonalEdgeStyle;rounded=0;orthogonalLoop=1;jettySize=auto;html=1;entryX=1;entryY=0.75;entryDx=0;entryDy=0;" edge="1" parent="1" target="qY5O7VFriRonlo1umFiI-2">
          <mxGeometry relative="1" as="geometry">
            <mxPoint x="625" y="603" as="sourcePoint" />
            <mxPoint x="330" y="230" as="targetPoint" />
            <Array as="points">
              <mxPoint x="625" y="604" />
              <mxPoint x="310" y="604" />
              <mxPoint x="310" y="430" />
            </Array>
          </mxGeometry>
        </mxCell>
        <mxCell id="qY5O7VFriRonlo1umFiI-13" value="" style="sketch=0;outlineConnect=0;fontColor=#232F3E;gradientColor=none;fillColor=#232F3D;strokeColor=none;dashed=0;verticalLabelPosition=bottom;verticalAlign=top;align=center;html=1;fontSize=12;fontStyle=0;aspect=fixed;pointerEvents=1;shape=mxgraph.aws4.user;" vertex="1" parent="1">
          <mxGeometry x="40" y="400" width="40" height="40" as="geometry" />
        </mxCell>
        <mxCell id="qY5O7VFriRonlo1umFiI-14" value="" style="sketch=0;points=[[0,0,0],[0.25,0,0],[0.5,0,0],[0.75,0,0],[1,0,0],[0,1,0],[0.25,1,0],[0.5,1,0],[0.75,1,0],[1,1,0],[0,0.25,0],[0,0.5,0],[0,0.75,0],[1,0.25,0],[1,0.5,0],[1,0.75,0]];outlineConnect=0;fontColor=#232F3E;fillColor=#C925D1;strokeColor=#ffffff;dashed=0;verticalLabelPosition=bottom;verticalAlign=top;align=center;html=1;fontSize=12;fontStyle=0;aspect=fixed;shape=mxgraph.aws4.resourceIcon;resIcon=mxgraph.aws4.dynamodb;" vertex="1" parent="1">
          <mxGeometry x="1210" y="460" width="40" height="40" as="geometry" />
        </mxCell>
        <mxCell id="qY5O7VFriRonlo1umFiI-34" style="edgeStyle=orthogonalEdgeStyle;rounded=0;orthogonalLoop=1;jettySize=auto;html=1;entryX=0.5;entryY=1;entryDx=0;entryDy=0;" edge="1" parent="1" source="qY5O7VFriRonlo1umFiI-15" target="qY5O7VFriRonlo1umFiI-36">
          <mxGeometry relative="1" as="geometry">
            <mxPoint x="1060" y="290" as="targetPoint" />
          </mxGeometry>
        </mxCell>
        <mxCell id="qY5O7VFriRonlo1umFiI-15" value="" style="sketch=0;points=[[0,0,0],[0.25,0,0],[0.5,0,0],[0.75,0,0],[1,0,0],[0,1,0],[0.25,1,0],[0.5,1,0],[0.75,1,0],[1,1,0],[0,0.25,0],[0,0.5,0],[0,0.75,0],[1,0.25,0],[1,0.5,0],[1,0.75,0]];outlineConnect=0;fontColor=#232F3E;fillColor=#01A88D;strokeColor=#ffffff;dashed=0;verticalLabelPosition=bottom;verticalAlign=top;align=center;html=1;fontSize=12;fontStyle=0;aspect=fixed;shape=mxgraph.aws4.resourceIcon;resIcon=mxgraph.aws4.bedrock;" vertex="1" parent="1">
          <mxGeometry x="1080" y="400" width="40" height="40" as="geometry" />
        </mxCell>
        <mxCell id="qY5O7VFriRonlo1umFiI-16" value="Amazon API Gateway" style="text;strokeColor=none;align=center;fillColor=none;html=1;verticalAlign=middle;whiteSpace=wrap;rounded=0;" vertex="1" parent="1">
          <mxGeometry x="315" y="240" width="130" height="30" as="geometry" />
        </mxCell>
        <mxCell id="qY5O7VFriRonlo1umFiI-17" value="AWS Lambda" style="text;strokeColor=none;align=center;fillColor=none;html=1;verticalAlign=middle;whiteSpace=wrap;rounded=0;" vertex="1" parent="1">
          <mxGeometry x="450" y="240" width="100" height="30" as="geometry" />
        </mxCell>
        <mxCell id="qY5O7VFriRonlo1umFiI-18" value="Amazon Bedrock&lt;div&gt;Knowledge Base&lt;/div&gt;" style="text;strokeColor=none;align=center;fillColor=none;html=1;verticalAlign=middle;whiteSpace=wrap;rounded=0;" vertex="1" parent="1">
          <mxGeometry x="1035" y="440" width="130" height="30" as="geometry" />
        </mxCell>
        <mxCell id="qY5O7VFriRonlo1umFiI-19" value="Amazon DynamoDB" style="text;strokeColor=none;align=center;fillColor=none;html=1;verticalAlign=middle;whiteSpace=wrap;rounded=0;" vertex="1" parent="1">
          <mxGeometry x="1165" y="500" width="130" height="30" as="geometry" />
        </mxCell>
        <mxCell id="qY5O7VFriRonlo1umFiI-22" style="edgeStyle=orthogonalEdgeStyle;rounded=0;orthogonalLoop=1;jettySize=auto;html=1;entryX=0.5;entryY=0;entryDx=0;entryDy=0;entryPerimeter=0;" edge="1" parent="1" target="qY5O7VFriRonlo1umFiI-14">
          <mxGeometry relative="1" as="geometry">
            <mxPoint x="886" y="360" as="sourcePoint" />
            <mxPoint x="1140" y="280" as="targetPoint" />
          </mxGeometry>
        </mxCell>
        <mxCell id="qY5O7VFriRonlo1umFiI-23" style="edgeStyle=orthogonalEdgeStyle;rounded=0;orthogonalLoop=1;jettySize=auto;html=1;entryX=0.5;entryY=1;entryDx=0;entryDy=0;" edge="1" parent="1" target="qY5O7VFriRonlo1umFiI-19">
          <mxGeometry relative="1" as="geometry">
            <mxPoint x="977" y="603" as="sourcePoint" />
            <mxPoint x="1321" y="703" as="targetPoint" />
          </mxGeometry>
        </mxCell>
        <mxCell id="qY5O7VFriRonlo1umFiI-24" style="rounded=0;orthogonalLoop=1;jettySize=auto;html=1;edgeStyle=orthogonalEdgeStyle;" edge="1" parent="1" target="qY5O7VFriRonlo1umFiI-15">
          <mxGeometry relative="1" as="geometry">
            <mxPoint x="919" y="480" as="sourcePoint" />
            <mxPoint x="570" y="479.5" as="targetPoint" />
            <Array as="points">
              <mxPoint x="960" y="480" />
              <mxPoint x="960" y="420" />
            </Array>
          </mxGeometry>
        </mxCell>
        <mxCell id="qY5O7VFriRonlo1umFiI-25" value="(Webhook)" style="text;strokeColor=none;align=center;fillColor=none;html=1;verticalAlign=middle;whiteSpace=wrap;rounded=0;" vertex="1" parent="1">
          <mxGeometry x="200.5" y="380" width="110" height="30" as="geometry" />
        </mxCell>
        <mxCell id="qY5O7VFriRonlo1umFiI-26" value="(Reply)" style="text;strokeColor=none;align=center;fillColor=none;html=1;verticalAlign=middle;whiteSpace=wrap;rounded=0;" vertex="1" parent="1">
          <mxGeometry x="200.5" y="430" width="110" height="30" as="geometry" />
        </mxCell>
        <mxCell id="qY5O7VFriRonlo1umFiI-27" style="rounded=0;orthogonalLoop=1;jettySize=auto;html=1;entryX=0;entryY=0.5;entryDx=0;entryDy=0;startArrow=classic;startFill=1;endArrow=none;" edge="1" parent="1">
          <mxGeometry relative="1" as="geometry">
            <mxPoint x="110.02999999999997" y="430" as="sourcePoint" />
            <mxPoint x="159" y="429.77" as="targetPoint" />
          </mxGeometry>
        </mxCell>
        <mxCell id="qY5O7VFriRonlo1umFiI-28" value="" style="sketch=0;outlineConnect=0;fontColor=#232F3E;gradientColor=none;fillColor=#232F3D;strokeColor=none;dashed=0;verticalLabelPosition=bottom;verticalAlign=top;align=center;html=1;fontSize=12;fontStyle=0;aspect=fixed;pointerEvents=1;shape=mxgraph.aws4.question;" vertex="1" parent="1">
          <mxGeometry x="130" y="370" width="15.77" height="30" as="geometry" />
        </mxCell>
        <mxCell id="qY5O7VFriRonlo1umFiI-29" value="" style="sketch=0;outlineConnect=0;fontColor=#232F3E;gradientColor=none;fillColor=#232F3D;strokeColor=none;dashed=0;verticalLabelPosition=bottom;verticalAlign=top;align=center;html=1;fontSize=12;fontStyle=0;aspect=fixed;pointerEvents=1;shape=mxgraph.aws4.chat;rotation=-180;" vertex="1" parent="1">
          <mxGeometry x="123.63" y="440" width="28.5" height="24.85" as="geometry" />
        </mxCell>
        <mxCell id="qY5O7VFriRonlo1umFiI-30" value="" style="sketch=0;points=[[0,0,0],[0.25,0,0],[0.5,0,0],[0.75,0,0],[1,0,0],[0,1,0],[0.25,1,0],[0.5,1,0],[0.75,1,0],[1,1,0],[0,0.25,0],[0,0.5,0],[0,0.75,0],[1,0.25,0],[1,0.5,0],[1,0.75,0]];outlineConnect=0;fontColor=#232F3E;fillColor=#8C4FFF;strokeColor=#ffffff;dashed=0;verticalLabelPosition=bottom;verticalAlign=top;align=center;html=1;fontSize=12;fontStyle=0;aspect=fixed;shape=mxgraph.aws4.resourceIcon;resIcon=mxgraph.aws4.elasticsearch_service;" vertex="1" parent="1">
          <mxGeometry x="1080" y="520" width="40" height="40" as="geometry" />
        </mxCell>
        <mxCell id="qY5O7VFriRonlo1umFiI-31" value="Amazon OpenSearch Service" style="text;strokeColor=none;align=center;fillColor=none;html=1;verticalAlign=middle;whiteSpace=wrap;rounded=0;" vertex="1" parent="1">
          <mxGeometry x="1010" y="560" width="180" height="30" as="geometry" />
        </mxCell>
        <mxCell id="qY5O7VFriRonlo1umFiI-32" style="edgeStyle=orthogonalEdgeStyle;rounded=0;orthogonalLoop=1;jettySize=auto;html=1;entryX=0.5;entryY=0;entryDx=0;entryDy=0;entryPerimeter=0;" edge="1" parent="1" source="qY5O7VFriRonlo1umFiI-18" target="qY5O7VFriRonlo1umFiI-30">
          <mxGeometry relative="1" as="geometry" />
        </mxCell>
        <mxCell id="qY5O7VFriRonlo1umFiI-33" value="" style="sketch=0;outlineConnect=0;fontColor=#232F3E;gradientColor=none;fillColor=#232F3D;strokeColor=none;dashed=0;verticalLabelPosition=bottom;verticalAlign=top;align=center;html=1;fontSize=12;fontStyle=0;aspect=fixed;pointerEvents=1;shape=mxgraph.aws4.globe;" vertex="1" parent="1">
          <mxGeometry x="1080" y="220" width="40" height="40" as="geometry" />
        </mxCell>
        <mxCell id="qY5O7VFriRonlo1umFiI-35" value="(Crawling)" style="text;strokeColor=none;align=center;fillColor=none;html=1;verticalAlign=middle;whiteSpace=wrap;rounded=0;" vertex="1" parent="1">
          <mxGeometry x="1099" y="300" width="70" height="30" as="geometry" />
        </mxCell>
        <mxCell id="qY5O7VFriRonlo1umFiI-36" value="(Web site)" style="text;strokeColor=none;align=center;fillColor=none;html=1;verticalAlign=middle;whiteSpace=wrap;rounded=0;" vertex="1" parent="1">
          <mxGeometry x="1060" y="260" width="80" height="30" as="geometry" />
        </mxCell>
      </root>
    </mxGraphModel>
  </diagram>
</mxfile>
